<?xml version="1.0" encoding="UTF-8"?>
<svg id="Layer_1" data-name="Layer 1" xmlns="http://www.w3.org/2000/svg" viewBox="0 0 1484.19 1246.34">
  <defs>
    <style>
      .cls-1 {
        fill: #8fc0ef;
      }

      .cls-2 {
        fill: #739de9;
      }

      .cls-3 {
        fill: #3751bd;
      }
    </style>
  </defs>
  <path class="cls-1" d="M0,222.08c6.63-1.95,22.45-19.28,27.65-19.79.74-.07,1.4.18,2.03.52l143.32,107.25c-.95-.03-1.76.43-2.47,1.01-27.43,22.3-58.04,43.11-82.56,68.48-3.32,3.44-7.65,8.58-10,12.51L0,345.08v-123Z"/>
  <path class="cls-1" d="M0,639.08l21.92-3.91c20.24,57.13,65.85,102.47,116.09,134.42l-92.65,75.33L0,819.08v-180Z"/>
  <path class="cls-1" d="M0,350.08l73.01,45.51c-16.96,21.62-33.52,43.8-44.1,69.42l-28.91-8.93v-106Z"/>
  <path class="cls-1" d="M0,462.08c3.55.56,25.57,6.73,25.97,8.56.18.82-5.41,13.17-6.24,15.66-4.85,14.66-8.4,30.09-10.6,45.4-.29,2.02-.69,12.86-1.12,13.38-.47.56-6.58-.41-8-1.01v-82Z"/>
  <polygon class="cls-2" points="0 825.08 40 848.1 0 879.08 0 825.08"/>
  <path class="cls-1" d="M0,550.08c1.49.25,7.64-.36,8.01,0,.87.86-.26,20.83-.05,24.55,1.07,18.41,6.34,38,12.04,55.45l-20,3.01v-83Z"/>
  <polygon class="cls-1" points="1288 227.09 1161.02 332.58 1317.99 433.06 1275.64 465.97 1118.64 368.17 1032.52 439.1 1000.18 418.45 1015.77 365.34 1015.5 360.08 955.96 322.62 950.75 322.3 877.32 342.84 845.01 324.06 932.99 248.1 777 148.1 821.32 113.28 978.34 213.88 1104.5 114.43 1288 227.09"/>
  <path class="cls-1" d="M718,1079.08l-45.01,156c-1.53,1.45-12.96-5.78-15.31-7.19-72.71-43.81-143.62-93.66-217-135.99-3.31-1.91-6.6-1.19-3.21-4.85,2.94-3.18,9.37-7.89,13.05-10.95,26.61-22.1,54.13-43.26,81.16-64.86,56.21,36.06,119.44,60.85,186.32,67.85Z"/>
  <polygon class="cls-1" points="526 1007.09 431.48 1084.1 235 962.58 329.5 888.09 526 1007.09"/>
  <path class="cls-1" d="M218.42,160.67c21.37,23.73,42.52,47.69,63.61,71.67.69.78,2.22.69,1.97,1.24-.47,1.01-16.98,8.81-19.67,10.33-30.93,17.56-58.73,39.45-86.24,61.74L33.01,199.06l1.51-2.97c32.09-23.02,62.06-49.07,94.77-71.23,11.6-7.86,23.89-14.64,35.36-22.7,1.27-.29,5.76,4.73,6.87,5.91,16.04,17.04,31.23,35.2,46.9,52.6Z"/>
  <path class="cls-1" d="M1038,1024.1c.53-.77,13.73-7.51,16.31-9.2,30.45-19.97,57.52-44.13,86.02-66.68l157.65,97.36c-40.96,32.64-79.35,68.77-123.34,97.43l-136.64-118.92Z"/>
  <path class="cls-1" d="M1145.01,943.1c2.6-.87,5.36-3.27,7.47-5.04,22.78-19.04,45.86-36.15,65.04-58.96,2.32-2.76,13.35-18.53,15.13-18.86l178.33,80.34c-30.12,39.64-70.21,69.95-108.46,101.23l-157.51-98.71Z"/>
  <path class="cls-1" d="M301.42,902.5c-21.52,17.29-43.23,34.44-64.89,51.61-2.16,1.71-3.98,5.32-6.96,5.01l-180.56-110.53,94.48-75.31,180.03,110.8c.92.69-.48,1.5-1.04,1.99-6.67,5.84-14.16,10.89-21.07,16.44Z"/>
  <path class="cls-1" d="M829.95,1084.13l18.05,159.95c-10.82.8-21.71.56-32.55.96-2.37.09-4.55,1.02-6.92,1.08-43.23,1.17-86.87-2.45-129.52-9.06l45.92-156.55,50.52,4.62,54.49-.99Z"/>
  <path class="cls-1" d="M1053.59,1045.5c38.98,33.08,77.22,67.23,116.41,100.08-44.95,28.75-94.81,50.42-146.33,64.41l-82.67-145.89c31.57-8.16,61.9-20.83,90.74-35.87l2.22.32c6.32,5.9,13.04,11.37,19.62,16.95Z"/>
  <path class="cls-1" d="M935.86,1067.22l82.14,145.85c-53.65,14.5-108.23,26.86-164,30.01l-18-160c33.87-1.45,66.84-9.83,99.86-15.86Z"/>
  <path class="cls-1" d="M381,198.07c-.76,1.04-21.17,5.62-24.77,6.75-23,7.2-45.27,16.03-67.25,25.8l-116.99-131.01c45.75-26.42,96.07-43.83,146.99-57.53l62.02,155.99Z"/>
  <path class="cls-1" d="M481.01,21.07l1,164.01c-15.77.23-31.81,1.1-47.49,3-13.89,1.68-31.36,7.12-44.16,7.92-1.18.07-2.32.37-3.4-.38l-61.96-154.54c50.94-12.65,103.38-19.57,156.01-20.02Z"/>
  <path class="cls-1" d="M1471.97,819.13c.73,1.05-5.91,21.51-6.93,24.49-11.29,32.85-29.17,64.89-50.51,92.15l-179.53-79.7c11.83-17.48,21.56-35.66,29.02-55.47.94-2.51,4.3-15.04,5.43-15.26l202.53,33.78Z"/>
  <path class="cls-1" d="M1481,689.07l3.04,33.46c1.11,30.94-4.03,61.41-10.04,91.55l-203-33.01,5.67-35.64c-1.51-3.96.23-7.11.38-10.82.42-10.14-.4-20.41-.05-30.55l204.01-15Z"/>
  <path class="cls-1" d="M1439.9,563.15c19.38,38.01,34,78.44,40.1,120.93l-203.95,14.95c-2.39-26.84-12.19-51.65-23.05-75.93l138.21-46.32c13.87-.43,27.48-8.27,41.02-11.96,1.5-.41,6.89-2.24,7.66-1.67Z"/>
  <path class="cls-1" d="M643.01,38.08l-60.97,155.59c-30.72-5.47-61.75-9.48-93.04-8.59l-2-164.01c52.57-.74,104.66,6.96,156.01,17.01Z"/>
  <polygon class="cls-1" points="925 249.1 839.52 320.1 687.03 227.59 753.33 140.18 925 249.1"/>
  <path class="cls-1" d="M1297,486.06l-102.35,60.87c-14.1-13.89-30.3-25.21-46.51-36.48l-111.12-68.36c1.14-.05,2.2-.72,3.03-1.47,24.57-22.18,51.25-41.99,76.01-63.99l4.21-1.38,176.74,110.81Z"/>
  <path class="cls-2" d="M655,1232.07c-3.38,1.7-6.18-.22-9.5-.09-83.26,3.47-193.33-8.08-259.51-63.39-2.85-2.38-21.31-19.1-20.92-20.88l68.25-54.44,221.67,138.79Z"/>
  <path class="cls-1" d="M761,119.09l-79.69,105.87c-30.23-12.4-60.98-24.11-93.31-29.9l46.47-119.85,126.53,43.87Z"/>
  <path class="cls-1" d="M254,271.08c1.02,2.63,4.27,2.12,6,3,2.77,1.41,9.11,5.87,12,8,1.61,1.18,4.77,2.8,5,3,.46.41,7.3,8.11,8,9,.18.23,2.88,4.73,3,5,1.03,2.33,2.15,11.7,5,12-1.77,11.96.24,21.2-8.6,30.9-35.69,22.54-68.75,71.99-115.4,64.1-3.8-.64-11.49-2.11-15-3-.32-.08-5.71-1.85-6-2-.68-.35-9.51-7.28-12-9-1.28-.89-3.52-1.61-4-2-1.59-1.28-7.79-8.22-9-10-.89-1.31.08-4.79-3-4,1.13-2.93-3.1-11.24-5-14,38.08-31.82,81.33-66.54,122-95l17,4Z"/>
  <path class="cls-1" d="M1378.41,558.68c1.48,1.87,10.41,11.15,10.58,11.93.31,1.37-.75,1.75-1.68,2.28l-136.81,45.3c-.49.08-.89-.06-1.3-.31-.93-.55-8.93-15.87-10.78-18.72-8.03-12.41-17.08-24.07-26.9-35.1-3.71-4.17-8.26-7.78-11.9-11.99-.61-.7-1.02-.48-.61-1.98l116.5-70c21.8,25.53,42.1,52.26,62.91,78.58Z"/>
  <path class="cls-1" d="M1150,861.08c1.11.32,4.71,1.54,6,2,2.83,1.02,9.89,4.45,13,6,1.75.87,4.75,1.86,5,2,.6.34,8.33,7.5,10,9,.84.76,3.31,3.2,4,4,2.43,2.79,3.73,8.21,8,10-34.38,32.24-78.13,66.91-116,96,.56-3.02-1.53-1.93-3.45-2-5.02-.18-10.61-.18-15.55-1-1.62-.27-3.54-3.46-7-1,.1-3.19-9.6-6.47-12-6-1.1-2.63-4.73-3.5-7-2,.29-4.29-5-6.2-8-9-1.41-1.32-3.82-2.81-4-3-.43-.46-3.96-7.78-4.99-9.31-.66-.98-1.96-.6-2.01-.69-.29-.49-.93-10.01-.9-11.39.11-4.96,2.94-13.87,6.39-17.62,25.46-16.61,48.41-43.34,73.59-59.41,11.4-7.27,26.69-9.39,39.91-9.59.76-.01,13.56,2.59,15,3Z"/>
  <path class="cls-2" d="M1401.83,428.27c22.74,31.18,46.8,61.51,67,94.48,2.07,3.38,11.47,18.3,11.19,20.8l-83.53,27.64-75.56-94.55,77.13-48,3.77-.37Z"/>
  <path class="cls-2" d="M821.01,47.09c.19.13.05,2.34-.5,3l-54.98,65.86-128.53-44.87L668.63,0l152.37,47.09Z"/>
  <path class="cls-2" d="M1246,621.07c-4.23-.37-12.3,5.57-15.56,3.1-1.71-1.3-6.25-11.23-8.02-14.01-21.61-33.91-51.12-62.28-84.51-84.49l-443.24-273.76c-34.65-18.78-72.09-32.05-110.68-40.33-1.35-.91-.82-1.35-.6-2.53.38-2.06,2.79-9.9,4.88-9.8,40.98,8.99,80.74,23.33,117.39,43.66,142.35,91.48,290.3,174.7,432.24,266.76,35.3,22.89,66.77,49.24,90.9,84.1,6.14,8.87,11.1,18.43,17.18,27.31Z"/>
  <path class="cls-2" d="M577.99,228.08c-.79-.56,2.6-11.83,3.66-12.07,2.66-.61,24.21,5.15,28.57,6.36,64.14,17.75,110.09,51.52,165.45,85.55,121.16,74.47,242.2,149.11,363.24,223.76,27.58,19.37,52.48,42.43,71.9,70.1,2.1,2.99,15.5,23.22,15.19,24.78-.25,1.24-11.65,5.52-14.02,4.05-.84-.52-8.44-14.31-10.17-16.84-20.3-29.79-46.32-54.77-76.3-74.7-121.56-74.72-242.84-149.9-364.44-224.56-63.5-38.99-103.95-68.19-178.87-86.16-1.19-.29-4.01-.11-4.22-.26Z"/>
  <path class="cls-2" d="M1206.97,634.03c-.33.47-10.15,3.82-10.71,3.9-1.35.2-1.75.04-2.82-.77-1.53-1.17-8.87-14.89-11.03-18-17.48-25.16-40-46.43-65.1-63.9-126.19-77.81-252.29-155.78-378.62-233.38-49.64-30.49-86.84-57.58-144.7-73.3-3.22-.88-20.26-3.73-20.96-4.54-.65-.75,2.52-11.57,3.02-11.93,2.12-1.55,43.66,10.95,49.46,12.95,18.64,6.41,36.65,14.67,53.97,24.03,142.86,92.48,292.1,175.6,434.84,268.16,30.22,19.6,62.07,46.73,82.08,76.92,1.75,2.65,11.61,18.38,10.55,19.87Z"/>
  <path class="cls-2" d="M1189,641.07c-.49.53-11.99,3.69-13.91,3.94-18.3-34.66-47.67-61.22-80.18-82.34-143.44-93.25-293.63-176.68-437.24-269.76-22.68-12.28-46.53-21.81-71.46-28.54-2.75-.74-18.56-3.57-19.22-4.29-.44-.48,2.88-11.34,4.68-11.89,2.94-.9,43.27,11.3,49.29,13.44,15.4,5.47,30.13,13.01,44.71,20.29,143.78,92.84,293.71,176.62,437.25,269.75,28.2,18.3,54.55,40.29,73.89,68.11,1.62,2.33,13.17,20.24,12.19,21.31Z"/>
  <path class="cls-3" d="M1133.65,599.43c9.55,9.44,22.07,23.92,29.31,35.19,1.15,1.79,6.74,11.34,5.99,12.42-.51.74-7.85,2.38-9.23,3.09-1.06.55-.29,2.62-2.22,1.95-6.09-8.88-11.77-18.06-18.54-26.47-28.68-35.61-65.47-53.19-103.3-76.7-84.14-52.31-168.67-104.03-252.98-156.02-44.43-27.41-89.07-57.93-134.02-83.98-18.12-10.5-37.63-19.18-57.67-25.33-4.16-1.27-28.11-6.31-29-7.51-.34-.46,2.65-10.54,3.08-10.91,1.74-1.52,35.5,8.24,40.47,9.89,41.15,13.64,72.84,37.57,109.13,59.87,123.11,75.64,247.99,149.46,369.64,227.36,17.47,11.19,34.54,22.51,49.34,37.16Z"/>
  <path class="cls-3" d="M1136.05,659.06c-13.28-26.24-35.25-46.97-59.53-63.01-80.97-53.47-167.97-103.1-250.83-154.17-65.3-40.25-130.28-81.05-195.39-121.61-19.46-10.91-37.84-17.74-59.3-23.7-2.99-.83-11.08-1.69-13.03-2.99-1.67-1.11,1.65-11.03,2.14-11.38,1.44-1.02,17.07,3.35,20.1,4.16,21.73,5.82,42.02,14.46,61.46,25.54,76.25,43.46,152.05,94.64,227.02,140.98,71.09,43.94,146.37,86.13,215.63,132.37,21.48,14.34,40.97,30.82,55.91,52.09,1.31,1.86,9.97,15.25,9.76,16.17-.31,1.33-11.71,4.9-13.94,5.54Z"/>
  <path class="cls-3" d="M546,327.08c1-5.75.34-11.5,7.37-10.92,13.85,1.15,44.51,14.75,57.3,21.75,144.92,92.92,294.79,178.39,439.64,271.36,24.69,15.85,46.73,33.25,60.7,59.8l-15,5.01c-19.28-34.81-46.36-48.15-78.33-68.17-143.35-89.77-287.58-178.55-432.69-265.31-12.51-3.69-26.53-10.54-38.98-13.52Z"/>
  <path class="cls-3" d="M1129.97,662.03c-.42.59-13.05,4.49-13.85,3.92-.52-.37-4.75-8.99-6.3-11.19-13.37-19.01-29.49-33.5-48.89-46.11-53.33-34.66-109.12-66.28-163.25-99.75-96.79-59.84-193.26-120.29-290.29-179.71-13.98-6.16-28.23-11.81-42.93-16.07-12.07-3.5-15.3.73-9.43-15.06,27.53,6.06,52.97,16.07,77.29,30.2,81.3,47.24,162.13,100.99,242.39,150.61,60.98,37.7,123.19,73.85,183.63,112.37,24.82,15.82,49.7,33.91,65.9,59.1,1.2,1.86,6.86,10.09,5.74,11.68Z"/>
  <polygon class="cls-2" points="1044 154.09 978.52 207.19 898.02 156.58 952.5 112.15 1044 154.09"/>
  <path class="cls-2" d="M1296.42,345.5c-14.4,13.1-31.04,24.24-44.93,37.62l-80.48-51.52,64.5-53.47,68.03,58.94c1.55,2.35-5.37,6.85-7.12,8.44Z"/>
  <path class="cls-2" d="M541,995.09c1.15,1.54-9.92,11.7-12.94,8.44l-379.43-232.39c-2.56-1.8,1.02-2.23,1.86-3.04,4.89-4.69,6.23-8.14,13.19-3.2,124.43,76.73,249.04,153.17,374.02,229.01,1.1.67,3.2,1.03,3.31,1.17Z"/>
  <path class="cls-2" d="M583.99,960.1c.76,1.11-6.99,8.01-8.01,8.5-1.41.66-2.56.79-3.93-.03l-381.03-232.99c0-.77,10.29-10.14,12.66-7.76,126.22,78.31,252.92,155.89,380.32,232.28Z"/>
  <path class="cls-2" d="M556,984.1c-3.38,2.66-8.54,10.66-13,7.55-120.53-73.83-241.96-146.26-361.69-221.37-2.54-1.59-19.02-9.85-18.31-12.68.18-.7,10.12-9.6,12-6.07,126.79,77.85,253.39,156.07,381,232.58Z"/>
  <path class="cls-2" d="M570,972.1c.5.73-8.74,8.95-10.31,8.83-91.92-55.21-183.61-110.92-275-167.03-27.86-17.1-55.9-34.06-83.61-51.39-2.94-1.84-24.12-14.48-24.07-15.92.03-.72,9.9-8.9,11.9-7,126.67,78.08,253.45,156.01,381.08,232.52Z"/>
  <polygon class="cls-2" points="946 108.1 893.36 152.98 825.99 109.57 869.64 72.23 946 108.1"/>
  <path class="cls-2" d="M1363.57,390.54c1.2,1.15,3.43,2.01,1.95,3.56l-42.84,33.85-65.69-41.38,52.51-43.53,54.07,47.49Z"/>
  <path class="cls-3" d="M446,794.08c64.96,39.69,131.64,78.76,197.32,117.97.96.57.6,1.96.68,2.03-3.71.54-8.77,8.62-11.94,7.55l-194.57-118.54,8.51-9.01Z"/>
  <path class="cls-3" d="M282.42,368.5c-27.73,21.1-55.86,42.55-82.89,64.6-7.1,5.79-14.04,12.06-20.56,18.52-1.88.87-11.82-5.41-11.98-6.07-.43-1.8,16.32-16.72,18.99-19,11.2-9.57,23.92-19.19,35.54-28.46,30.5-24.34,64.41-51.81,96.76-73.24,3.7-2.45,23.67-15.25,26.24-15.42,2.17-.14,8.49,8.69,8.05,9.64-.64,1.38-22.23,13.66-25.88,16.18-14.89,10.25-29.81,22.25-44.26,33.24Z"/>
  <path class="cls-3" d="M378,349.08c-13.12,7.22-27.35,17.99-39.47,27.03-41.92,31.23-82.15,65.04-123.53,96.97-1.7-.91-11.61-5.47-11.99-6.02-.91-1.31,7.48-9.16,8.98-10.49,13.43-11.9,29.21-22.51,43.26-33.52,30.74-24.09,65.06-53.84,97.44-74.78,2.13-1.38,14.77-8.93,16-9.03,2.56-.22,7.64,7.82,9.31,9.84Z"/>
  <path class="cls-3" d="M184.01,456.06c-.15-.18-.39-2.16.63-2.06,10.49-8.35,20.45-17.48,30.89-25.89,35.7-28.77,76.15-61.5,113.75-87.25,4.05-2.78,24.37-16.41,27.41-16.66,1.91-.16,6.35,7.73,8.3,9.39-24.81,15.35-47.72,33.44-70.88,51.1-27.32,20.82-56.22,42.56-82.58,64.42-2.24,1.86-14.79,14.01-15.84,13.85-.67-.1-11.24-6.37-11.68-6.89Z"/>
  <path class="cls-3" d="M441,791.08c-4.03,2.2-6.89,9.55-11.95,7.49-57.15-37.35-118.31-70.04-174.71-108.36-.97-.66-3.2-1.03-3.3-1.18-1.9-2.69,7.78-8.85,9.96-9.95,59.58,37.67,120.02,75.32,180,112Z"/>
  <path class="cls-3" d="M418.91,819.17l194.08,119.89-10.31,6.89-194.68-117.89c-1.49-1.97,9.69-9.49,10.91-8.89Z"/>
  <path class="cls-3" d="M423.01,816.06c-1.06-1.54,9.05-10.57,11.94-7.43,61.88,38.79,125.32,75.13,187.36,113.65,1.19.74,5.06,2.6,4.69,4.28-.16.73-9.62,9.17-11.71,5.75l-192.27-116.24Z"/>
  <path class="cls-3" d="M1079,808.08c2.82.19,9.24,2.4,11.41,3.96,1.25.91.73,1.07.11,2.05-1.44,2.28-8.59,8.77-11.04,10.96-7.72,6.9-16.87,12.57-24.72,19.01-34.98,28.69-71.34,60.73-107.84,87.43-1.65,1.21-7.69,5.68-8.93,6.13-.79.29-8.99-6.76-9.98-8.55.75-.49,5.88-5.04,7.91-6.59,42.65-32.43,86.17-68.25,127.56-102.44,3.25-2.69,6.51-5.54,9.58-8.45,2.73-2.59.62-3.89,5.95-3.53Z"/>
  <path class="cls-3" d="M1131,825.09c.78,1.03-3.11,5.49-3.97,6.51-11.35,13.51-26.27,24.42-39.51,35.45-30.01,24.98-61.46,52.19-92.63,75.42-6.9,5.14-15.62,11.87-22.97,16.03-9.8,5.54-6.85,2.16-14.91-3.93l40.45-30.53c39.68-34.65,84.85-63.62,120.54-102.52.74-.38,12.59,3.04,12.99,3.58Z"/>
  <path class="cls-3" d="M1094.37,836.46c-8.4,7.82-17.09,15.23-25.9,22.59-31.71,26.53-67.76,56.96-101.15,80.85-2.14,1.53-14.57,10.01-15.85,9.9-.56-.05-6.74-5.79-8.04-6.73l154.57-127.49c2.03-2.05,12.96,2.92,12.96,3.99,0,2.25-14.05,14.5-16.61,16.88Z"/>
  <path class="cls-3" d="M598,949.1c.49.71-6.63,6.95-8.05,7.46-6.1,2.16-5.94-1.58-9.17-3.73-50.11-33.34-105.7-62.96-157.09-94.94-7.83-4.87-20.95-12.05-27.63-17.37-4.56-3.62-1.2-2.86.42-4.42,2.07-1.99,4.46-6.06,7.47-4.54l194.05,117.53Z"/>
  <path class="cls-3" d="M411,814.1c.41.59-9.19,9.59-11.02,8.6l-178.96-111.12c3.37-1.98,7.29-8.49,11.32-6.43,53.28,32.72,106.37,65.78,159.74,98.35,2.77,1.69,18.3,9.71,18.92,10.6Z"/>
  <path class="cls-3" d="M424.82,802.23c.39.64.39,2.05-.01,2.7-.3.5-8.41,6.45-9.82,5.78l-178.98-111.1c3.09-2.1,6.48-7.09,10.24-6.36l178.57,108.99Z"/>
  <path class="cls-3" d="M397,828.07c-.08.11-1.5.23-2.48,1.02-1.92,1.56-6.57,6.49-8.82,5.89l-179.7-111.88c4.75-.55,6.55-9,11.7-6.25,31.07,19.22,61.89,38.89,92.99,58.04,27.23,16.77,58.84,33.22,84.65,51.35.49.35,2.07,1.24,1.66,1.82Z"/>
  <path class="cls-2" d="M27,634.09c.42-.58,13.4-2.96,14.01-2.59,5.68,13.28,11.84,26.29,19.57,38.49,19.12,30.17,46.45,55.92,75.1,76.9,4.84,3.54,12.05,7.02,16.27,10.74,1.27,1.12,1.24.74.07,1.97-1.57,1.64-8.97,8-10.98,7.02-44.44-30.05-85.46-67.49-107.9-117.18-.87-1.92-6.62-14.68-6.14-15.35Z"/>
  <path class="cls-2" d="M723,1064.09c-2.24,4.26-.83,12.41-7.42,12.02-.61-.04-.45-1.82-1.25-2.02-7.17-1.75-17.45-1.89-25.36-3.47-43.04-8.61-86.38-23.94-124.64-45.36-3.35-1.87-28.32-16-28.31-17.67,0-.67,9.34-6.78,10.47-8.31,53.15,34.79,113.28,56.87,176.51,64.82Z"/>
  <path class="cls-2" d="M61.92,628.17c.34.3,2.1,6.85,2.91,8.58,22.4,47.61,57.36,81.72,101.71,109.3,1.67,2.56-8.53,9.19-10.55,8.64-2.64-.71-19.82-13.19-23.3-15.8-33.9-25.44-66.32-60.67-82.87-100.13-.84-2.01-2.25-5.33-2.7-7.32s.16-1.05,1.33-1.39c1.76-.51,12.79-2.48,13.47-1.88Z"/>
  <path class="cls-2" d="M723.92,1060.01c-61.35-8.22-120.02-28.64-171.67-62.67-1.14-.08-1.72-.61-1.25-1.75.41-1,9.15-7.42,10.32-7.33,49.8,31.44,105.17,52.8,164.01,59.97,3.5,1.03-1.16,9.13-1.42,11.77Z"/>
  <path class="cls-2" d="M80.91,624.14c.84.62,6.94,15.91,8.57,18.96,18.67,34.77,46.26,60.4,78.2,82.8,2.15,1.51,12.87,7.56,13.31,8.2,1.15,1.68-8.39,10.42-11.27,8.84-44.39-28.55-83.47-65.67-103.7-115.37.07-1.25,14.26-3.89,14.88-3.43Z"/>
  <path class="cls-2" d="M732,1033.09c-2.36,3.62-.54,10.92-5.46,11.07-8.22.25-27.85-4.42-36.73-6.39-44.5-9.91-86.82-28.32-124.81-53.18.49-1.16,9.36-8.43,10.31-8.35,2.33.2,26.26,15.49,31.01,18.02,38.92,20.73,81.78,33.65,125.67,38.84Z"/>
  <path class="cls-2" d="M86,623.09c.54-.54,13.3-3.05,15.05-1.55,18.8,44.84,54.67,76.63,94.94,102.04.02.66-9.42,8.51-10.3,8.38-1.43-.22-21.1-13.93-24-16.06-24.64-18.03-48.47-41.61-63.85-68.15-1.53-2.65-12.8-23.7-11.83-24.66Z"/>
  <path class="cls-2" d="M736,1018.09c-1.15,2.71-1.22,10.91-4.4,10.95-42.67-5.96-84.72-17.91-122.62-38.44-6.4-3.47-23.39-12.6-27.92-17.08-.84-.83-1.41-.92-1.05-2.43l10.31-6.89c43.55,29.4,93.28,47.77,145.69,53.88Z"/>
  <path class="cls-3" d="M120.98,617.08c12.83,35.07,39.6,60.91,69.11,82.41,4.73,3.45,14.27,8.18,17.94,12.08,1.55,1.65-.75,2.82-2.01,4.03-6.41,6.11-7.56,3.87-14.5-.53-30.26-19.16-64.1-51.66-80.06-83.94-1.12-2.27-3.71-7.58-4.31-9.71-.52-1.83.07-1.09,1.12-1.56,3.96-1.75,8.63-1.55,12.72-2.79Z"/>
  <path class="cls-3" d="M169.62,656.45c15.96,18.02,33.8,31.63,54.36,44.13-2.14,2.18-4.74,3.81-7.22,5.55-1.13.79-.2,2.55-3.03,1.81-3.36-.89-19.21-12.19-23.06-15.02-19.73-14.51-40.46-34.85-53.08-55.92-1.73-2.88-11-19.17-9.56-20.88.46-.55,12.32-2.58,14-1.55.89.54,7.77,15.51,9.56,18.44,5.2,8.55,11.46,16.02,18.04,23.45Z"/>
  <path class="cls-3" d="M740,1004.08c.48.43-2,9.46-3.44,9.73-45.87-6.52-90.54-20.27-129.87-44.92-3.61-2.27-6.56-4.35-10.41-6.59-.61-.35-1.97-.04-1.27-1.7.38-.91,8.38-7.7,10.24-6.34,40.89,26.27,85.93,44.82,134.76,49.83Z"/>
  <path class="cls-3" d="M163.96,610.13c.14.14.03,2.63.6,3.86,10.85,23.2,34.79,47.77,55.55,62.48,6.19,4.39,13.24,7.49,18.89,12.59-3.79.36-7.97,7.35-11,6.62-4.04-.98-20.63-12.95-24.91-16.19-15.01-11.34-30.22-26.6-40.9-42.1-1.94-2.81-15.15-23.73-13.19-25.31.59-.47,14.43-2.49,14.96-1.96Z"/>
  <path class="cls-3" d="M744,989.08c.68.59-2.05,9.99-2.57,10.03-30.18-4.83-60.72-11.48-88.48-24.49-10.18-4.78-19.46-11.55-29.63-16.37l-14.32-9.16c3.55-.45,7.68-7.74,11.25-6.87,16.43,8.81,32.38,20.21,49.48,27.62,19.21,8.32,41.49,14.09,62.08,17.92,2.39.44,11.73.91,12.19,1.32Z"/>
  <path class="cls-3" d="M185,606.08c.04.12,1.38.71,1.83,1.63,14.99,30.8,40.96,50.48,68.17,68.37-3.8.43-8.96,8.47-12.02,7.62-7.83-5.2-16.41-9.5-23.89-15.21-12.88-9.81-31.12-28.58-39.9-42.1-1.46-2.24-10.25-17.21-9.19-18.31.53-.54,12.93-2.01,15-2.01Z"/>
  <path class="cls-3" d="M754,958.08c-1.88,1.46-2.35,10.28-3.09,10.91-1.48,1.26-28.22-4.91-32.33-5.99-29.42-7.67-53.45-21.23-79.11-36.89-1.02-1.07-.87-1.2.17-2.08,2.77-2.37,6.53-4.52,9.36-6.95,31.7,20.13,67.22,35.55,105,41Z"/>
  <path class="cls-3" d="M745.92,984c-1.92,1.38-39.8-7.68-45.13-9.21-20.91-5.98-39.53-14.74-58.09-25.91-4.25-2.56-13.48-7.46-16.65-10.35-2.91-2.64.16-2.22,1.44-3.43,2.11-1.99,4.51-5.41,7.8-4.88,29.55,19.21,59.91,33.99,94.69,41.38,3.87.82,15.83,1.58,18.05,2.95,1.5.93-1.69,9.14-2.1,9.43Z"/>
  <path class="cls-2" d="M387,215.07c-30.11,5.53-58.6,17.8-86.44,30.07-1.22-3.61-10.15-9.3-5.85-11.85,8.68-5.16,25.18-11.29,35.04-14.96,17.38-6.47,35.4-11.24,53.23-16.26l4.02,13Z"/>
  <path class="cls-2" d="M481.88,202.96c-.82.56-8.94-.99-11.42-.94-15.59.31-33.14,2.92-48.67,5.35-5.9.92-25,5.93-29.18,4.77-.56-.16-3.96-10.59-3.61-11.04,1.52-1.95,42.93-8.24,48.62-8.89,14.68-1.67,29.83-2.34,44.45-2.68,1.69,1.18,1.18,12.51-.19,13.44Z"/>
  <path class="cls-2" d="M1029,1025.07c-29.01,14.25-58.91,26.4-89.94,35.62-1.46.24-5.64-7.92-5.94-9.25-.32-1.44.66-1.61,1.64-2.11,6.92-3.49,17.95-5.44,25.77-8.23,14.16-5.07,28.18-10.89,41.84-17.16,3.49-1.6,11.88-7.04,14.4-7.68,3.4-.87,9.8,6.12,12.24,8.81Z"/>
  <path class="cls-2" d="M47.91,471.01c-.59.42-13.48-3.36-13.91-3.94-1.63-2.19,17.71-34.59,20.59-38.9,5.13-7.67,13.63-19.63,19.9-26.1.72-.75,1.77-2.16,2.54-2.54,2.27-1.12,10.27,5.72,12.95,7.05-17.2,19.13-31.37,41-42.07,64.43Z"/>
  <path class="cls-2" d="M27.95,552.13c.61.63-.16,14.75,0,17.49,1.23,19.68,6.33,38.47,11.05,57.45-2.34-1.07-13.44,2.45-13.99,2.01-1.99-1.55-9.12-34.76-9.85-39.67s-3.75-36.75-2.17-38.34c.53-.53,14.36.44,14.95,1.05Z"/>
  <path class="cls-2" d="M489,189.08c11.54.55,24.05.17,35.49,1.01,4.1.3,8.88,1.58,13.01,1.99,4.61.45,42.2,4.23,42.56,6.62.19,1.22-2.87,11.41-3.68,11.45-28.76-5.36-58.07-9.59-87.39-7.07v-14Z"/>
  <path class="cls-2" d="M828,1068.07c.37.41.55,9.29,1,11-34.34,2.1-68.88,1.35-103-3l3.65-11.05,45.8,4.1c6.44,1.92,50.79-3.01,52.55-1.05Z"/>
  <path class="cls-2" d="M389.93,219.15c.47.4,3.58,11.57,3.08,11.92-.21.14-3.59.04-5.05.45-25.58,7.25-50.84,15.46-74.64,27.39-1.59.15-8.87-8.81-9.31-10.35-.37-1.31,22.74-10.07,25-10.98,7.36-2.96,57.82-21.11,60.92-18.44Z"/>
  <path class="cls-2" d="M1247.99,625.08c11.6,23.68,20.14,48.61,23.01,74.99l-14.97.98c-1.89-13.98-4.4-28.16-8.98-41.52-1.78-5.21-6.59-17.37-9.66-21.38-.54-.71-2.02-.91-2.25-1.26-.41-.62.81-2.14.58-3.13s-2.73-3.68-1.72-4.68c.52-.51,11.9-2.16,13.99-4.01Z"/>
  <path class="cls-2" d="M834.99,1078.09c-.38-.4-.2-9.33-1-11,30.66-1.38,60.89-7.76,90.63-14.98,2.21-1.29,7.17,7.76,7.26,8.62.23,2.37-5.76,3.28-7.88,3.86-12.08,3.32-26.41,6.03-38.82,8.18-6.21,1.08-48.2,7.37-50.19,5.32Z"/>
  <path class="cls-2" d="M1270.86,705.22c.72.45,1.1,4.15,1.19,5.32.66,9.09.57,22.91-.06,32.03-.87,12.57-4.96,24.95-6,37.51l-15-2c1.25-12.65,5.15-25.86,6-38.51.33-4.93-1.19-32.33.02-33.48.5-.48,12.9-1.46,13.85-.87Z"/>
  <path class="cls-2" d="M45.01,476.1c-9.23,22.79-15.46,46.3-17.02,70.98-2.23-2.1-13.3-.3-14-.99-1.87-1.87,2.57-27.57,3.5-32.02,2.13-10.25,7.42-31.82,12.7-40.3,2.71-4.35,10.71,1.74,14.82,2.32Z"/>
  <path class="cls-2" d="M1264,784.09c.34.32-2.09,7.68-2.53,8.96-7.47,21.65-18.7,41.52-30.54,60.99l-13.92-4.97c5.99-11.06,13.36-21.26,18.86-32.63,1.84-3.8,4.02-8.5,5.62-12.38,1.5-3.63,5.59-18.31,7-20,1.27-1.52,14.95-.52,15.51.02Z"/>
  <path class="cls-2" d="M925.01,1035.1c27.26-7.52,53.67-17.86,78.74-30.88,3.86,1.28,13.72,6.7,7.54,10.66-8.6,5.52-27.25,12.77-37.3,16.69-14.23,5.56-28.92,9.83-43.52,14.29-.85-.12-6.2-9.7-5.46-10.76Z"/>
  <path class="cls-2" d="M66.91,477.01c-.58.43-13.48-3.36-13.91-3.94-1.52-2.08,19.68-36.27,22.78-40.71,2.29-3.28,17.13-23.52,19.54-23.15.64.1,10.57,6.72,10.57,7.37-13.45,16.2-24.79,33.47-35.06,51.83-.9,1.6-3.54,8.32-3.92,8.6Z"/>
  <path class="cls-2" d="M483.01,206.07c-.43,2.15.63,11.03-.11,11.9-1.49,1.74-16,.86-19.38,1.11-19.42,1.42-38.6,4.91-57.74,8.25-1.58.28-4.11,1.86-5.16,1.62s-5.63-10.73-5.57-11.39c.07-.83,1.68-1.26,2.51-1.45,27.95-6.25,56.87-8.77,85.46-10.05Z"/>
  <path class="cls-2" d="M825.99,1052.09c.42.44,1.03,10.31,1.01,12-32.08.08-64.14.75-96.01-3.01l2.61-11.06,36.85,3.1c13.01-.41,26.08.39,39.08,0,2.67-.08,15.32-2.22,16.45-1.03Z"/>
  <path class="cls-2" d="M48,553.07c.65.66-.2,15.52,0,18.5,1.21,17.54,6.31,34.71,11,51.5-3.15-.36-12.86,3.13-14.51,1.02-.78-1-2.17-6.42-2.77-8.25-6.44-19.94-8.79-42.31-8.75-63.2,2.08.04,14.49-.11,15.02.43Z"/>
  <path class="cls-2" d="M395.91,235.18c.46.4,3.69,11.3,3.09,11.9-.43.43-9.78,1.87-12,2.5-21.76,6.15-42.78,14.39-63.41,23.55-.91-3.04-6.76-7.63-7.58-9.56-.7-1.67.67-1.35,1.27-1.7,9.68-5.71,25.89-11.43,36.77-15.24,5.16-1.81,40.06-13.02,41.87-11.44Z"/>
  <path class="cls-2" d="M1229.99,632.08c.14.13.26,2.49.8,3.68,2.07,4.5,4.77,8.77,6.68,13.35,7.12,17.06,10.8,34.73,13.53,52.96-2.76-1.14-13.6,2-14.9.9-.94-.79-3.51-20.47-4.39-24.11-2.16-8.99-5.71-19.2-9.24-27.76-1.02-2.48-7.35-13.7-6.44-14.99.42-.59,13.42-4.53,13.95-4.04Z"/>
  <path class="cls-2" d="M49,548.08c-.53.53-14.4-.55-14.89-1.12-1.75-2.01,3.31-30.24,4.39-34.89,2.76-11.99,7.33-23.49,11.52-35,2.22,2.33,13.47,3.38,13.96,5.57.24,1.07-6.29,17.44-7.24,20.67-3.22,11.03-6.5,23.87-7.72,35.28-.2,1.83.33,9.16-.01,9.49Z"/>
  <path class="cls-2" d="M575,214.09c-.51,2.09-2.85,12.71-4.47,12.87-26.47-7-54.24-7.83-81.53-8.87v-12.01c28.94-.68,57.56,3.56,86,8.01Z"/>
  <path class="cls-2" d="M918.9,1037.15l5.09,10.92c-29.97,6.89-60.2,13.11-91,15.01.96-2.87-1.82-11.17.64-11.86,2.28-.64,5.36.13,7.86-.15,26.1-2.93,51.92-7.75,77.41-13.92Z"/>
  <path class="cls-2" d="M1242.97,782.13c3.18,4.55-24.16,57.45-30.51,63.97-1.46,1.29-11.69-2.33-13.47-3.52s-.49-1.11-.03-2.02c3.44-6.76,9.38-13.87,13.21-20.81,2.61-4.72,5.5-10.4,7.69-15.31,1.77-3.99,7.51-22.03,8.62-23.37,1.67-2,14.03.4,14.49,1.06Z"/>
  <path class="cls-2" d="M1252.01,707.07c1.36,1.36-.51,33.68-1.02,38.5-.39,3.71-4.73,30.55-6.03,31.49-.57.41-13.39-1.58-13.97-1.98-.82-.58,3.31-17.1,3.72-19.79.88-5.79,1.95-12.96,2.28-18.72.24-4.24-1.01-27.5.02-28.48.54-.52,14.47-1.55,15-1.01Z"/>
  <path class="cls-2" d="M72,479.07c-.77-1.03,9.97-20.22,11.58-22.91,6.93-11.59,16.18-24.81,25.44-34.61,1.41-1.49.08-3.18,3.03-2.05.92.35,10.1,6.08,10.47,6.58,1.01,1.39-19.18,23.74-20.33,27.69-3.78,3.67-13.92,27.43-16.18,28.87-1.14.72-13.57-2.99-14.01-3.57Z"/>
  <path class="cls-2" d="M823.9,1037.19c.76.65,1.57,10.43,1.11,10.9-.37.37-8.56-.14-10.5,0-23.14,1.75-53.86,1.63-76.78-2.28-6.03-1.03.09-7.73.83-11.77,8.21,1.1,16.69,2.52,24.95,3.04,11.68.74,23.45.01,34.95-.03,3.44-.01,24.47-.68,25.44.15Z"/>
  <path class="cls-2" d="M78,620.08c-.21.18-4.03-.11-5.38.12-1.59.28-8.3,2.19-8.62,1.89-.9-.85-5.93-21.06-6.54-23.97-1.12-5.37-6.19-42.33-4.47-44.04.44-.44,11.15-.25,12.51,0,4.18.77,2.21,8.74,2.51,12.49.45,5.65,1.28,12.21,2.15,17.85.79,5.13,9.22,34.46,7.84,35.66Z"/>
  <path class="cls-2" d="M1231,704.07c-2.66-.9-14.89,2.16-16,1.01-.43-.44-.88-9.8-1.31-12.19-2.07-11.53-5.06-22.86-9.2-33.8-1.76-4.64-4.99-9.73-6.67-14.36-.38-1.05-1.46-1.01.19-2.15.57-.39,12.44-4.94,12.98-4.52.82.64,7.57,16.63,8.5,19.02,5.84,15.07,9.14,31,11.51,46.98Z"/>
  <path class="cls-2" d="M482.99,222.08c.42.49.47,12.54.01,13-.77.76-18.76.77-21.5,1-18.46,1.61-36.91,4.62-54.91,8.84-1.58-.36-5.92-10.69-4.02-11.95,17.7-4.03,35.82-7.21,53.93-8.89,7.28-.67,14.76-.47,22-1,1.14-.08,4.26-1.27,4.49-1Z"/>
  <path class="cls-2" d="M1001,1001.07c-24.59,11.59-49.54,22.33-75.76,29.83-3.61,1.7-10.35-8.87-6.55-10.63,24.56-7,48.59-15.86,71.04-28.07,1.72-.64,11.71,8.28,11.27,8.87Z"/>
  <path class="cls-2" d="M82.93,488.16c.77,1.07-7.22,21.2-8.26,25.09-1.7,6.42-3.28,14.04-4.4,20.6-.52,3.03-.75,15.61-2.85,16.11-1.7.4-11.27-2.1-14.42-.89,1.85-11.27,3.06-22.68,5.68-33.81.91-3.87,8.94-30.03,10.42-31.11.84-.61,13.27,3.23,13.83,4Z"/>
  <path class="cls-2" d="M570,230.08c.53.4-3.24,11.31-3.76,12.75-.34.94.07,1.49-1.22,1.23.11-.78.12-1.6-.74-1.96-5.34-2.19-24.95-4.27-31.79-5.02-7.27-.8-15.71-1.66-22.95-2.05-3.18-.17-19.82.77-20.55.05-.42-.42.32-10.11,0-12.01,27.27-1.25,54.17,3.16,81.01,7.01Z"/>
  <path class="cls-2" d="M401.88,251.2c.51.36,4,9.91,2.13,11.38-2.16,1.69-26.16,7.64-31.53,9.48-7.53,2.57-15.07,5.57-22.45,8.55-2.44.98-13.14,6.54-14.39,6.31-1.33-.25-7.08-7.89-7.53-9.48-.52-1.88.18-1.11,1.15-1.58,10.74-5.14,22-9.78,33.21-13.8,5-1.79,37.03-12.55,39.4-10.86Z"/>
  <path class="cls-2" d="M1223.01,779.08c2.27,1.57-11.87,31.99-13.83,35.67-2.91,5.47-10.34,18.73-14.19,22.81-.97,1.03-1.6,2.35-3.29,2.33-.62,0-11.1-3.89-11.71-4.3-1.74-1.15-.5-1.13.02-1.99,2.83-4.7,6.92-9.34,9.8-14.21,7.65-12.94,14.31-26.89,18.68-41.32.78-1.12,13.9.6,14.52,1.02Z"/>
  <path class="cls-2" d="M1230.99,709.09c.3.31.97,7.15,1.05,8.45.79,12.73-1.06,28.14-3.36,40.73-.51,2.82-2.47,13.59-3.57,15.23-.84,1.25-13.53-.85-14-1.54-.86-1.27,4.28-24.41,4.76-28.5,1.29-11.09,1.73-22.32.12-33.38,2.58.78,13.84-2.19,14.99-.99Z"/>
  <path class="cls-2" d="M105.88,488.96c-1.17.83-15.1-3.63-14.87-4.37,1.66-5.25,9.01-17.57,12.18-22.82,2.32-3.84,5.04-7.7,7.59-11.41,2.08-3.03,15.01-21.49,17.27-20.89,1.4.37,11.23,6.6,10.9,8.02-.25,1.08-10.95,13.69-12.77,16.27-3.2,4.54-6.74,9.67-9.6,14.4-2.06,3.39-9.75,20.12-10.71,20.8Z"/>
  <path class="cls-2" d="M915,1033.07c-1.37,1.83-39.32,8.99-44.66,9.85-4.93.79-37.94,5.57-39.34,4.17-.39-.39.48-8.97-.99-11,19.9-1.34,39.65-4.53,59.2-8.3,4.45-.86,16.17-4.78,19.38-4.67,2.35.08,7.02,9.14,6.42,9.95Z"/>
  <path class="cls-2" d="M88,556.07c.63,16.62,3,32.2,7.28,48.22.52,1.95,3.69,9.76,3.64,10.3-.13,1.35-12.78,3.86-14.29,3.57-2.19-.43-8.88-29.55-9.5-33.72s-3.12-27.58-1.09-29.33c.53-.46,11.71,1.99,13.97.96Z"/>
  <path class="cls-2" d="M1210,706.08c-.57.49-13.01,1.03-14.99.99-.92-14.11-4.78-27.75-9.55-40.95-1.11-3.07-7.63-15.16-6.37-16.95.35-.5,10.84-4.11,11.45-4.1,1.43.02,1.64.69,2.34,1.63,3.42,4.58,8.82,19.45,10.63,25.37,1.28,4.18,8.07,32.64,6.49,34.01Z"/>
  <path class="cls-2" d="M564.01,246.08c.52,4.64-2.13,8.62-3.04,13-23.63-4.76-47.82-7.52-71.97-6.99.71-3.66-2.04-12.17,2.5-13.01,24.35.61,48.46,3.6,72.51,7Z"/>
  <path class="cls-2" d="M1203.01,776.08c3.72,3.02-22.7,51.78-28.19,56.81-.95.55-13.39-3.24-13.82-3.83-.76-1.05,11.81-18.89,13.52-21.97,3.89-6.98,8.03-15.61,10.96-23.04.7-1.77,2.27-8.58,2.62-8.88.56-.49,14.33.43,14.91.9Z"/>
  <path class="cls-2" d="M103,494.09c.32.4-3.43,7.76-4.02,9.47-4.51,13.04-8.02,26.43-9.85,40.14-.22,1.67.14,7.12-.12,7.38-.53.53-14.43-.52-15.01-1-1.17-.98,3.42-26.42,4.3-30.21.82-3.55,8.5-28.83,9.76-29.76.62-.46,14.46,3.37,14.94,3.98Z"/>
  <path class="cls-2" d="M482.99,239.08c.42.49.47,12.54.01,13-.41.41-9.44-.14-11.5,0-19.92,1.38-40.12,4.27-59.48,9-.43-3.41-3.6-7.39-4.02-10.56-.28-2.07,1.3-1.69,2.78-2.12,20.88-6.04,46.08-6.74,67.72-8.33,1.13-.08,4.26-1.27,4.49-1Z"/>
  <path class="cls-2" d="M987,989.06c-.39.57-10.56,5.37-12.32,6.19-19.6,9.21-40.16,16.34-61.11,21.86-.66-3.42-7.99-8.84-3.85-10.82,23.18-6.2,46.03-14.34,66.97-26.09,1.07-.17,10.81,8.15,10.32,8.86Z"/>
  <path class="cls-2" d="M1211,711.08c1.01,1,.22,25-.01,28.5-.31,4.68-3.91,28.04-5.88,30.93-1.01,1.49-15.11.6-14.95-2.7,5.14-18.34,6.71-36.67,5.83-55.73,2.58.98,13.93-2.07,15.01-1Z"/>
  <path class="cls-2" d="M821.92,1021.16c.68.58,1.55,10.47,1.08,10.92-.34.33-8.04.89-9.51.99-21.62,1.38-47.31.12-68.89-2.11-9.06-.93-2.09-5.67-2.6-11.89,26.43,4.04,53.3,3.99,79.92,2.08Z"/>
  <path class="cls-3" d="M407.96,267.11c.43.38,2.51,9.38,3.02,10.94-21.61,5.78-42.6,13.36-62.95,22.6-1.28.19-8.52-7.93-9.02-9.09-.75-1.72.68-1.31,1.37-1.58,8.08-3.15,64.22-25.85,67.58-22.87Z"/>
  <path class="cls-2" d="M907,1019.07c-.74,1.03-21.61,5.09-24.79,5.72-17.15,3.39-35.02,5.8-52.27,6.87-1.88-1.32-.58-8.12-.94-10.59,23.85-1.9,47.48-6.14,70.64-11.97,2.61-1.33,7.75,9.43,7.36,9.97Z"/>
  <path class="cls-3" d="M118.01,612.07c-.51.51-13.24,2.71-14.12,1.42-3.71-13.57-8.47-27.97-9.77-42.04-.24-2.58-1.04-13.67,1.46-14.27,3.51,1.81,8.74.03,11.78,1.03,2.83.93,1.37,8.4,1.65,11.35.46,4.95,1.38,10.8,2.28,15.72.71,3.87,7.69,25.81,6.71,26.79Z"/>
  <path class="cls-3" d="M124.86,493.93c-1.54.96-13.99-2.63-13.82-3.33,1.58-6.64,11.36-22.31,15.56-28.43,2.16-3.14,15.49-20.68,17.44-21.64,1.81-.89,11.63,5.03,10.86,7.87-.24.88-6.96,7.92-8.3,9.76-8.15,11.21-15.85,23.18-21.73,35.77Z"/>
  <path class="cls-3" d="M559,263.09c.42.4-3.05,9.55-3.61,11.05-21.77-2.47-43.38-6.33-65.4-6.05v-12.01c8.6.28,17.97.27,26.5,1.01,5,.43,40.97,4.5,42.51,6Z"/>
  <path class="cls-3" d="M483,256.08c-.34,2.01.47,12.55,0,13.01-.58.59-13.88-.22-16.55-.05-16.08,1.03-32.06,4.28-47.89,7.06-.53.02-4.16-8.57-4.46-9.64-.57-2.01,2.2-1.66,3.72-2.04,21.12-5.28,43.52-6.57,65.17-8.35Z"/>
  <path class="cls-3" d="M1173.91,653.17c2.7,8.8,7.15,16.84,9.8,25.69,1.15,3.85,6.92,27.76,5.29,29.22-.52.47-12.1.94-14.01,1-.46-12.21-4.19-23.89-8.25-35.25-1.25-3.49-6.4-13.1-6.63-15.44-.24-2.53,12.36-6.47,13.79-5.22Z"/>
  <path class="cls-3" d="M120.97,500.12c1.23,1.44-3.49,10.76-4.25,13.18-3.92,12.51-6.5,25.7-7.73,38.77-.51.54-13.38-.48-13.93-1.04-3.34-3.43,8.79-48.5,13-54.93,1.82,1.05,12.47,3.5,12.91,4.02Z"/>
  <path class="cls-3" d="M413.86,284.23c.49.31,4.57,10.44,4.15,10.84-20.58,3.97-40.09,12.48-58.9,20.93-.47-4.19-9.83-9.06-5.39-11.71,5.79-3.46,18.05-7.81,24.77-10.23,8.82-3.18,21.51-7.65,30.48-9.52,1.36-.28,3.77-1.03,4.9-.31Z"/>
  <path class="cls-3" d="M144.91,501.01c-1.97-.22-13.49-3.35-13.91-3.94-2.46-3.47,24.58-40.73,29.15-45.85,1.94-1.14,13.32,5.06,12.82,7.3-.14.62-7.07,7.93-8.37,9.67-7.64,10.21-14.41,21.2-19.69,32.83Z"/>
  <path class="cls-3" d="M1190,714.08c.38.43,1.06,9.97,1.06,11.5,0,4.14-.63,10.75-1.07,14.99-.39,3.83-3.59,25.03-4.88,26.93-1.44,2.13-11.38-.78-14.12-.43,1.6-9.09,4.36-18.23,5-27.5.26-3.78-.91-23.68,0-24.49.52-.47,13.54-1.52,14.01-1Z"/>
  <path class="cls-3" d="M1153.89,660.2c.45.31,3.99,8.47,4.59,9.9,2.09,4.96,12.57,37.84,10.5,39.96-.63.64-12.73,1.17-14.97,2.03-.73-7.65-2.37-15.64-4.51-23-1.38-4.77-9.51-22.42-9.52-24.49,0-.74,13.31-4.82,13.91-4.4Z"/>
  <path class="cls-3" d="M1182.01,774.08c1.87,1.29-10.1,26.58-11.81,29.69-2.64,4.8-10.48,17.46-14.17,20.83-1.25,1.14-1.54,1.55-3.42,1.46-.54-.02-9.27-2.63-9.62-3-.88-.94,12.16-19.52,13.54-21.95,3.96-7.03,8.47-16.39,11.02-24.02.37-1.1.32-3.81.49-3.98.5-.5,13.39.56,13.96.96Z"/>
  <path class="cls-3" d="M1162.01,772.09c2.31,2.32-15.42,34.1-18.19,38.3-1.69,2.56-3.98,4.82-5.68,7.35-.73,1.09-1.01,3.23-1.15,3.34-.59.45-13.54-4.42-13.98-5.01-.84-1.11,14.4-19.96,15.17-23.31,2.97-2.59,8.88-21.91,9.88-22.65.57-.42,13.46,1.48,13.96,1.98Z"/>
  <path class="cls-3" d="M129.94,560.13c.87,9.06,1.53,18.24,3.33,27.18.62,3.09,6.49,20,5.73,20.77-.51.52-12.45,1.86-14.44,2.06-3.05-5.9-11.91-48.7-9.57-51.06.53-.54,14.39.45,14.95,1.06Z"/>
  <path class="cls-3" d="M131,553.08h-15c-1.81-5.71,8.98-49.76,11.55-50.04,1.48-.16,13.32,2.9,13.44,5.47-4.82,14.48-9.18,29.2-9.99,44.57Z"/>
  <path class="cls-3" d="M552.92,280.17c.66.96-1.62,9-2.4,9.93-1.23,1.47-3.34,1.08-4.98,1-6.85-.37-15.71-3.24-23.05-4-4.64-.48-31.31-.89-32.48-2.02-.4-.38-.4-10.61-.01-11,2.24-2.24,61.12,3.49,62.92,6.09Z"/>
  <path class="cls-3" d="M483.01,274.07c-1.02,2.91,1.9,9.19.58,11.07-.78,1.11-20.28,1.55-24.07,1.94-9.86,1.04-19.63,3.79-29.12,4.87-1.58.18-4.35.51-5.73.17-.85-.21-4.54-10.31-3.66-11.04.28-.24,3.19.2,4.41-.08,18.85-4.41,38.2-7.12,57.6-6.93Z"/>
  <path class="cls-3" d="M821.01,1017.09l-40.5.99-35.51-2.99c-.81-.82,1.43-9.85,2.63-10.08,1.95-.38,9.92,1.84,12.88,2.07,15.64,1.21,33.27,1.55,49.03,1.05,9.21-.29,12.59-5.1,11.46,8.96Z"/>
  <path class="cls-3" d="M424,311.07c-1.03,1.39-28.42,8.8-32.98,10.53-4.11,1.56-14.79,7.9-17.76,8.34-1.37.2-1.75.04-2.82-.78-.39-.3-6.24-7.14-6.42-7.61-.55-1.42,3.83-3.46,4.94-4.02,10.4-5.26,25.01-10.31,36.27-13.72,3.38-1.02,10.42-3.44,13.51-3.54,2.26-.08,5.64,10.3,5.26,10.8Z"/>
  <path class="cls-3" d="M1170,716.08c1.64,1.64-1.34,32.45-2.29,37.21-.56,2.81-2.15,12.62-5.19,12.83-.91.06-10.48-1.61-10.93-1.93-1.8-1.28,3.11-19.76,3.4-23.63s-.66-21.04.15-22.34c.4-.64,14.33-2.67,14.86-2.14Z"/>
  <path class="cls-3" d="M972,978.07c-.13.14-2.52.21-3.71.79-15.14,7.33-42.89,20.75-59.05,23.01-1.5.21-2.84.61-4.26-.27-.34-.21-3.99-6.63-3.96-7.03.05-.68,1.69-1.27,2.39-1.58,8.06-3.49,19.97-5.83,28.83-9.17,10.41-3.92,20.49-8.74,30.5-13.57,2.61-1.25,10.42,6.54,9.25,7.81Z"/>
  <path class="cls-2" d="M254,271.08l-17-4c6.38-4.46,12.65-9.14,19.33-13.17s20.86-12.86,27.73-15.3c4.32-1.54,7.59,3.54,9.97,6.96.6.87,1.75,1.36.51,2.55l-40.53,22.97Z"/>
  <path class="cls-3" d="M1105,765.08c2.4-.02,14.82,1.03,15.06,2.6.72,4.56-19.65,38.23-23.77,39.25-2.39.59-11.5-3.71-14.3-4.85,8.14-11.86,18.05-23.17,23-37Z"/>
  <path class="cls-3" d="M191,467.09c.43,1.54-.43,1.66-.99,2.49-3.8,5.61-10.13,11.47-13.98,17.24-1.96,2.94-10.05,19.2-11.01,19.8-3.07,1.93-10.06-3.38-14.01-2.55-.64-.61,6.53-14.15,7.58-15.92,2.67-4.5,15.35-23.07,18.87-25.14,5.16-3.02,8.38,3.66,13.55,4.07Z"/>
  <path class="cls-3" d="M210,479.08c-6.26,5.92-20.44,26.36-24,34-1.9.05-13.95-2.85-14.06-3.56-.38-2.51,1.42-5.27,2.54-7.45,2.35-4.58,19.64-30.29,23.16-30.89.77-.13,11.21,6.17,12.36,7.9Z"/>
  <path class="cls-3" d="M384,346.08l-8-10.98c7.06-3.6,14.31-6.98,21.73-9.79,4.42-1.67,25.58-9.01,28.62-8.3.69.16,4.02,9.37,4.65,11.07-14.99,3.96-33.08,11.11-47,18Z"/>
  <path class="cls-3" d="M1146.99,713.07c-.5.48-12.98,1.46-13.85.88s-3.73-17.82-4.61-20.89-8.45-20.94-7.52-21.96c.48-.53,12.3-4.32,13.48-3.05,2.39,2.6,8.91,22.53,10.02,27.03.63,2.53,3.66,16.86,2.48,17.99Z"/>
  <path class="cls-3" d="M1141.01,769.08c2.49,2.02-12.29,27.46-14.59,30.91-1.55,2.32-9.85,14.12-11.72,13.93-2.65-.26-8.06-4.41-11.69-3.85,4.8-8.2,11.16-15.36,15.8-23.68,1.67-3,7.51-17.61,8.36-18.13.76-.47,13.3.4,13.84.83Z"/>
  <path class="cls-2" d="M1061,987.08c4.93.82,10.53.81,15.55,1,1.92.07,4.01-1.02,3.45,2-9.13,7.01-18.19,14.36-27.87,20.63-2.61,1.69-16.86,10.66-18.43,10.27-.62-.16-9.69-7.76-9.69-8.4.02-1.34,19.71-11.9,22.9-14.08,4.83-3.31,10.1-7.11,14.08-11.42Z"/>
  <path class="cls-3" d="M336.34,298.76c.78.92,5.89,4.55,4.66,6.3-.38.53-9.88,4.8-11.66,5.85-12.56,7.39-24.31,15.96-36.32,24.17,1.99-5.16,1.18-11.51,2.2-16.29s12.72-10.11,17.06-12.73c.66-.4.81-1.57,1.47-1.95,6.09-3.54,13.21-5.59,18.92-9.92,2.17-.5,2.56,3.25,3.68,4.58Z"/>
  <path class="cls-3" d="M816,961.08l-.05,10.95c-6.34,2.13-56.01.21-57.9-2-1.23-1.43,2.78-8.52,1.96-10.95,16.98,2.09,38.94,2.91,56,2Z"/>
  <path class="cls-3" d="M819.01,993.07c.32.32.32,8.7,0,9.01-.34.33-8.05.89-9.51.99-19.8,1.26-40.82-1.3-60.49-3l2.61-9.06,67.4,2.05Z"/>
  <path class="cls-3" d="M1100,680.08c1.7-2.51,11.89-5.81,13.99-4.52,4.09,2.52,13.89,36.47,11.89,39.41-.83,1.22-13.25,1.61-15.88,2.12-1.54-12.82-4.28-21.38-9.52-33.02-.58-1.3-.31-3.72-.48-3.98Z"/>
  <path class="cls-3" d="M152,561.08c.54.55.75,12.9,1.12,15.38.69,4.59,6.42,25.26,5.95,27.03-.19.71-12.03,4.08-13.9.92s-4.84-15.15-5.71-19.29c-1.7-8.12-2.71-16.76-2.46-25.04,2.43,1.06,14.48.46,15,1Z"/>
  <path class="cls-3" d="M893,980.1c.7-.91,18.76-5.41,21.96-6.56,7.61-2.72,15.31-6.03,22.72-9.28,2.76-1.21,9.36-5.62,11.07-6.03,2.05-.5,8.81,4.84,9.18,6.49.55,2.45-14.07,8.57-16.96,9.83-5.96,2.6-13.29,5.45-19.43,7.57-3.72,1.28-19.7,6.76-22.25,6.75-2.78-.01-6.62-8.33-6.28-8.77Z"/>
  <path class="cls-3" d="M899,1005.07c-10.62,1.84-21.16,4.91-31.77,6.74-4.78.82-37.86,5.69-39.22,4.26-.26-.27-.19-6.14-1.02-7.5l66.58-12.18,5.44,8.67Z"/>
  <path class="cls-3" d="M548.01,297.09c.27.38-1.93,7.78-2.49,9-2.16,4.63-2.43,1.92-6.28,1.26-9.92-1.71-21.77-3.54-31.74-4.25-2.71-.19-15.91.58-16.5,0-.42-.42-.42-11.59,0-12.01,1.65-1.65,23.47,1.6,27.51,2s28.15,2.14,29.5,4.01Z"/>
  <path class="cls-3" d="M138,554.09c-1.45-1.45,2.47-21.78,3.3-25.21.68-2.8,5.5-19.49,7.18-19.67.6-.06,11.07,2.99,11.55,3.35,1.32.99,1.12,2.53.97,3.94-.38,3.58-4.39,12.53-5.5,17.58-1.45,6.64-2.43,13.28-2.93,20.07-1.57,2.37-11.4-1.28-14.57-.05Z"/>
  <path class="cls-3" d="M175,562.08c.3,11.76,3.85,26.01,8,37-3.54.18-13.49,4.29-16.05,2.55-3.06-2.08-10-37.53-7.96-39.56.57-.57,13.62.42,16.01,0Z"/>
  <path class="cls-3" d="M1143.99,764.08c-2.27-1.31-13.07-1.33-14-2-.12-.09-.02-1.75.02-2.47.41-7.58,3.97-17.14,4.03-25.09.03-3.3-3.03-13.17.6-14.32,1.13-.36,12.81-1.13,13.43-.71,4.08,2.78-2.67,38.18-4.08,44.57Z"/>
  <path class="cls-3" d="M484,291.08v12.01c-17.36-.16-34.59,2.6-51.52,6.03-2.22-.12-5.5-8.86-5.5-10.51,0-2.88,52.15-7.7,57.02-7.53Z"/>
  <path class="cls-3" d="M183,519.08c-.24.49.18,2.91-.24,4.22-3.25,10.07-7.09,22.2-7.76,32.78-2.43.08-14.95,0-15.95-1.04-1.63-1.69,6.51-37.19,9.1-38.81,2.83-1.76,11.1,3.65,14.85,2.85Z"/>
  <path class="cls-3" d="M922,933.08l8.99,8.49c-1.53,3.22-47.31,21.25-49.87,19.39-.57-.41-3.21-7.92-5.12-8.88,7.34-4.25,14.68-5.86,23.25-9.25,5.25-2.08,18.88-7.38,22.75-9.75Z"/>
  <path class="cls-3" d="M203,405.09l-41.02,35.5c-4.37,2.04-7.5-4.2-11.94-4.56-1.04-1.51,4.55-7.97,5.96-9.45,2.44-2.55,18.83-16.97,21.02-18.04,1.19-.58,5.05.76,7.44.55,6.31-.56,12.36-2.87,18.54-4.01Z"/>
  <path class="cls-3" d="M491,321.08v-13c17.08,1.06,34.03,2.93,51,5.01l-3,12.99c-14.97-2.95-32.78-4.86-48-5Z"/>
  <path class="cls-3" d="M1111,723.08c2.34.21,15.43-2.57,16-2,.69.69.19,16.99,0,19.49-.18,2.33-3.27,19.75-4.02,20.48-.96.93-13.49-1.86-15.97-1.96,2.8-9.7,4.59-25.98,4-36Z"/>
  <path class="cls-2" d="M115,362.08c1.9,2.76,6.13,11.07,5,14-4.8,2.5-23.93,25.43-26.64,25.9-.67.12-11.2-6.77-11.36-7.43-.55-2.24,26.54-28.16,30.5-31.5.86-.73,2.21-.72,2.5-.96Z"/>
  <path class="cls-2" d="M1188,884.08l24.2-29.79c1.22-.71,13.33,2.27,13.8,2.8,1.7,1.93-10.04,16.01-12.03,18.47-5.54,6.83-11.82,12.76-17.97,18.53-4.27-1.79-5.57-7.21-8-10Z"/>
  <path class="cls-3" d="M437,326.08l-3.01-12c6.37-.94,47.63-7.38,50.01-5.01.42.42-.31,10.07,0,12.01-13.8.39-33.68,2.14-47,5Z"/>
  <path class="cls-3" d="M945.99,953.09l-21.02,10.46c-6.25,1.91-31.1,13.04-35.98,10.04-1.1-.68-3.66-6.47-2.96-7.47s19.68-6.26,22.95-7.56c6.38-2.53,20.95-11.34,25.98-12.08s6.6,5.85,11.02,6.61Z"/>
  <path class="cls-3" d="M886.85,983.25c.35.23,3.7,7.05,3.15,7.82-1.9,2.63-61.7,12.32-64,10.02-.36-.36.26-7.43,0-9.01l60.85-8.83Z"/>
  <path class="cls-3" d="M816.99,978.09c.31.33,1.33,8.67,1.01,8.99-.66.66-15.82-.09-18.54-.04-5.53.1-9.36.18-14.97.05-9.7-.22-19.31-.52-28.99-1.01-4.03.54-1.09-7.72-.02-9.02,2.28-2.76,19.55.86,23.98,1.06,5.33.24,36.24-1.39,37.53-.03Z"/>
  <path class="cls-3" d="M870,953.08c-.56,2.34,5.35,9.55,5,9.99-1.65,2.06-49.88,10.16-52,8.02-.39-.39.2-9.01-1-11,16.09-1.25,32.2-3.72,48-7Z"/>
  <path class="cls-2" d="M272,282.08c-2.89-2.13-9.23-6.59-12-8,3.82-3.38,37.23-23.95,39.02-22.57.51.39,7.97,9.43,7.96,10.08-.03,2.03-31.62,15.86-34.98,20.5Z"/>
  <path class="cls-2" d="M293,311.08c-2.85-.3-3.97-9.67-5-12l32.74-18.86c3.41-.51,7.01,6.91,9.23,9.37-5.93,2.15-33.51,21.86-36.97,21.49Z"/>
  <path class="cls-3" d="M878.84,969.25c.33.21,3.21,6.88,3.12,7.27-.49,2.17-21.87,5.76-25.63,6.4-10.38,1.76-20.9,2.82-31.33,4.17l-1.01-10,54.85-7.84Z"/>
  <path class="cls-3" d="M1012.99,935.08c-1.39,4.23.08,16-2,18.49-.85,1.02-14.31,9.86-16.67,11.33-2.14,1.34-12.73,7.86-14.07,8.04-1.88.25-9.23-5.49-9.23-6.36,0-2.62,38.7-25,41.97-31.5Z"/>
  <path class="cls-2" d="M1054,986.08c-.54.38-1.28,2.1-2.49,2.98-4.13,2.99-29.1,20.62-31.8,19.91-1.02-.27-9.7-7.75-9.69-8.39.01-.98,14.7-8.68,16.9-10.08,2.82-1.81,13.33-10.07,15.08-10.42,2.4-.47,12.1,2.81,12,6Z"/>
  <path class="cls-2" d="M277,285.08c4.59-3.58,28.48-19.05,32.53-18.98,2.48.05,9.31,9.8,8.47,10.96l-33,17.01c-.7-.89-7.54-8.59-8-9Z"/>
  <path class="cls-2" d="M1174,871.08c5.25-3.39,16.12-21.74,20.03-23.51,2.04-.93,13.34,2.67,13.96,3.53.71.98-.59,1.83-1,2.49-5.57,9.07-15.21,19.24-23,26.5-1.67-1.5-9.4-8.66-10-9Z"/>
  <path class="cls-2" d="M1016,956.08c.05.09,1.36-.29,2.01.69,1.03,1.53,4.56,8.85,4.99,9.31-4,3.39-8.65,6.61-13.08,9.42-2.9,1.84-14.3,9.11-16.66,9.45-3.19.45-6.93-5.96-10.24-7.36l32.98-21.5Z"/>
  <path class="cls-2" d="M169,406.08c-2.01,4.22-6.07,7.78-9.47,11.03-2.12,2.02-15.73,14.94-16.85,14.83-.83-.08-7.76-4.66-9.38-5.65-.56-.34-1.99.02-1.28-1.7.41-.98,12.68-13.83,14.5-15.51,2.11-1.96,5.3-3.89,7.5-6,3.51.89,11.2,2.36,15,3Z"/>
  <path class="cls-2" d="M132,390.08c-3.26,2.17-20.14,21.56-21.65,21.85-.73.14-12.33-6.63-12.34-7.35-.02-1.75,21.58-22.38,24.98-24.5,1.21,1.78,7.41,8.72,9,10Z"/>
  <path class="cls-3" d="M1151,831.09c.85.78-.61,1.84-1.1,2.36-6.83,7.18-13.04,14.96-19.91,22.12-8.09.03-15.18,1.95-22.98,3.51l31.03-30.51c3.11-1.43,6.77,1.21,9.73,2.26,1,.36,3.07.11,3.23.26Z"/>
  <path class="cls-2" d="M1035,978.08c-.48.32-1.61,2.43-3.06,3.44-7.97,5.52-16.5,10.23-24.68,15.42-2.88.72-7.14-6.13-10.25-7.37l29.99-20.49c3,2.8,8.29,4.71,8,9Z"/>
  <path class="cls-2" d="M1156,863.08l19-22.54c1.57-.82,13.51,3,14,3.55.87.97-5.86,9.02-7.02,10.47-4.06,5.06-8.81,9.56-12.98,14.52-3.11-1.55-10.17-4.98-13-6Z"/>
  <path class="cls-2" d="M1135,858.08l21.01-24.55c1.59-1.01,10.19,2.5,12.61,3.45,1.03.4,1.71-.54,1.36,1.58l-19.99,22.52c-1.44-.41-14.24-3.01-15-3Z"/>
  <path class="cls-2" d="M136,392.08c2.49,1.72,11.32,8.65,12,9-4.6,2.77-16.85,19.91-20.7,20.89-1.46.37-9.7-5.08-11.25-6.44s-.88-.73-.05-1.95c3.7-5.48,11.3-11.2,15.98-16.03,1.31-1.35,3.69-3.66,4.04-5.47Z"/>
</svg>
