<?xml version="1.0" encoding="UTF-8"?>
<svg id="Layer_1" xmlns="http://www.w3.org/2000/svg" version="1.1" viewBox="0 0 1536 1536">
  <!-- Generator: Adobe Illustrator 29.8.6, SVG Export Plug-In . SVG Version: 2.1.1 Build 1)  -->
  <defs>
    <style>
      .st0 {
        fill: #232b35;
      }

      .st1 {
        fill: #727b89;
      }

      .st2 {
        fill: #56a550;
      }
    </style>
  </defs>
  <path class="st0" d="M1336.3,167.6c61.7,58.3,115.5,133.7,150,211.5,40.9,92,45.7,195.2,44.7,294.3-1.5,145.4-15.7,288.5-84.5,418.6-95.9,181.3-234.9,307.6-422.5,390.5-111.8,49.4-210.6,53.3-331.5,45.5-84.3-5.4-154.2-31.2-228.5-69.5-151.1-77.7-265.2-182.8-351.8-329.2C30,990.2,10.6,855.4,7,695.5c-2.9-132.9,2.6-245.1,68.8-363.1C163.5,175.9,278.8,82.8,452.8,35.3s174.3-27.2,264.8-29.2c212.1-4.7,456.4,8.1,618.8,161.6ZM709,56l-46,2,2,19,45-2-1-19ZM874,58l-46-2-1,20,44.4,1.9c1.2-.4,1.4-1.3,1.6-2.4.3-1.9,1.6-16.9,1-17.5ZM646,58c-49.4,3.2-98.6,9.2-147.2,18.3-2.3.4-5.3.9-7.4,1.6s-1.6-.6-1.3,1.5c.6,5.4,3.7,11.8,4,17.5,50.6-8.1,101.5-16.8,152.9-18.9l-1-20ZM1048,78c-52-8.5-104.3-16.1-157-19l-1,20c50.6,2.1,100.7,9.7,150.5,18.1.9,0,1.8,0,2.6-.5s4.4-15.8,4.9-18.6ZM472,82c-41.3,9-83.7,23.9-121.3,43.1-3.9,2-11.9,5.7-15,8s-1.9.9-1.6,2.3,10.8,15.7,12.3,15.4c39.3-21.8,82.1-37,125.5-48.6,1.4-.4,2.8-.2,4.2-.2.4-6.9-2.9-13.3-4-20ZM1061,102c45.5,10.2,89.7,26.9,130.7,48.9,1.8.3,12.1-14.2,12.2-15.5s-.6-1.5-1.5-2.2c-43.3-21.9-88.9-40.6-136.4-50.7l-5,19.6ZM712,91l-45,2,1,18c5.8-1,42,0,44.1-1.4s-1.4-14.9,0-18.6ZM871,93l-45-2-1,19,45,2,1-19ZM649,93c-50.3,4.2-100.5,9.9-149.9,20.1-.5.7,2.9,16.2,3.4,16.9.8,1.1,1.8,1,3,1,47.8-8.3,96-16.3,144.6-18l-1-20ZM1039,113c-47.9-7.3-96.9-16.4-145.5-18-1.4,0-2.7-.7-4-1l-2.5,19c49.5,4.1,98.7,10.1,147.5,19l4.5-19ZM481,117c-36.6,8.4-72.5,20.8-106.4,37.1-4.9,2.4-14,6.1-18,9s-1.8.8-1.5,2.2,9.2,15.3,12.2,14.5c36.5-19.6,75.8-33.9,116.1-44,1.2-.4,1.6-1,1.6-2.2,0-4.1-4.1-11.8-4-16.6ZM1173.8,179.8c.8-.5,8.2-13.2,9.1-15.2-31.7-16.9-66.8-31.8-101.7-41.3-5.4-1.5-15.9-4.9-20.8-5.2s-2.9-.5-3.9.9c-1.7,2.3-2.5,13.6-4.5,17,31.6,7.1,63,17.8,92.7,30.8,7.5,3.3,18.3,10.3,25.3,12.7s2.8.9,3.9.3ZM714,125l-44,2,1,19,44-2-1-19ZM868,128l-45-2-1,18,45,2,1-18ZM652,128c-48.7,3.4-97.3,9.6-145,19.5,2.3,3.4,2.7,14.2,4.5,16.5s1.8,1,3,1.1c45.3-8.3,91-15.1,137-18.1l2.4-1.6-1.9-17.4ZM1030,148.1c-46.8-10.1-94.8-14.6-142.5-19.1-1.2,0-2,.5-2.3,1.7s-1.8,16.7-1.2,17.4c47.5,2.5,94.6,10,141.4,18.1l4.5-18ZM212,232c-.4,1.5.2,1.6,1.1,2.4,1.6,1.6,12.6,11.2,13.6,11.4s1.5.1,2.3-.3,11.1-12.3,13.5-14.6c26.5-25.5,54.8-49.1,85.6-69.4.6-.5,1-1.2.9-2,0-1.8-8.6-13.4-10.6-15.4-1.7-.3-25.2,16.5-28.7,19.1-26,19-54.3,43.3-75.3,67.8s-1.5,1-2.4,1.1ZM1303.6,208.4c-11.2-10.5-23.1-20.8-35.1-30.4-5.1-4-46.9-35.7-49.4-34-.7,4.4-9.1,11.5-10,14.6s-.2,2.1.9,2.8c37,23.3,70.4,52,100.5,83.5.9.2,13.3-10.3,14.5-11.5s1.2-1.4,1.1-2.9c-7.5-7.3-14.8-14.9-22.5-22.1ZM490,151c-31.3,6.8-61.6,17.6-90.7,30.8-7.2,3.3-16.4,7.1-23,11s-1.7-.4-1.2,1.6,8,13.2,8.9,14.2,1.2,1.4,2.3,1.3c2.5-.2,17.9-9.2,22-11,27.5-12.4,56.1-22.7,85.7-28.8l-4-19ZM1163,193c-36.8-17-74.8-33.7-114.9-41l-5.1,17.4c38.3,9.3,75.2,23.1,110.5,40.5.8-3.2,10.7-15.2,9.5-17ZM718,178c-1.9-5.2-.1-11.6-1-16.5s-4.3-1.5-7.5-1.5c-10.7.3-21.4,0-32.1,1-1.1,0-4.3.5-4.5,1.7-.9,3.6,2.5,12.7,1,17.3l44-2ZM863,181c0-3.2,3-17.2,1.1-18.5l-43.1-2.5c1.5,3.6-3.6,16.9-1,18.6l43,2.4ZM654.9,163.1c-19.8.6-39.6,2.5-59.2,5-23.5,2.9-47.6,6.7-70.8,11.2s-5.3.8-7.4,1.6-1.6-.6-1.4,1.5c.6,5,4,11.2,4,16.5,45.4-7.1,90.9-14.9,137-18l-2.1-17.9ZM881.1,181.9c45.1,4.4,90,9.5,134.5,18.1,1.4.2,1.7-.6,2.2-1.7,1.2-2.4,4.1-14.5,2.8-16.4-45.4-9.2-92.1-15.4-138.6-17.9l-.9,17.9ZM1270.6,228.4c-15-13.8-31.6-27.5-48.3-39.2-4.2-3-18.6-13.8-22.3-14.8s-1.3.4-2,1.1c-1.6,1.5-9.4,13.3-8.9,14.9,19.5,13,39.1,26.6,56.9,42.1,12.9,11.3,24.4,24.5,37.3,35.4l14.7-12.4c-9.2-9-18-18.4-27.4-27.1ZM349.9,190.9c.5-.9,0-2-.4-2.9-.7-1.4-9.3-12.7-10.2-12.9-1.9-.5-20.1,12.2-23.2,14.5-15.5,11.2-32.6,25.3-46.6,38.4-9.9,9.2-19.6,19.5-28.5,29.5,3.9,1.8,9.9,9.6,13,11.1s1.9.8,3,0c21.6-22.1,44.2-43.5,69.1-61.9,3.4-2.5,23.1-14.5,23.8-15.7ZM498,185c-34.2,8.6-71,20.2-101.7,37.8-.7.4-1.9-.2-1.2,1.6,1.8,4.8,8.1,10.5,9.9,15.6h1.3c29.9-17.5,63.3-28.1,96.6-37l-5-17.9ZM1133.9,238.9l9-15.3c-32.2-17.6-67.8-30.2-103.9-37.6l-4,18c34.4,7.5,66.9,20.8,98.9,35ZM719,194l-43,2,2,19c6.4-2.9,37.7-.3,41-2.5s.8-1.6.7-2.7c-.5-5.3-1.3-10.5-.8-15.8ZM860.9,197.1l-41.2-3c-2.9,1-1.3,15.2-2.6,18.9l43,2,.9-17.9ZM659,197c-45,3.2-89.8,9.3-133.9,18.1-1,1.6,3.3,17.5,4.5,17.8,43.1-7.8,86.6-14.1,130.4-16.9l-1-19ZM1013,215l-133.4-17.1c-1.5.2-2.2,16.5-2.6,19.1,44.1,2.5,88,9.1,131.4,17l4.6-19ZM369.9,220.9c1.3-2.3-8.7-14.4-10.5-16.9-19.3,12.3-38.2,26.2-55.4,41.5-8.4,7.5-20.2,18.1-27.5,26.5-1.4,1.6-6.8,7.6-6,9.1s11.6,10,12.6,10.5c3.7,1.7,2.6-.6,4.4-2.5,18-18.6,38.5-37.4,59.2-52.8,3.4-2.6,22.5-14.1,23.2-15.3ZM1229.4,266.6c8.6,7.9,16.9,16.1,25.3,24.3.9.2,14.4-10.9,14.4-12.4-25.8-28.6-56.1-55.2-90.1-74.1-1.6,2.9-10.9,13-9.5,15.6s18.1,12.1,21.5,14.6c13.5,9.9,26.1,20.7,38.5,32ZM506.9,219c-26.4,5.4-52.1,14.3-76.3,26.1-3.6,1.8-7.9,3.7-11.3,5.7s-4.9,2.1-4.3,3.6c3.2,1.8,8.9,14.6,11.3,14.4s14.6-7.5,18-9.1c21.3-9.6,43.4-17.1,66.1-22.7,2.3-1.5-2.9-15.2-3.5-18.1ZM1114,269c-.4-4.1,8.5-11.8,8.9-14.7s-3.9-3.7-5.2-4.5c-6.4-3.6-15.8-7.4-22.7-10.3-20.7-8.6-42.9-15.7-64.9-19.5l-4,18c23.2,4.6,46,12.4,67.7,21.8,2.8,1.2,19.3,10.1,20.3,9.2ZM858,231l-47.5-3c-32.3,1-64.8-1.2-97.1,0s-22.3,2.9-33.5,2l1,19c41.7-2.8,83.6-1.9,125.6-2.1l50.5,3.1,1-19ZM662.9,249.9c.7-1.2-.5-13.9-.9-16.3s-.4-2-1.6-2.4l-127.4,17.4,4.5,18.5c20-3.2,40-7.2,60.1-9.9s43.7-4.1,65.2-7.3ZM1005,249c-43.1-6.4-86.3-14.6-130-16l-1,18c42.1,3.8,84.1,8.8,125.5,16.8,1.2-.2,4.8-16,5.5-18.8ZM315.4,284.4c-5.9,5.8-11.1,12.7-17.3,18.2l13,12,2.4.4c22.2-24.7,48-46,75.6-64.5,1.2-.8.9-1.3.6-2.5s-8.4-12.6-9.1-13.1c-.9-.7-1.4-1.1-2.6-.5-22,15.1-43.7,31.2-62.6,50ZM1209.7,270.3c-8.8-6.5-16.9-14.3-25.7-20.8s-18.6-13.6-22.9-15.1-1.9-.8-2.9-.3-8.8,12.8-9,13.6c-.4,1.5.2,2.4,1.3,3.3,28.8,17.2,53.8,39.9,77,63.9,3.9-5.4,10.4-8,14.5-13.5l-32.3-31.2ZM1339.8,245.2c-1.2-.7-2.7-.2-3.8.3s-11.6,9.5-12.5,10.5-1.6,1-1.1,2l37.8,48.8c2.5,1.4,16-8.3,18.8-10.3l-39.1-51.3ZM200.5,246l-40.4,50.6c-.3,1.5,13.9,10.7,15.7,11.2s1.7.4,2.6,0l37.3-47.9c.6-1.1.2-1.7-.5-2.6-2.6-3.4-11.6-7.4-14.6-11.4ZM515.9,253.1c-21.1,3.5-42.8,11-62.3,20.1s-9.9,4.6-13.9,7.1-5,2.6-4.7,4.2c3.1,1.8,8.9,14.7,11.3,14.5s10.1-5.7,12.3-6.8c19.6-9,40.3-16.3,61.3-21.2l-4-17.9ZM1103,282c-25.8-12.7-52.8-23.1-81-29,.5,3.8-6.1,16.3-3,18.5,19.5,5.5,39.1,11.2,57.7,19.3s13.8,7.9,15,8.1,1,.2,1.4-.3c1.1-2.9,11.2-14.7,9.9-16.5ZM855,266c-57.2-4.5-114.8-3.9-172-1l1,19c38.9-1.3,77.6-2.6,116.6-2.1l51.8,3.1c2.6-.6,1.3-15.9,2.7-19ZM1193.6,304.4c-16.8-15.4-35-29.2-54.2-41.3-1-.2-11.1,13.5-11.2,14.6-.2,1.5.8,1.5,1.6,2.2,4.8,4.8,17.4,11.6,23.7,16.3,16.3,12.3,30.9,26.4,45.3,40.7l15.3-12.4c-6.8-6.7-13.4-13.6-20.4-20.1ZM355.6,323.6c16.8-16,34.2-31.3,53.9-43.6.9-1.1.5-1.9,0-3s-8.8-12.2-9.5-12.6c-2-1-9.4,4.8-11.7,6.3-22.9,15.1-42.3,34.7-62,53.4v2.7c2.6.6,13.2,11.4,14.2,11.2,3.1-.5,8.8-9,11.5-11.6s2.6-1.8,3.7-2.8ZM665,266c-41.2,3.6-82.2,9.3-123,16l4.6,19.1c29.6-4.8,59.1-9.9,88.9-13.1,4.2-.4,29.1-1.5,30.1-2.9,1.7-6.3-.8-12.7-.6-19.1ZM996,283c-40.7-6.8-81.9-13.3-123-15.6-1.3.9-1.7,15.6-1.9,18.6,40.4,3.6,80.7,8.2,120.5,16l4.5-19ZM1310.9,269.1c-.9-.5-2-.1-2.9.4s-11.6,9.3-12.1,9.9c-.7.9-1.3,1.6-.8,2.9,11.7,14.2,25,27.4,34,43.6,2.4,1.4,9.4-5,12.5-5.2l5.2-5-36-46.5ZM210,328l33.9-44.7c.4-.9.2-1.5-.3-2.3s-12.4-10.6-13.2-10.8-1.5-.4-2.2,0l-36,46.5c-.6,1.9.4,1.1,1.1,1.6,3,2.1,6.5,3.4,9.7,5.3s6.1,5.1,7.1,4.4ZM455,312l6.6,10.9c1.6,1.3,2.6,5,4.9,5.1,19.6-9.4,39.8-17.5,60.9-23.2,1.1-.4,1.6-.8,1.5-2.1s-3.3-13.5-4-15-.8-1.9-2.1-1.6c-23.6,6-46,15.1-67.7,25.9ZM1009.1,304.9c21.5,5.8,42.5,13.2,62.5,23.1,2.1,0,9.9-12.7,11.4-15.4-.4-1.9-29.6-13.8-33.7-15.3-8.7-3.1-26.2-9.3-34.8-10.2s-1.1.1-1.5,1.4c-.7,2-4.4,15.8-3.8,16.5ZM1153.6,317.4c-11.1-9-22.6-17-34.1-25.4h-1.4c-1.8,6-7.1,9.9-9.8,15.5,15.6,11.7,31.4,22.8,45.8,36,2.6,2.4,14.1,15,15.7,15.4s12.8-7.7,14.3-9.4,1.3-1.2.9-2.8c-1-3.6-26.7-25.5-31.3-29.3ZM1315.9,335.9c.9-1.4-14.7-21.6-17-24.4s-14.8-18-17-19.1-13.9,9.2-14.5,10.6.3,2.7,1.1,3.9c9.9,10.9,18.9,22.5,27.9,34.1s1.3,2.5,1.6,3.9c1.8,1.3,14.7-8.5,17.9-9.1ZM241,347l32-41.6-13.7-12.3-2.3.3-33.9,42,17.9,11.5ZM430,310c1.2-1.6-9.3-17.2-11.3-16.9-23.5,16.3-46.2,34.4-64.6,56.3,3,2,12.8,11.7,15.4,11.7,9.5-9.9,19.5-20.1,30.1-29,8.6-7.3,18.3-14.4,27.2-21s3.2-.8,3.3-1ZM852,301c-41.6-2.7-83.7-4.2-125.5-3-2.4,0-4.6,1-6.9,1.1-11.2.4-22.4.4-33.5,1,.4,2.8.9,18.6,2.6,19.1,36.6-1.1,73.2-3.1,109.9-2.1,15.9.4,32.1,2.8,47.9,3.1s2.4,0,3.5,0l2-19ZM668,301l-116.9,15c-.7.7,2.3,15.6,3.2,17.3s.8,1.6,2.3,1.8c37.5-6.6,75.4-12.2,113.5-14.1l-2.1-20ZM988,317l-119-15-2,18.5,116,15.5,5-19ZM300.9,326.1c-.8-1.5-13-7.7-14.4-11.1l-32.5,39.5c4.7,2,10.8,8.4,15,10s1.8.8,2.9,0l28.5-35.6c.5-.8.9-1.9.4-2.8ZM1285,355c1.2-1.6-21.7-30-24.5-33s-5.6-6.1-6.5-6.6c-2.6-1.3-12.9,9.5-16,11.1l29,37.1c3.6,2.3,13.9-8.2,18-8.6ZM532.9,320c-7.6.8-55.6,18.3-56.9,22.6-.2.6,0,1.1,0,1.7.3,1.3,9.1,13.7,10.3,13.7s22.5-9.9,26.6-11.5c8.1-3,16.5-5.6,25-7.5l-5.1-18.9ZM1063,341c-19.5-7-38.3-17.1-59-20,.4,4.9-4.1,12.2-4,16.6s.5,1.8,1.6,2.2c11,3,22,6.3,32.6,10.4,3.2,1.2,15.4,7.8,17.3,7.7,2.8,0,12.2-16.2,11.5-17ZM1139.6,352.4c-5.3-4.8-11-9.5-16.7-13.8s-21.9-16.3-23.6-16.5-12.3,14.9-11.2,16.8,5.5,2.8,6.8,3.7c17,12.1,32.5,25,46.7,40.3,2.2-2,15.6-11.7,15.3-13.3s-15-15.1-17.3-17.2ZM398,385c0-1.2.7-2.2,1.5-3,15.4-16.1,32.7-30.5,51.1-43,.9-1.4-8.2-14.8-9.6-15.6s-1.4-.5-2.3-.3c-1.9.3-23.9,17.2-27.2,19.9-9.1,7.6-18.5,16.8-26.5,25.5s-4.6,1.3-2.9,4.3,13.2,7.6,14.3,12.2h1.5ZM849,336c-52.7-4.4-105.7-3.5-158.5-1l-1.5,1.5c1.8,2.9-.1,16.9,2.7,17.5,35.6-1.5,71.2-3,106.9-2.1,2.8,0,5.3,1,7.9,1.1,13.3.4,26.9-.2,40,2l2.5-19ZM672,336c-37.3,3.5-74.4,7.8-111.3,14.2-1.2.3-1.6,1-1.6,2.2s3.7,16.5,4.5,16.6c31.6-5.8,63.8-10.6,95.9-13s13.7,1.1,14.4-1.6l-1.9-18.4ZM979,351l-112.4-14.1c-1.6.3-1.7,16.3-2.6,19.1,37.3,1.4,74.3,7.1,111,13l4-18ZM1226.9,338.1c-1.7-1-13.3,7.6-14.8,9.4s-1.5,1.4-.9,2.8l24.4,31.7c.7,1.1,1.5,1.2,2.8.9s14.2-8.3,14.6-9,.2-1.4,0-2.1l-26-33.6ZM328.9,349.1c-.5-.8-14.1-10.4-15.2-10.1l-27.6,34.4,16.4,10.5,26.1-32c.5-.8.9-2,.4-2.9ZM470.9,368.9c.9-1.6-7.4-13.5-9-15.2s-.8-1.9-2.2-1.5c-17.6,12.4-34.6,26.1-48.6,42.4l15.4,12.5c12.6-14.9,28-27.6,44.4-38.1ZM1119.7,383.3c-5.7-5.8-14.2-12.8-20.7-17.8s-20.1-14.8-21.9-13.6c-.2,4.9-11.2,12.5-8.1,16.5,15.9,10.5,30.4,22.7,43.7,36.3l15.4-11.4c.2-.6-7.1-8.9-8.4-10.1ZM547,372c-1.4-3.3-2.9-16.7-6.5-17s-19.6,5.7-23.8,7.3-21.4,8.8-21.7,10.3l9.6,14.3,42.4-14.9ZM1044,372c-15.7-6.7-31.5-13.8-48.4-17.1l-4.6,16.5,43.4,15.7,9.6-15.1ZM1455,441c-9.4-27.7-22.1-54.1-35.5-80-.8-1.3-1.4-.9-2.5-.6-5,1.3-11.2,7.9-17,8.6,12.2,25.2,24.9,50.2,33.5,77,.7,1.2,1.6,1,2.7.8,5.1-.6,13.2-5.1,18.8-5.9ZM104.9,446.9c8.2-26.3,20.2-51.3,32.9-75.6.4-1-.3-1.3-.9-1.8s-14.9-8.2-15.7-8.4c-3-.4-5.9,6.5-7.4,9.2-5.7,10.1-12.1,23.6-16.7,34.3s-9.3,23.7-13.1,35.9c-.2,2.2.2,1.1,1.4,1.5,2.7,1,18.2,5.9,19.5,4.8ZM356.9,372.1l-14.4-11.1-25,30c-2.1,3.7,1.5,3.1,4.2,4.8s11,8.3,13.2,7.1,7.1-10.7,8.7-12.8c4.1-5.2,8.4-10.3,12.9-15.1.5-.8.9-2,.4-2.9ZM1223,393l-10-14.4c-2.3-3-12.6-16-15-17.1s-1.6-.6-3,0c-3.3,1.6-8.4,8.7-13,9.6l23,32c1.5,1,14.5-10.3,18-10ZM1398.1,457.9c1.2,1,19.7-5.1,19.8-6.4-8.7-25-19.4-49.1-31-72.9-.6-.9-.8-1.8-2.2-1.5s-16,8.2-16.5,9-.2.8-.2,1.3c.2,2.3,10,19.1,11.9,23.2,7,15.3,13,31.3,18.2,47.3ZM139.9,458.9l29.9-70.6c.3-3.3-14.3-8.6-17.3-10.3-12.5,23.2-22.5,47.8-31.6,72.6v1.8c.6,1.5,18,7.2,18.9,6.6ZM1057.1,381.1l-8.6,15c14.2,7.9,25.6,19.5,37.1,30.8,2.2-2.2,13.6-9.3,13.6-11.3-2.3-5.8-39.5-36.2-42-34.5ZM490,397c.5-.7-6.6-13.1-7.5-14s-1.3-1.2-2.8-.8c-2.7.7-16.1,11.3-19.2,13.9-7.6,6.3-14.5,13.5-21.5,20.5,2.6,1.8,12,10.8,14.3,10.3,11.5-10.5,22.6-23,36.6-29.9ZM1153,394c-.4,1.5.4,1.7,1,2.5,5.2,7.5,12.7,14.9,18.2,22.8,9.1,12.9,16.5,26.9,24.8,40.3l17.6-9.6c1.1-1.1-.2-1.8-.5-2.6-2.6-6-9.5-16.9-13.2-22.8-9.2-14.5-20.1-27.9-30.8-41.3-2.9-1.6-13,10.4-17,10.6ZM371.9,384.1c-.3-.2-.9,0-1.4,0-1.4.5-16.8,20.1-19,23.1-6.1,8.3-23.2,32.4-26.1,40.9s-.9,3-.3,3.9,15.8,7.6,17.9,9.1c10.9-23.4,26.9-44.4,43-64.5,0-1.1-11.4-9.1-13.2-10.5s-.7-1.9-.8-1.9ZM176,471c6.8-22.7,16.7-44.4,26.9-65.7.3-.9-.3-1.3-.9-1.8s-14.4-8-15.6-8.4c-1.8-.7-1.2.5-1.6,1.2-4.1,7.1-8.6,17.4-12,25.1-6,13.5-11.2,27.3-15.8,41.3-.2,1.2,0,2.2,1,2.9,2.2,1.6,14.5,3.8,18,5.5ZM1353.9,395.1c-2.7-1.7-15.5,7.1-18.9,8.4l29.4,66.5c4.3-2.1,12.1-3,15.9-5.2s1.6-.8,1.7-2.3c0-2.7-7.9-22.4-9.5-26.6-5.6-13.9-12.7-27.1-18.6-40.9ZM1141,405h-1.5c-2.2,3.8-12.3,8.3-14.1,11s-.7,1.4-.3,2.3c14.1,18.3,27.7,37.1,38.4,57.7.7,1.1,1.6,1.2,2.8.8s12.9-7.1,14.1-8,1.9-.9,1.5-2.2c-6.3-9.8-11.4-20.5-17.9-30.2-7.2-10.8-16.1-20.5-23-31.5ZM415,418c-3.6-.5-14.2-12.4-16.9-10.9-14.9,19.7-30,39.5-40.7,61.9,3,1.1,16.5,10.7,18.5,8.9,1.8-7.4,7.6-13.6,11-20.5l28-39.5ZM1321,411l-18.4,8.9c-2.5,2,.9,1.9,1.4,2.8,6,9.9,12.3,27.7,16.8,39s4.2,14.9,6.4,18.6.8,1.7,2.3,1.7,14.8-5,16.3-5.8,1.6.2,1.3-1.7l-26-63.6ZM192,477c4.4-.4,16.5,7.2,19.5,4l24.3-57.8c.5-1.3,0-1.8-.8-2.7-1.4-1.4-16.3-8.4-17.9-7.4l-25.1,63.9ZM1149,486c1-1.4-10.7-20.8-12.5-23.9-7.3-11.8-15.8-22.7-24.4-33.6l-1.4-.4c-1.4,2.5-12.9,9.1-13.4,10.1s-.1,2,.4,2.9c11.8,13.3,22,28.8,30.7,44.3.9,1.7,3.2,7.9,3.8,8.2,2.8,2,13.2-7.3,17-7.6ZM246.9,493.9l22.1-54.5-1-1.9-16.5-8.5-24.5,58.5c.2,1,18.5,7.4,19.9,6.4ZM1312,488l-23.5-58c-.5-.8-.9-.9-1.8-.9-3.4.3-12.2,7.5-16.6,8l21.9,56.9,20-6ZM441.9,439.1c-.4-.7-11.8-8.8-12.6-9-3.2-.8-11,10.8-13.1,13.6-7.1,9.3-21.1,29.4-25.4,39.6s-1.1,2.3-.8,3.7c3-.2,15.3,9.3,17,8,7.6-15.4,16.4-30.1,26.6-43.9s9.4-10,8.2-12ZM433,679c-.9,5.2-.3,2.6,0,8,4.1,63.9,31.8,126.2,72,175.5,43.4,53.1,92.6,106.5,138.9,157.3,29.3,32,53.8,61.2,99.8,68.9,85,14.2,125.8-38.7,175.7-94.7,38.3-42.9,80.7-88.9,116.5-133.5,37.8-47.1,68.6-115.4,71-176.5,0-1.7,0-3.3,0-5,.2-50.5-22.2-136.2-55.5-175-30.7-35.8-67.2-46.2-111.7-56.3-112.3-25.6-244.1-24.1-355.6,4.1-41.6,10.5-71.9,20-99.7,55.3-31.1,39.6-52,117.5-52.6,167.4s1.1,3.6,1,4.5ZM1256,446c-1.1-.9-18.6,7.6-18.9,9.6l21.4,49.4c4.7-1.8,12-2.8,16.3-4.8s1.5-.2,1.3-1.8l-20.1-52.5ZM303,456c-3.1-.8-18.5-10.3-20-9l-19.9,52.9c3.6.8,16.5,7.4,19,5.7s15.4-44.2,21-49.5ZM98.9,463.1l-20.9-6.1c-7.5,31.3-14.9,62.7-18.9,94.6-1.2,9.5-1.1,19.2-3.1,28.3l23,1c1.9-40,11.4-79,19.9-117.9ZM1460,457c-.8-.7-18,3.9-19.4,4.9s-.6,3.2-.5,4.5c1.5,17.1,9.6,40.9,12.7,59.3,2.6,15.9,5.8,35,6.8,51s-.8,2.9-.6,4.3c4.1-.8,19.3.7,21.8-1.2s-.5-6.3-.7-8.4c-3.1-38.8-10.2-76.8-20.1-114.4ZM1223,464c-.8-.6-15.8,7.2-17,8.5s-1.1,1-1,2l16.2,40.9c.4,1.2,1,1.7,2.3,1.7s17.5-5.7,17.6-6.6l-18.1-46.3ZM335,474c-3.4-.2-17.4-10.4-19-9l-18,47c3.5.1,18.1,7.2,19.9,5.9l17.1-43.9ZM1425.5,583c4.7-.5,11,0,16,0s1.6-3.2,1.5-4.4c-.6-16.6-4.4-39.1-7.3-55.8-3.2-18.5-7.7-37.1-13.3-54.9-3,.6-18.9,5-19.3,6.7,10.5,35.6,16.5,72.4,19.9,109.4,1.1.4,2.1-.9,2.5-1ZM135,474l-19.9-5c-9.3,37.2-16.2,74.8-20,113l21,1c2.1-36.9,10.4-73.2,19-109ZM1406,585c-1.5-24.3-5.4-49.2-10.5-73s-7.3-32.7-9-32.8l-18.6,6.4c8.8,32.8,15.7,66.4,18,100.5l20-1ZM171,486.1l-20-6.1c-8.6,34.5-16,69.5-19,105l20,1c2.8-33.9,10.3-67.2,19-99.9ZM1206,523l-16-40.6c-1.2-.9-17,7.5-17.6,8.6-1.4,2.2,13.5,32.6,13.6,38l19.9-6ZM353.9,529.9l14.1-36.5c0-2.7-14.6-8.4-17.5-10.4l-16.6,40.4c2.6,1.2,18.8,7.6,20,6.5ZM1352,491l-18.9,6.1c6.9,29.9,14.4,60,16.9,90.9l20-1c-2.9-32.5-9.2-64.6-18-96ZM205.9,497.1l-18.9-5c-8.8,30.9-15.8,62.7-17.9,94.9l19.9,2.1c.8-12.1,2.2-24.3,4.3-36.2,3.3-18.8,9.5-37,12.6-55.7ZM1170,534.9c1.6-2.1-11.2-31-12.9-35.5-1.1-1.2-1.8.1-2.6.5-5,2.1-10.2,6.2-15.4,8.1l13,33,18-6.1ZM400,508c-3.1.9-16.2-8.6-17-8l-14,36c3.7-.7,16.6,6.6,18.9,4.9l12.1-32.9ZM242,509l-20-6c-6.7,28.7-14.8,57.4-16,87,6.7-.1,13.4-.2,20,1,2.1-27.9,8.9-55.1,16-82ZM1317,503l-19,5c6.2,27,13.2,54.2,15,82,3-.2,19.4.8,20.1-1.6-2.1-29-8.8-57.4-16.1-85.4ZM276.9,521.1l-18.9-6.1c-7.3,25.1-13.4,50.8-15,77l20,.9,14-71.8ZM1281.9,515.1c-.8-.7-17.6,4.2-19,5.4-1.9,1.7.9,4.9,1.6,7.5,5.3,21.3,9.8,43.1,11.5,65l20-1c-.9-26.1-7.2-51.9-14.1-76.9ZM1246,526l-19.1,6.6c5.7,20.4,10,41.3,12.1,62.4l21-1c-3-23-7.1-45.9-14-68ZM313,533l-20-6c-5.7,22-11.2,44.2-13,67,5.2-.9,10.6,1,15.5,1.1,8,0,4.7-2.7,5.6-8.5,3-18.1,6.6-36.1,11.9-53.6ZM1211,538l-20,6,11.6,53c6.8,0,13.7.2,20.4-1.1l-12-58ZM349,545c-5.4-.6-12.8-5.3-17.8-5.9s-2-.4-2.7.8c-2.6,6.6-12.9,54.6-10.5,57l20,1,11-53ZM1185,599l-9.5-48c-.7-1.2-1.6-1-2.8-.8-4.3.5-10.8,4.5-15.6,4.9l7.9,44.9,20-1ZM384,556c-6.7-1.4-12.9-5.6-20-5l-9,48,18.9.9,10.1-43.8ZM56,715h21l1-118c-7.4.3-14.6-1.7-22-1v119ZM1482,596c-5.7,1.2-14.3,0-19.5,1s-2,.4-2.4,1.6l.9,115.4h21v-118ZM94,715h20l1-116c-6.7.3-13.4-.1-20-1l-1,8.5v108.5ZM1444,598c-1.4-.6-3,1-3.5,1h-16.5v115h20v-116ZM131,602.5v112.5h21v-113s-19.3-2.1-19.3-2.1c-.6.1-1.6,2.2-1.7,2.6ZM1407,600c-1.4-.6-3,1-3.5,1h-15c-.1,0-1.5,1.4-1.5,1.5v111.5h20v-114ZM189,604l-21-1v112c6.3-.6,13.9.8,20,0s2.1.5,2-.6l-1-110.4ZM1371,603c-3.5.1-7-.2-10.5,0s-9.8.9-10.4,2.6l.9,107.4h20v-110ZM1334,605l-20,1v107h20v-108ZM225,606h-20v108h20v-108ZM1297,607c-5.4,0-11.7,1.9-17.5,1-.8,0-2.5.9-2.5,1.5v102.5c6.2-1.2,14.9,2.1,20,0s1.3.3,1.9-.1l.2-104.3c.1-1-1.3-.6-2-.6ZM262,608h-20v106h20v-106ZM300,616c0-1.7,0-3.3,0-5l-21-1v104c4.3-.7,18.3,1.4,21-1v-97ZM1260,610c-6.7,0-13.4-.2-20,1v101h20v-102ZM337,620c0-2.3,0-4.7,0-7l-20-1c-2,33.9-.6,68-1,102,6.8-1.9,14-.7,21-1v-93ZM1203,710c1.6,1.7,16.2,1.5,19.9,1.9,0-2.5.9-4.9,1.1-7.4,1.6-24.9,1.4-60,0-85.1-.1-2.4-.2-5.5-1.7-7.5-2.2-.6-16.2.3-18.8,1s-.3,2.1-.6,3-1.9,1.5,0,3v91ZM353,615.5v97.5h20v-98c-4.2-.1-8.4.2-12.5,0s-6.7-2.2-7.5.5ZM1187,614l-20,1c.4,31.6,2.3,63.4,0,95l20,1v-97ZM1186,726l-19.9-.9-13,80.9,19.9,3,13-83ZM1223,727h-21c-.6,19.6-3.8,39-7.3,58.2s-5.9,24-5.6,25.2,1.4,1.3,2.4,1.5c2.8.5,14.9,2.3,16.9,2.1s2-.5,2.3-1.8c5.2-28.3,10.1-56.6,12.2-85.3ZM1260,728c-6.8.9-13.4-2.2-20.1-.6-2.1,12.6-2.4,26-4.1,38.9-2.3,16.9-6.4,33.7-8.9,50.6l21,2,12-91ZM374,728h-20c1.9,27.6,6.4,55,12,82l21-3c-6.8-25.7-11-52.5-13-79ZM1297,728h-21c-1.1,31.4-6.6,62.5-12.1,93.4.1,1,19,4,20.6,1.6s2.7-14.4,3.1-16.9c4.7-25.8,7.1-52,9.3-78.2ZM1332.9,729.1c-1-1.2-17.5-1.7-19-.7l-.8,1.2c-1.3,32.8-6.4,65.1-12.1,97.3l21,2c4.5-33.2,10.6-66.3,10.9-99.9ZM300,729h-19.5c-.4,0-1.7,1.5-1.3,2.3,2.3,29.8,6,59.4,11.9,88.7l20.9-1.9c-6.8-29.2-10-59.1-12-89ZM337,729h-20c.5,29,6.5,57.5,11,86,3-.4,20.7-1.7,21.1-3.6l-12.1-82.4ZM1370,729h-20c-1,16.8-2,33.8-4,50.5-2.1,17.4-5.7,34.6-8,52,3.6.6,17.9,3.7,20.1,2.1,6.9-34.2,10.3-69.5,11.9-104.6ZM1407,729h-20c-2.1,34.3-6,68.3-11.2,102.3s-3.4,5.1.7,5.8,13.7.5,19.5,1l11-109ZM200,832c-5.4-28.9-9.1-58.2-11-87.5-.2-3,1.1-13.7-1.6-14.4s-3.3.9-4.9.9c-4.8.1-9.7-.2-14.5,0,2.2,34.8,5.5,69.5,11,104l21-3ZM225,730h-20c2,33,5.4,65.9,11,98.5.3,1.5-.7,1.6,1.5,1.5,6.2,0,13-3,19.5-2-5.5-32.5-10-65.1-12-98ZM263,730h-21c1.5,31.9,6.5,63.4,11,95l21-2c-4.9-30.8-10.2-61.8-11-93ZM1443,730h-20c-.6,37.2-5.5,74.3-11,111l21,2c4.5-37.5,9.7-75.1,10-113ZM1482,730h-22c-.9,39-5.6,77.5-11,116l21.9,1.9c6.5-38.9,9.2-78.4,11.1-117.9ZM78,731h-22c.5,39.6,4.3,78.9,10,118,3-.5,21.8-1.9,22-3.6-6.3-37.7-9.2-76.1-10.1-114.4ZM115,731h-20c.4,37.8,3.7,75.7,10.1,112.9l19.9-1.9c-4.7-36.8-9.8-73.8-10-111ZM152,731h-20c.3,36,4.5,72.3,9.9,107.6,1.5,1.1,19.8-1,20.1-2.2-4.4-35-9.7-70.1-10.1-105.4ZM1169,824c-3.9,0-18.3-5-20.5-2l-18.5,63,18.9,6c8.2-21.8,15.5-44.1,20-67ZM391,822.1c-.7-.7-17,1.6-19.5,2s-1.6-.6-1.5,1.5c3.8,14.9,7.5,30.1,12.3,44.7s4.8,15.7,6.9,19.1.7,1.6,2.3,1.7c4.4.4,13.6-5.5,18.5-6.1l-19-62.9ZM353,827l-21,3.5c6.5,24.8,12.6,49.9,22.6,73.6l19.4-6.6-21-70.5ZM1206,829l-19.9-1.9-20.1,70.4c3.9,0,16.3,7.1,18.9,5.4s14.1-43.1,15.6-48.9,6.4-24.1,5.5-25ZM1244,835l-20.9-2.9c-5.8,26.5-13.9,52.4-23.1,77.9l19.8,5.9c10.7-26,17.2-53.7,24.2-80.9ZM316,833c-6.4.7-13.1,1-19.5,2s-1.7-.6-1.5,1.5c5.7,27.5,13.8,54.4,23.6,80.6l19.4-6.6c-7.9-25.6-17.5-50.9-22.1-77.4ZM1281,840l-20.9-2.9c-5.8,28.9-14.4,57.1-24.1,84.9,3.3.3,18.1,7.2,19.9,5.9,10.2-28.7,19.5-57.9,25.1-87.9ZM278,838.1c-7.1-.6-13.9,2.2-21,2.5,3.7,18,8.2,35.9,13.5,53.5s7.3,24.3,11.4,34.6-.6,1.7,1.6,1.4c5.3-2.9,11.8-3.8,17.1-5.9s1.8.4,1.4-1.6c-9.3-27.7-18.8-55.6-24.1-84.5ZM1318,844l-21-2c-4.4,25-11.3,49.4-19,73.5-1.1,3.4-6.6,15.8-5.9,17.8,1.8,2.1,18.7,7.6,19.9,6.6,10.3-31.5,21-63.1,26-96ZM239.9,843.1l-19.9,1.9c3.1,20.8,8.5,41.6,14.7,61.8,1.4,4.4,11.1,34.5,12.9,35.2s16.4-4.6,17.4-5.4,1.2-1.7,1-2.9l-26.1-90.5ZM1355,849l-21-2c-2.4,15.6-5.8,31.4-9.9,46.6-4.3,16.1-12.3,33.7-15.9,49.1s-.9,3.5.4,4.4,15.2,5.6,16.1,5.7c1.4.2,1.8.3,2.8-.9,1.8-2.3,5.5-15.4,6.8-19.2,8.9-27.3,16.2-55.4,20.7-83.8ZM203,848c-6.4.5-13.1,1-19.5,2s-1.7-.7-1.4,1.4c1,8.2,3.7,18.2,5.6,26.4,6.1,26.2,14.4,51.8,23.4,77.2.9.6,19.7-6.4,19.8-7.4-11.4-32.5-21.7-65.5-27.9-99.5ZM1392,854l-21-2c-5.3,35.7-15.3,70.5-27.1,104.5,0,5.8,14.6,6.2,18.6,9.4,7.6-21.2,14.6-42.8,20.2-64.8s7.6-31.3,9.3-47.2ZM164.9,853.1c-1.1-.7-15.8,1.4-18.4,1.9s-1.6-.8-1.5,1.5c.5,8,3.7,20.3,5.5,28.5,6.2,28,14.7,56.4,25.1,83,4.9-2.8,13.3-3.7,17.7-6.2s1.8-.8,1.5-2.1c-13.2-34.5-22.1-70.5-30-106.6ZM1430,859l-21-3c-5.5,39.6-17.8,78-30,116l20,6c13.4-38.8,23.8-78.5,31-119ZM128,857c-3.9,2-17.1,1.2-19.4,2.9s-.7,3.3-.6,4.6c1.1,16.2,8.9,43.4,13.3,59.8s11,37.8,18.3,55.9l19.4-6.6c-13.3-37.9-24.7-76.6-31-116.4ZM91,862c-7.3.6-14.6,2.4-22,2,3.3,24.6,8.7,49.3,15.3,73.2s8.9,30.9,14.3,44.7,3.2,10,5.7,9.9,18.6-5.5,18.8-6.5c-14.1-40.1-25.5-81.3-32.1-123.4ZM1467.9,864.1c-.7-.8-21.1-2.8-21.8-2-6.4,40.8-17,80.8-31.1,119.5,0,1.3,0,2,1,2.9s19.2,7.2,20,6.5c13.3-41.5,26.1-83.6,31.9-126.9ZM435.9,892.1c-7.8-.5-4.1,4.7-2,9.6,9.9,23.1,23.7,44.2,36.2,65.8s1,2.2,1,3.5l14-7c1.5-2.1-25.9-37.6-28.8-41.7-7.1-9.8-14-19.9-20.3-30.2ZM1109,893c-2.3-.5-4.3-2-6,.4l-48.9,70c.2.7,11.1,6.9,12,7.2s1.7.6,2.5-.6c15.4-24.6,29.2-50.2,40.5-77ZM1143,905l-18.9-6-40.9,81.9,17.9,9.1c8.4-15.9,18.2-31.2,26.2-47.3,4.4-8.8,12.8-24.8,15.4-33.7s.7-2.6.4-4ZM458,980c-16.4-25.1-30-51.8-42.5-79-3-2.8-15.2,4.9-19.5,5.1-1.6,2.2,19.4,43.4,22.4,49s6.5,12,9.7,17.3,10,15.7,10.8,16.3c2.6,1.7,14.9-9.3,19-8.6ZM380,912c-4,2.2-16.2,4.3-19,6.5s-1.2,1.5-.8,2.8c12.9,29.3,27.5,57.6,44.4,84.7.7,1.1,1.6,1,2.8.9s14.2-7.8,14.7-8.4c.9-.9,1.3-1.5.8-2.8-16.1-26.9-31.8-54.3-42.9-83.7ZM1177.9,918.1c-.5-.8-18-6.6-18.8-6.1-11.4,29.6-26.6,57.4-43.3,84.2-1.3,4.7,2.3,3.2,5,4.5s12.3,7.4,14.2,6.1c13.8-25.1,28.8-50.3,39.6-76.9.9-2.3,4.5-10.1,3.4-11.8ZM1166.8,1025.8c1.1-.6,10.7-18.3,12.3-21.2,13.1-23.3,24.2-47.8,34.7-72.4.3-.9-.2-1.3-.9-1.8-3.2-2.4-13.8-4.2-18-6.5-12,28.3-25.2,56.2-40.8,82.7-1.5,2.5-5.2,6.4-6.1,8.9s.5,1.2,1.2,1.6c2.9,1.7,15.3,10,17.5,8.6ZM344,925l-18.9,7.1c11.7,33.8,31.1,64.7,48.4,95.9,5-5,10.9-8.4,17.5-11-7.2-14.1-16.1-27.8-23.5-42-8.6-16.3-16.5-33-23.5-50ZM1248.9,943.1c-.5-.7-15.2-5.8-16.7-5.9s-2-.4-2.7.8c-13.7,34-30.8,66.5-49.5,98,4.8.8,11.9,7.9,15.7,8.9s2.2-.3,3.3-1.3c3.6-3.4,14-23.2,17.2-28.8s35.1-68.4,32.7-71.6ZM308.9,938.1c-1.9-1.6-16.2,7-20,6-.1,1.1.2,2,.4,3.1,2.9,12.4,19.7,42.9,26.4,55.6,7.6,14.4,16,28.7,24.8,42.3,1.1.3,14.1-7.2,16.1-8.6s1.7,0,1.1-1.6c-17.8-31.4-35.9-62.9-48.9-96.6ZM1212,1055c6.3,2.1,12,6.3,17.5,10,21.9-33.6,39.1-70.2,55.1-107,.6-1.2.4-1.7-.6-2.5s-18.2-7.1-19-6.5c-14,37-33,71.9-53.1,106ZM326,1055c-19.2-33.4-38.3-67-52.5-103-.7-1.2-1.6-1-2.7-.8s-16.2,5.2-16.7,5.9c-1.2,1.7,3.7,12.1,4.7,14.6,9.6,21.7,20.3,43.4,32,64,5.5,9.7,11.4,19.3,17.1,28.9,2.4,1.9,1.7-.9,2.7-1.5,2.3-1.5,14.4-6.8,15.3-8ZM1263,1084c14.2-25.2,28.6-50.4,40.9-76.6,4.5-9.6,13-25.9,15.7-35.3s1.1-3.2-.6-4.5c-3.1-2.5-13.9-4.2-18-6.5-12,30.9-26.8,60.7-42.8,89.7-2,3.6-13.9,21.1-12.7,23.3s16.7,10.6,17.6,10ZM237,963c-3.7,2.2-15.4,4.4-18,6.5s-1.1,2.3-.8,3.8c15.3,34,31.4,69.1,51.4,100.7,1.2,1.9,5.7,10.3,7.7,10s15.7-9.4,15.6-11.2c-21-35.3-40.4-71.6-55.9-109.7ZM1356,980c-4,.4-17.2-7.6-19.5-5.1-12,28.9-25.3,57.3-40.3,84.7s-15.1,22.6-18.6,31.4-.8,1.8-.5,2.9c4.5,0,14,10,17.3,9,9.6-14.4,18.6-29.8,26.8-45.2s37.7-74.5,34.8-77.7ZM182.1,982.1c-1.1,1.5,5.5,15.7,6.7,18.6,15.4,35.7,34.9,70.4,55.7,103.3,2.6-2.6,16.4-8.4,16.5-11.4s-3-4.8-4.2-6.8c-20-35.5-40.1-70.8-55.3-108.7-.4-.7-1-.9-1.8-.8s-17.1,5.2-17.6,5.9ZM1327,1123c14.5-24.9,29.2-49.7,41.9-75.6,7-14.4,17.1-34.3,21.9-49.1s2.4-4.3-.4-6.2-15.5-5.6-16.4-5.7-1.1-.3-1.5.5c-17.7,42.9-38.3,84.8-63.1,124l.6,2.5,17,9.5ZM228.9,1113.9c.8-1.3-.7-3.6-1.3-4.9-5.4-11.4-15.3-24.6-21.7-36.3-15.2-27.5-28.2-56.3-41.3-84.6-5.6,2.9-12.3,5.3-18.5,6-1.1,1.1,10.4,26.4,11.8,29.7,15.1,33.7,33.4,65.8,52.7,97.3.7.9,1.4,2.2,2.8,1.9s15.1-8.2,15.6-9ZM1428.9,1006.1l-20.8-7c-17.5,46.1-40.6,90-66.9,131.7-.5,1.3,0,1.9.8,2.8s14.8,9.3,15.7,9.4c1.5.2,6.8-8.6,8.2-10.6,11.7-17.9,22.9-38.2,32.7-57.3,11.5-22.2,22.3-45.4,30.4-68.9ZM129.9,1001.1c-1.3-.8-17.8,4.7-20.5,5.8s.2,2.5,1.1,5.1c17.1,47.2,41.7,84.8,66.5,127.5s1,2.2,1,3.5c1.6,1.4,17.3-8.7,19.9-10.5-26.1-41.9-49.8-85.5-68.1-131.4ZM433,1010c-2-.3-2.9,1.7-4.7,2.8s-12.8,6.6-13.3,7.2,0,1.6.2,2.2c1,3.2,16,21.8,19.3,25.7,10.6,12.9,22.3,25.1,34,37,1.6-3.4,16.4-12.5,14.4-15.9s-1.8-.4-2.4-1.1c-16.7-18.5-33.9-36.9-47.5-58ZM1123.9,1020.1c-4.3-.5-14.8-10.4-17.9-8.6l-50.6,61.6c4.3,1.6,9.5,10.1,12.6,11.5s1.6.6,3,0,15.2-15,17.5-17.5c8.6-9.3,29-32.4,34.3-42.7s1.5-2.6,1.1-4.3ZM400.9,1030.1c-1.3-1-17.3,8.2-17.8,9.1-1.3,2.1,10.3,17.9,12.5,20.8,13.4,18.2,30.1,34.9,45.9,51.1,1.6-2.9,14.7-12.5,14.4-14.3s-17.5-18.3-20.4-21.6c-11.8-13.3-22.5-27.7-33.4-41.7s-.9-3.1-1.2-3.3ZM1155.9,1039.1c-3.7-.4-14.8-9.8-16.9-8.7l-28.5,36.6-28.5,30.5c4.9,2,10.2,11.1,14,13.1s1,.5,2,0c1.9-1,12.2-12.1,14.5-14.5,12.6-13.3,28.2-31.5,38.3-46.7,1.3-1.9,6.4-8.5,5.1-10.2ZM412.1,1136.9c1.8,1,10-6.6,11.9-8.3s5.6-4.5,4.5-6.5-11.2-10.9-14.1-14c-16.8-18.4-32.3-38.1-46.5-58.6-.4-.5-.8-.4-1.4-.3-.9.1-15.7,8.6-16.6,9.4-1.6,1.3-.8.9,0,2,17.1,25.8,39.1,51.3,60.6,73.5.8.8,1.4,2.8,1.6,2.9ZM1110.1,1124.9c0,.2,2.1.8,2.9,1.6,3.3,3.2,9.6,12.2,13.5,9.6,12.9-14.7,26.7-28.8,38.9-44.1s22.6-29.5,22.6-31.4c0-3.1-13-8.7-15.7-11.4l-1.4.3c-17.8,25.8-38.1,49.7-60,72-.8.9-1.4,2.4-.8,3.4ZM336,1068c-.8-.6-16.1,8.6-17,9.5s-1.4,1.4-.9,2.8c19.9,29,42.3,56.1,66.3,81.8.6.5,1.2,1,2,1s13.4-10.9,14.5-12.5,1.4-1,1-2.5c-2.7-.5-4.7-3.1-6.5-5-19.3-20.7-37.9-42.6-54.3-65.7s-4.5-5.9-5.2-9.3ZM1137.1,1150.9c0,.2,2.1.8,2.9,1.6,2.2,2.1,8.2,9.2,10,10.1s1,.5,2,0c1.9-1,12.2-12.1,14.5-14.5,6.2-6.5,56.3-66.2,54-70l-16.2-9.9-1.4.3c-13.7,20-28.5,39.4-44.5,57.6s-16.3,15-20.6,21.4-1.5,2.2-.8,3.4ZM495.6,1082.1c-2,3.1-16.5,12.3-14.2,15.9,27.7,24.9,57.7,46.9,89.1,67,.7.4.9-.1,1.4-.4.7-.5,9.6-13,10.1-14s1.2-1.2.5-2.6-24.5-15.8-28.5-18.6c-20.6-14.4-39.4-31.1-58.5-47.3ZM1045.3,1085.6c-.7-.6-1.1-2.5-1.9-2.6h-.9c-25.8,24.8-55.5,45.5-86.1,64-2.5,4,9.5,13.4,9.6,18,22.8-12.8,45.3-28.1,65.9-44.6,6.8-5.5,15.4-12.4,21.6-18.4s5.4-4.7,4.5-6c-4.6-2.4-8.5-6.8-12.6-10.4ZM1246.6,1093.4c-1.4-.9-11.1-6.8-11.6-6.4-19.9,31.7-44.8,59.9-70.6,87-.7.8-.4,1.2,0,2,1.5,3.1,11.3,8.7,13.1,13h1.5c2.2-3.7,6.8-7.1,10-10.5,23.8-24.7,45.2-52.4,64-81-2.9-.6-4.8-3.1-6.4-4.1ZM363.6,1163.4c-3.9-4.2-8.4-8.1-12.1-12.4-17.5-19.8-32.7-41.5-48.5-62.6-1-.5-16.4,7.9-16.9,8.7s0,2,.4,2.9c4.6,9.6,18.2,25.9,25.1,34.9,12.7,16.6,28.3,36.2,43.4,50.6.9.9,4.4,3.5,5.4,3.4s12.6-11.6,14.6-13.4c-4.2-3.7-7.6-8.1-11.4-12.1ZM269.7,1107.1c-.9.1-14.8,9.1-15.3,9.9s-.3,1.8.3,2.7c22.9,34.6,49.3,67,78.7,96.3,2.3-3.6,11.6-9.9,13-13s.6-1.6,0-3c-1-2.1-10.6-10.2-13-13-22.3-24.7-42.8-51-61.5-78.5-.6-.8-1.2-1.5-2.3-1.4ZM1191.1,1199.1c-.7,1.2.1,2.4.8,3.4s10.2,10.6,11.5,11.5,1.4,1.4,2.5.5c28.2-30.6,57.4-61.5,78.6-97.6-2.6-1.7-15.5-10.8-17.6-9.5-21.5,31.9-46.3,61.5-72.4,89.6s-3.3,1.9-3.4,2.1ZM467.7,1109.1c-1,.3-16.9,12.9-12.8,15.5,25.5,22,51.5,44,80.2,61.9s10.3,7,13,8.1,1.7.9,3,0,8.9-12.3,10-14,1.7-1.4.5-2.5c-32.9-19.5-63.4-42.7-91.6-68.5-.7-.5-1.4-.6-2.3-.4ZM987.1,1194.9c.9.5,1.9,0,2.8-.4,10.2-4.3,33-20.9,43-28,15.1-10.9,33.6-25.2,47.1-37.9,1.5-1.4,5.6-4.5,4.5-6.5s-11-11.4-12-12.1-1.5-1.2-2.8-.8-14.2,13.3-16.7,15.4c-23.2,19.6-49.2,38.1-75.9,52.6-.4,1.3.2,2.5.7,3.7s8.6,13.7,9.4,14.1ZM319.4,1225.6c-5-6.5-11.5-11.6-17-17.6-22.9-25.1-43.8-52-62.9-80.1-.8-1-1.5-.8-2.6-.5-3.3.9-10.3,8.2-14.9,8.7-1,1.4,3.3,7.9,4.3,9.5,19.9,31.1,51.4,65.7,77.2,92.4s1.4,2.8,1.6,2.9c3.2,1.9,11.5-10.8,15.4-11.8,1.8-3.1-.5-2.6-1.1-3.4ZM696,1161c-27.3-6.8-52.1-20.6-76.4-34.1l-11.6,15.6,12.3,7.7c22.6,11.7,45.6,24.3,70.6,29.7l5.1-18.9ZM930,1144c.6-.8-9.5-15-10.5-16s-1.2-1.3-2.7-.9-12.7,7.6-15.9,9.2c-18.9,9.6-38.4,18.9-58.9,24.6l4,19c30.1-6.3,56.5-23,84-36ZM1317,1136c-5,0-14.3-11.4-18.6-8.1-23.9,35.1-51,68-81,98.1v2s14,13,14,13l.5-.4c23.2-23.8,45.6-48.9,65.4-75.6,6.9-9.3,13.9-19,19.6-28.9ZM539.9,1208.1c-.3-.4-7.2-3.6-8.8-4.7-24-15.5-47.7-32-69.6-50.4-2.9-2.4-18-17.5-19.2-17.9s-1.8.2-2.8.8-12.2,11.8-12.4,12.7c4.6,5.7,11.1,11.4,16.7,16.3,26.1,22.8,54.9,42.2,84.2,60.7,1.3.4,9.8-11.2,10.9-13.3s1.8-3.3,1.1-4.3ZM998,1208c-.7.9,10.5,17.2,12.3,16.9,30.7-18.9,61.7-39.5,88.7-63.4,2-1.8,13.2-11.5,12.9-12.9s-11.2-11.9-12.4-12.7-1.4-1.2-2.5-.5c-30.5,27.2-63.2,52.8-99,72.6ZM292.5,1250.5c-14.6-16-29.7-31.3-43.5-48-14.9-18-28.7-36.9-42-56l-19,10.6c14,20.2,28.4,40.4,44,59.5,12.2,14.9,28.4,34.1,42.3,47.2.7.7,5,4.2,5.3,4.2,3.1.8,12.1-12.2,15.3-14.5.5-1.3-1.3-1.7-2.4-3ZM1348.9,1156.1c-5.4-1.1-12.1-8.6-16.9-9.7s-1.4.3-2,1c-20.4,30.1-42.9,58.8-67.5,85.6-3.2,3.5-16.9,15.4-18,18s-.6,1.6,0,3,13.2,12.8,14.2,12.9l1.8-.8c26.1-27,51.3-55.3,73.3-85.8,3.8-5.2,11.5-14.8,14-20s1.6-2.6,1.1-4.3ZM687,1196c-31.2-8.1-60.1-22.6-87.7-38.9h-1.2s-11,16.4-11,16.4c29.9,18.1,62.1,33.4,95.9,42.5l4-20ZM855,1216c30.1-8.8,59.5-21.2,86.7-36.8,1.9-1.1,9.5-4.8,9.2-6.5s-10.6-15.7-12.2-15.5-12.1,7.1-14.7,8.4c-23.4,12.1-47.6,23.4-73,30.5l4,20ZM405.4,1181.6c14,13,31.8,26.8,47.3,38.2s35.8,24.3,54,36.1c1.1.2,12-14.2,12.2-15.6s-.6-1.7-1.6-2.2c-37-22-71.4-48-103-77.1-2.5-.4-11.4,12.7-15.4,12.9-1,1.4,5.1,6.4,6.4,7.6ZM1122.3,1162.3c-24,20.7-47.6,40.5-74.2,58.3s-26.8,16-27.7,17.4c-1.6,2.6,8.4,13.4,9.5,16.6l1.4.3c38-22.6,74-48.7,106.7-78.4,1-.9,1.1-1.4.5-2.5s-12.8-12.8-13.9-12.8c-.9.2-1.7.5-2.4,1.1ZM826,1166c-37.8,9-76.2,9.4-114,0l-4.1,18.4c40.2,10.9,81.6,10.3,122,.5,1.5-2.2-4.2-15.2-3.9-18.9ZM387.9,1187c-1-.3-1.3,0-2,.4-1.5.8-13,13-13,14l.5,1.5c32.8,28.6,67.2,55.9,104.6,78.4,2.3,1.4,7.2,5.4,9.5,3.7s11-15.3,10.5-16.1c-39.6-21.8-74.7-50.4-108.9-79.6s-1-1.5-1.1-2.3ZM1155.3,1190.7c-1.6-1.4-1.6-4.9-5.3-3.2s-13.4,12.9-16.5,15.5c-23.2,19.4-48.6,37.6-74,54-2.8,1.8-17.3,9.8-18.1,11s-.4,1.8,0,3,8.8,13.2,9.5,13.6c1.5,1,3.8-1,5.3-1.8,22.2-11.6,50.5-32.8,70.6-48.4,5-3.9,38.1-30.6,38.1-33.9s-7.6-8.1-9.7-9.8ZM677.9,1232.1c-35-10.4-68.1-25.8-99.6-44-1.4-.1-3.4,2.3-4.3,3.4s-8.7,11.3-9,12c-.7,1.7.7,1.4,1.3,1.7,33.3,19.3,70.4,36.5,107.7,45.7l3.9-18.9ZM972,1205c1.4-2-8.9-14.5-10.6-16.9-10.8,3.7-20.7,10.7-31,15.8-22.7,11.2-46.2,20.5-70.3,28.2l3.9,18.9c38.2-9.7,73.4-27.7,108-46.1ZM833.9,1201.1c-43.1,9.9-86.3,10.5-129.3-.1l-5.6,19.1c46.3,11.9,93.7,11.6,140,0l-5.1-18.9ZM1061,1298c-.6.8,10.6,16.7,11.6,16.9,27.6-15.6,54.2-33.9,79.3-53.5s27.6-20.9,37.6-31.4c1.6-1.7,3.2-2.4,2-5s-10.8-11.2-11.6-11.6c-1.3-.6-1.6-.6-3,0-2.2,1-11.2,10.7-14,13-27.1,22.7-56.3,43.9-86.1,62.9-4.9,3.1-10.4,6.6-15.9,8.6ZM361.8,1214.2c-4.5-1.7-4.8,2.5-6.8,4.3s-10.4,8.4-9,10.5c7.5,5.1,14.4,12,21.5,18,23.7,19.9,50.2,39.1,76.2,55.8,5,3.2,14.8,10.4,19.6,12.4s2.3,1.1,3.7.7c-.4-4.2,10.8-13.5,8.9-16.8-37.6-22.3-72.3-48.8-105.9-76.6s-6.1-5.5-8.2-8.3ZM668.9,1267.1c-39.5-10.8-77.5-27.7-112.4-48.9-2.5,2.1-13,15.5-11.4,17.7,38.2,20.8,77.5,40.4,119.9,51.1l3.9-19.9ZM992.4,1231.6c-1.9-2.6-8.2-13.7-10.7-13.5-36,19.5-73,37.6-112.6,48.9l3.9,19.9c42.4-12.5,83.4-30.6,121-53.5.6-1.9-1.2-1.3-1.6-1.8ZM843,1236c-48.9,11.9-99,11.6-148,0l-4,20c11.9,1.4,23.7,4.3,35.6,5.9,29.3,3.8,56.4,3.8,85.7,0,4.3-.6,34.1-5.4,35.2-6.8l-4.6-19ZM456,1329c-43.9-25.2-85-56-122.5-90h-1.5c-2.5,4.9-8.1,10.5-13,13-.9,1.2,2.2,3.7,3,4.5,13.8,12.8,31.1,26.4,46.1,37.9,24.3,18.5,50,34.8,75.5,51.5,1.9.4,13-16.1,12.4-16.9ZM1206.8,1239.1c-1.4-.8-3.6.6-4.8,1.4-7.9,5.2-18.6,16.9-26.6,23.4-29.4,23.9-61,44.9-93,65l9.5,15.6c2,1.3,10.5-4.7,12.9-6.1,40.5-24.2,79.2-54.2,114.1-85.9-3.4-3.6-7.1-6.9-10.5-10.5s-1.4-2.7-1.6-2.9ZM1004.9,1248.1c-40.8,20.8-81.7,41.7-125.9,54.4-2.8,2.2,3.8,15.5,3,19.5,46.8-12.5,90.7-33.9,133-57l-10.1-16.9ZM523,1266c36,19.2,72.7,38.5,111.8,50.7,4.6,1.4,14.7,5.1,18.8,5.3s2,.2,2.9-1,4.3-17,2.5-18.5-25.8-7.8-30.5-9.5c-31.9-11.4-63-27-92.5-43.6-.7-.4-1.3-.3-2,0-1.6.8-11.8,15.5-11,16.5ZM306.6,1265.1c-1,.2-13.7,13-14.2,13.9s-.9,1.3,0,2c41.1,35.4,84.3,69,131.6,95.5,1.2-3.3,12-15.3,10.5-17.6-45.3-27.5-87.9-59.2-127.9-93.9ZM1232.4,1291.4c2.1-1.9,13.8-11.3,13.5-12.8s-12.6-13.7-15.2-13.5c-39.2,34.4-81.3,65-125.6,92.5-.8.8-2.3,1.3-2,2.8s9.7,14.2,10.4,14.7c1.9,1.5,2.7.4,4.6-.5,16.6-8,41.7-26.5,57.3-37.7s39-29.4,57.1-45.4ZM852,1272c-1.2-1.2-20.2,3.3-23.6,3.8-33.2,5.2-64.2,6.9-97.7,3-14.7-1.7-29.3-5.2-44-6.9l-4.7,18.5c57.2,14.2,116.7,13.5,174,.5l-4-18.9ZM887.1,1338.1c-.7.8,2.7,17.7,3.9,18.5,1.8,1.2,9.3-1.6,11.8-2.3,38.7-11.2,91.5-34.2,125.9-55.1,2.5-1.5,8-3.6,7.2-6.5s-8.5-12.7-9.4-13.7-.9-1.2-1.8-.9c-43.6,24.5-89.4,45.9-137.6,60ZM647,1358c.8-5.1,4.6-13,4.9-17.7s-.4-1.7-1.5-2.1c-48-13.1-93.2-34.3-136.3-58.8-1.9-.3-11.1,13-11.9,15.2s.5,1.2,1.1,1.6c2.3,1.6,5,3.1,7.4,4.5,42.3,24.6,89.1,44,136.3,57.2ZM860.9,1307.1c-19.1,2.7-38.2,7.1-57.4,8.9-33.7,3.2-67.4.8-100.7-4.3-3.6-.5-23-5-24.2-4.6-1.8.5-5.2,16.8-5.6,19.9,16.9,2.4,33.7,5.9,50.6,7.9,31.6,3.7,60.2,3.7,91.8.1,16.6-1.9,33-5.7,49.5-8l-4.1-19.9ZM899,1393c55.8-15.3,109.2-39.3,159-68.5-2.7-2.4-9.3-16.7-12.3-16.4-47.5,26.9-97.6,51-150.7,64.9l4,20ZM643,1374.1c-52.9-14.7-103.3-37.4-150.6-65-1.3-.2-11.1,14.1-11.2,15.6s.8,1.5,1.5,2.2c2.8,2.6,16,9.3,20.4,11.7,28,15.2,59.6,29.7,89.5,40.5,14.9,5.4,30.2,9.5,45,15,1.5,0,5-17.1,5.5-19.9ZM634,1409c-57.7-15-111.9-40.5-163.5-69.9-1.5,3.3-9.7,12.1-10.4,14.6s4.8,5,7.2,6.5c41.9,25.5,96.5,49.3,143.5,63.5,3,.9,17.5,5.5,19.1,4.2l4.1-18.9ZM1068.9,1339.1c-1.1-.6-2.5.3-3.6.7-19.3,7.1-43.9,23.8-63.9,33.1s-40.4,17.4-60.6,24.4c-11.9,4.1-24.6,8.5-36.8,10.7l5,20c59.5-15.8,115.3-42.5,168.9-72.1,1.9-2.7-8.4-13.4-9.1-16.8ZM869.9,1343.1c-1.4-1.2-30.1,4.9-34.7,5.6-44.7,6.5-87.8,7-132.6.2-11.3-1.7-22.4-4.9-33.6-6.9l-5,21c58.3,12.1,119.2,15.4,178.2,5.7,10.3-1.7,20.5-4.5,30.8-6.2,1.2-.8.9-1.6.8-2.8-.5-5-3.4-11.4-3.9-16.7ZM624.9,1444.1c-62.3-15.7-120.3-44.2-175.9-75.1-1.5,5.6-9.5,11.4-10.9,16.6s5.6,3.2,6.5,5.2c45.6,24.7,92.9,48.7,142.6,64.4,4.3,1.4,32.1,10,33.7,8.7l4-19.8ZM1100,1387c.7-.7-8.7-15.3-10-16.5s-1.7-1.9-3.3-1.3c-48.8,28.1-100.2,52.1-154,69.1-4,1.3-16.2,3.5-18.8,5.2s-.9.8-.8,1.8c.2,5.2,4.5,13.1,4.8,18.7,47.5-12.2,93.8-30.8,137.4-53.1,13.9-7.1,27.1-15.8,40.9-23.1s2.4-.8,3.7-.8Z"/>
  <path class="st2" d="M433,679c.2-.9-1-3-1-4.5.6-50,21.5-127.8,52.6-167.4,27.8-35.3,58.1-44.8,99.7-55.3,111.5-28.2,243.3-29.7,355.6-4.1,44.5,10.2,81,20.5,111.7,56.3,33.3,38.8,55.7,124.5,55.5,175l-157.6,152c-2.1.5-8.8-11.4-10.4-13.5-87.3-110.2-247.7-112.1-336-2-4,4.9-8.2,10.8-11,16.5l-159-153Z"/>
  <path class="st2" d="M1107,684c-2.4,61.1-33.2,129.4-71,176.5-35.8,44.6-78.1,90.6-116.5,133.5-50,56-90.7,108.9-175.7,94.7-46.1-7.7-70.6-36.9-99.8-68.9-46.4-50.8-95.5-104.2-138.9-157.3-40.3-49.3-67.9-111.5-72-175.5l3.5,1c51.1,48.7,102.1,97.8,152.5,147-2.7,0-3.9,4.9-5.2,7.4s-4,2.6-1.5,5.4l58.2,55.3c30.7,31.3,62.2,60.8,93.9,91.1,2,2.4,0,14.3.8,19.2,4.8,31,50.3,38.8,66.4,9.9,5.4-9.6,4.8-17.3,3.6-27.9,48.7-45.9,95.2-93.7,143.2-140.3,2.2-2.2,10.2-6.9,9.4-10.2s-5-8.3-6.8-10.2l.5-.5,155.5-150Z"/>
  <path class="st1" d="M433,679l159,153c2.9-5.6,7.1-11.5,11-16.5,88.3-110.2,248.7-108.3,336,2,1.6,2.1,8.3,14,10.4,13.5l157.6-152c0,1.7,0,3.3,0,5l-155.5,150-.5.5c1.8,1.9,6.3,8.1,6.8,10.2.8,3.4-7.2,8.1-9.4,10.2-48,46.6-94.5,94.4-143.2,140.3,1.1,10.6,1.7,18.2-3.6,27.9-16.1,29-61.6,21.1-66.4-9.9-.8-4.9,1.2-16.8-.8-19.2-31.7-30.3-63.2-59.8-93.9-91.1l-58.2-55.3c-2.5-2.8.5-3.3,1.5-5.4s2.5-7.3,5.2-7.4c-50.4-49.2-101.4-98.4-152.5-147l-3.5-1c-.3-5.4-.9-2.8,0-8ZM808.7,827.3c-6.8-7.4-17.4-9.6-27.2-10.3-9.7-.8-35.9.4-44.4,4.5s-17,18-20,21c-13.5,13.5-27.6,26.4-40.9,40.2-.9,3.6,10.8,10.6,12,14.8,0,2.3-12.3,9.2-10.6,12.5l71.3,66.8c2.5.6,8.8-3.4,12.2-4.4,7.4-2,13.1-1.9,20.5.6s8.4,5.2,10.5,4.5l71.1-67.1c.6-2.3-9.1-10.8-11-12.9,0-1.7,11.7-10,12.5-11.5s.7-2,0-3l-55.9-55.7Z"/>
  <path class="st1" d="M869.9,1343.1c.5,5.2,3.4,11.7,3.9,16.7s.4,2-.8,2.8c-10.3,1.7-20.5,4.5-30.8,6.2-59,9.7-119.9,6.4-178.2-5.7l5-21c11.2,2,22.4,5.1,33.6,6.9,44.7,6.8,87.9,6.3,132.6-.2s33.3-6.8,34.7-5.6Z"/>
  <path class="st1" d="M1100,1387c-1.3,0-2.6.2-3.7.8-13.8,7.2-27,16-40.9,23.1-43.6,22.3-89.9,40.9-137.4,53.1-.3-5.6-4.6-13.5-4.8-18.7s0-1.2.8-1.8c2.6-1.7,14.8-4,18.8-5.2,53.8-17,105.2-41,154-69.1,1.6-.6,2.3.4,3.3,1.3s10.7,15.8,10,16.5Z"/>
  <path class="st1" d="M624.9,1444.1l-4,19.8c-1.6,1.4-29.4-7.3-33.7-8.7-49.7-15.7-97-39.8-142.6-64.4-.9-2-7-3.4-6.5-5.2,1.4-5.3,9.4-11,10.9-16.6,55.6,30.9,113.7,59.4,175.9,75.1Z"/>
  <path class="st1" d="M860.9,1307.1l4.1,19.9c-16.5,2.3-32.9,6.1-49.5,8-31.6,3.6-60.2,3.5-91.8-.1s-33.8-5.4-50.6-7.9c.5-3.1,3.8-19.4,5.6-19.9s20.6,4.1,24.2,4.6c33.3,5.1,67,7.5,100.7,4.3,19.3-1.8,38.3-6.2,57.4-8.9Z"/>
  <path class="st1" d="M1068.9,1339.1c.7,3.4,11,14.1,9.1,16.8-53.6,29.6-109.4,56.2-168.9,72.1l-5-20c12.2-2.2,24.9-6.6,36.8-10.7,20.2-7,41.2-15.4,60.6-24.4s44.6-25.9,63.9-33.1,2.5-1.3,3.6-.7Z"/>
  <path class="st1" d="M634,1409l-4.1,18.9c-1.6,1.3-16.1-3.3-19.1-4.2-47-14.2-101.5-38.1-143.5-63.5-2.5-1.5-8-3.6-7.2-6.5s8.9-11.2,10.4-14.6c51.6,29.4,105.7,54.9,163.5,69.9Z"/>
  <path class="st1" d="M1232.4,1291.4c-18.1,16-37.4,31.3-57.1,45.4s-40.6,29.7-57.3,37.7c-1.9.9-2.6,2-4.6.5s-10.2-13.8-10.4-14.7c-.3-1.5,1.2-2,2-2.8,44.3-27.4,86.5-58.1,125.6-92.5,2.6-.2,15,12.5,15.2,13.5.3,1.5-11.4,10.9-13.5,12.8Z"/>
  <path class="st1" d="M306.6,1265.1c40,34.7,82.6,66.4,127.9,93.9,1.4,2.2-9.4,14.3-10.5,17.6-47.3-26.6-90.5-60.2-131.6-95.5-.9-.8-.4-1.2,0-2s13.2-13.7,14.2-13.9Z"/>
  <path class="st1" d="M899,1393l-4-20c53-13.8,103.2-38,150.7-64.9,3-.3,9.7,14,12.3,16.4-49.7,29.2-103.2,53.2-159,68.5Z"/>
  <path class="st1" d="M852,1272l4,18.9c-57.3,13-116.8,13.7-174-.5l4.7-18.5c14.7,1.7,29.3,5.3,44,6.9,33.6,3.8,64.5,2.2,97.7-3,3.4-.5,22.4-5,23.6-3.8Z"/>
  <path class="st1" d="M643,1374.1c-.5,2.8-4,19.8-5.5,19.9-14.8-5.4-30.2-9.6-45-15-29.9-10.8-61.5-25.3-89.5-40.5s-17.6-9.1-20.4-11.7-1.7-.7-1.5-2.2,10-15.8,11.2-15.6c47.3,27.6,97.7,50.3,150.6,65Z"/>
  <path class="st1" d="M129.9,1001.1c18.3,45.9,42,89.5,68.1,131.4-2.7,1.7-18.3,11.9-19.9,10.5,0-1.3-.3-2.4-1-3.5-24.9-42.7-49.4-80.3-66.5-127.5-.9-2.5-4.4-3.8-1.1-5.1s19.2-6.6,20.5-5.8Z"/>
  <path class="st1" d="M858,231l-1,19-50.5-3.1c-41.9.2-83.8-.7-125.6,2.1l-1-19c11.2.9,22.4-1.6,33.5-2,32.3-1.2,64.8,1,97.1,0l47.5,3Z"/>
  <path class="st1" d="M1428.9,1006.1c-8.1,23.6-18.9,46.7-30.4,68.9-9.8,19-21,39.4-32.7,57.3s-6.7,10.8-8.2,10.6-15-8.7-15.7-9.4-1.4-1.4-.8-2.8c26.3-41.7,49.4-85.5,66.9-131.7l20.8,7Z"/>
  <path class="st1" d="M855,266c-1.4,3.2,0,18.4-2.7,19l-51.8-3.1c-39-.5-77.7.7-116.6,2.1l-1-19c57.2-2.9,114.9-3.5,172,1Z"/>
  <path class="st1" d="M852,301l-2,19c-1.2,0-2.3,0-3.5,0-15.8-.3-32.1-2.7-47.9-3.1-36.7-1-73.3,1-109.9,2.1-1.7-.5-2.2-16.3-2.6-19.1,11.2-.6,22.4-.5,33.5-1,2.4,0,4.6-1,6.9-1.1,41.8-1.2,83.9.3,125.5,3Z"/>
  <path class="st1" d="M647,1358c-47.2-13.2-94-32.6-136.3-57.2s-5.2-2.9-7.4-4.5-1.8.2-1.1-1.6,10-15.5,11.9-15.2c43.1,24.4,88.3,45.6,136.3,58.8,1.2.4,1.6.8,1.5,2.1-.2,4.7-4.1,12.7-4.9,17.7Z"/>
  <path class="st1" d="M887.1,1338.1c48.2-14.1,93.9-35.5,137.6-60,.9-.3,1.3.3,1.8.9.9,1,9.2,12.9,9.4,13.7.8,2.8-4.8,5-7.2,6.5-34.4,20.9-87.2,43.9-125.9,55.1-2.5.7-10,3.5-11.8,2.3s-4.6-17.7-3.9-18.5Z"/>
  <path class="st1" d="M1206.8,1239.1c.2.1.8,2.1,1.6,2.9,3.4,3.6,7.1,6.9,10.5,10.5-34.8,31.7-73.6,61.7-114.1,85.9-2.4,1.5-10.9,7.5-12.9,6.1l-9.5-15.6c32-20.1,63.6-41.2,93-65s18.7-18.3,26.6-23.4,3.4-2.2,4.8-1.4Z"/>
  <path class="st1" d="M456,1329c.6.8-10.5,17.3-12.4,16.9-25.5-16.7-51.3-33.1-75.5-51.5-15-11.4-32.3-25.1-46.1-37.9s-3.9-3.3-3-4.5c4.9-2.5,10.5-8.1,13-13h1.5c37.5,34,78.6,64.8,122.5,90Z"/>
  <path class="st1" d="M292.5,1250.5c1.1,1.3,2.9,1.6,2.4,3-3.2,2.2-12.1,15.3-15.3,14.5s-4.6-3.6-5.3-4.2c-13.9-13-30.1-32.3-42.3-47.2-15.6-19-30-39.2-44-59.5l19-10.6c13.3,19.1,27.1,38,42,56,13.8,16.7,28.9,32,43.5,48Z"/>
  <path class="st1" d="M646,58l1,20c-51.5,2.1-102.3,10.8-152.9,18.9-.3-5.7-3.5-12.1-4-17.5s0-1.1,1.3-1.5c2.1-.7,5.1-1.2,7.4-1.6,48.6-9.1,97.8-15,147.2-18.3Z"/>
  <path class="st1" d="M1048,78c-.6,2.7-3.9,17.8-4.9,18.6s-1.7.5-2.6.5c-49.8-8.4-99.9-16-150.5-18.1l1-20c52.8,2.9,105,10.5,157,19Z"/>
  <path class="st1" d="M1348.9,1156.1c.5,1.7-.4,2.9-1.1,4.3-2.5,5.2-10.3,14.8-14,20-22,30.5-47.2,58.7-73.3,85.8l-1.8.8c-1,0-13.6-11.6-14.2-12.9s-.6-1.6,0-3c1.2-2.6,14.8-14.5,18-18,24.6-26.8,47.1-55.5,67.5-85.6.7-.8.9-1.3,2-1,4.7,1.1,11.5,8.6,16.9,9.7Z"/>
  <path class="st1" d="M843,1236l4.6,19c-1.1,1.4-30.9,6.3-35.2,6.8-29.3,3.8-56.4,3.8-85.7,0s-23.7-4.4-35.6-5.9l4-20c49,11.6,99.1,11.9,148,0Z"/>
  <path class="st1" d="M1327,1123l-17-9.5-.6-2.5c24.8-39.2,45.4-81.1,63.1-124,.4-.9.9-.6,1.5-.5s15.6,5.2,16.4,5.7c2.7,1.8,1.1,3.7.4,6.2-4.8,14.8-14.9,34.7-21.9,49.1-12.6,25.9-27.4,50.7-41.9,75.6Z"/>
  <path class="st1" d="M849,336l-2.5,19c-13.1-2.1-26.7-1.5-40-2s-5.1-1-7.9-1.1c-35.7-.9-71.3.6-106.9,2.1-2.8-.7-.9-14.7-2.7-17.5l1.5-1.5c52.8-2.5,105.8-3.4,158.5,1Z"/>
  <path class="st1" d="M1061,1298c5.5-2,11-5.5,15.9-8.6,29.8-19,59-40.2,86.1-62.9,2.8-2.4,11.8-12,14-13s1.6-.6,3,0,11.2,10.8,11.6,11.6c1.2,2.6-.4,3.3-2,5-10.1,10.4-26,22.3-37.6,31.4-25.1,19.6-51.7,37.9-79.3,53.5-1-.2-12.2-16-11.6-16.9Z"/>
  <path class="st1" d="M361.8,1214.2c2.1,2.8,5.5,6.1,8.2,8.3,33.6,27.9,68.2,54.4,105.9,76.6,1.9,3.3-9.3,12.6-8.9,16.8-1.4.3-2.5-.2-3.7-.7-4.8-2-14.6-9.2-19.6-12.4-26-16.7-52.5-36-76.2-55.8-7.1-6-14-12.9-21.5-18-1.5-2.1,7.6-9.2,9-10.5,2-1.8,2.3-5.9,6.8-4.3Z"/>
  <path class="st1" d="M472,82c1.1,6.7,4.4,13.1,4,20-1.4,0-2.9-.1-4.2.2-43.4,11.7-86.1,26.8-125.5,48.6-1.4.2-12-14.5-12.3-15.4-.3-1.4.8-1.7,1.6-2.3,3.1-2.3,11.1-6,15-8,37.6-19.2,80-34.1,121.3-43.1Z"/>
  <path class="st1" d="M228.9,1113.9c-.5.8-14.7,8.9-15.6,9-1.4.2-2.1-1-2.8-1.9-19.3-31.4-37.7-63.5-52.7-97.3s-13-28.5-11.8-29.7c6.2-.7,12.9-3.1,18.5-6,13.1,28.4,26.2,57.1,41.3,84.6,6.4,11.6,16.3,24.8,21.7,36.3s2.1,3.6,1.3,4.9Z"/>
  <path class="st1" d="M1061,102l5-19.6c47.5,10.1,93.2,28.8,136.4,50.7.9.7,1.6.8,1.5,2.2s-10.4,15.8-12.2,15.5c-41-22-85.2-38.7-130.7-48.9Z"/>
  <path class="st1" d="M91,862c6.6,42.1,18,83.2,32.1,123.4-.2,1-17.8,6.4-18.8,6.5-2.5.2-4.9-7.7-5.7-9.9-5.4-13.8-10.3-30.4-14.3-44.7-6.6-24-12-48.6-15.3-73.2,7.4.5,14.6-1.4,22-2Z"/>
  <path class="st1" d="M523,1266c-.8-1.1,9.4-15.7,11-16.5s1.3-.5,2,0c29.5,16.6,60.5,32.3,92.5,43.6,4.8,1.7,29,8.2,30.5,9.5s-1.4,17-2.5,18.5-1.6,1-2.9,1c-4.1-.2-14.3-3.8-18.8-5.3-39.1-12.3-75.8-31.5-111.8-50.7Z"/>
  <path class="st1" d="M387.9,1187c.2.8.5,1.8,1.1,2.3,34.2,29.2,69.3,57.8,108.9,79.6.6.8-9.3,15.2-10.5,16.1-2.3,1.8-7.1-2.3-9.5-3.7-37.4-22.5-71.8-49.8-104.6-78.4l-.5-1.5c0-1,11.5-13.2,13-14s1-.8,2-.4Z"/>
  <path class="st1" d="M1039,113l-4.5,19c-48.8-9-98-15-147.5-19l2.5-19c1.3.3,2.6,1,4,1,48.5,1.7,97.6,10.7,145.5,18Z"/>
  <path class="st1" d="M649,93l1,20c-48.6,1.8-96.7,9.8-144.6,18-1.2,0-2.2,0-3-1s-3.9-16.2-3.4-16.9c49.4-10.1,99.6-15.9,149.9-20.1Z"/>
  <path class="st1" d="M1004.9,1248.1l10.1,16.9c-42.3,23.2-86.2,44.5-133,57,.7-4.1-5.9-17.3-3-19.5,44.3-12.8,85.1-33.7,125.9-54.4Z"/>
  <path class="st1" d="M1467.9,864.1c-5.8,43.3-18.6,85.4-31.9,126.9-.8.7-19-5.7-20-6.5s-1.1-1.6-1-2.9c14-38.7,24.7-78.8,31.1-119.5.8-.8,21.1,1.2,21.8,2Z"/>
  <path class="st1" d="M1155.3,1190.7c2.1,1.8,9.7,7.4,9.7,9.8s-33.1,30-38.1,33.9c-20,15.6-48.4,36.8-70.6,48.4-1.5.8-3.8,2.7-5.3,1.8s-9.1-12.7-9.5-13.6-.9-1.7,0-3,15.3-9.1,18.1-11c25.4-16.5,50.7-34.6,74-54,3.1-2.6,14.7-14.6,16.5-15.5,3.7-1.7,3.7,1.8,5.3,3.2Z"/>
  <path class="st1" d="M1356,980c2.9,3.2-30.6,69.7-34.8,77.7-8.2,15.4-17.2,30.8-26.8,45.2-3.3,1-12.8-8.9-17.3-9-.3-1.1.1-1.9.5-2.9,3.5-8.7,13.6-22.2,18.6-31.4,15-27.4,28.3-55.8,40.3-84.7,2.3-2.6,15.5,5.5,19.5,5.1Z"/>
  <path class="st1" d="M212,232c.9,0,1.8-.4,2.4-1.1,20.9-24.4,49.3-48.8,75.3-67.8,3.5-2.5,26.9-19.4,28.7-19.1,2,2,10.6,13.6,10.6,15.4s-.4,1.5-.9,2c-30.8,20.3-59.1,43.9-85.6,69.4-2.3,2.3-12.6,14.1-13.5,14.6s-1.4.6-2.3.3-12-9.8-13.6-11.4-1.4-.9-1.1-2.4Z"/>
  <path class="st1" d="M1303.6,208.4c7.6,7.2,15,14.8,22.5,22.1.2,1.6-.1,1.9-1.1,2.9s-13.6,11.8-14.5,11.5c-30.1-31.6-63.5-60.2-100.5-83.5-1.1-.7-1.2-1.6-.9-2.8.9-3.2,9.2-10.2,10-14.6,2.5-1.7,44.3,29.9,49.4,34,12.1,9.6,23.9,19.9,35.1,30.4Z"/>
  <path class="st1" d="M182.1,982.1c.5-.8,16.7-5.9,17.6-5.9s1.3,0,1.8.8c15.2,37.9,35.3,73.3,55.3,108.7,1.2,2.1,4.3,4.5,4.2,6.8s-13.9,8.8-16.5,11.4c-20.7-32.9-40.3-67.6-55.7-103.3s-7.8-17-6.7-18.6Z"/>
  <path class="st1" d="M405.4,1181.6c-1.3-1.2-7.4-6.1-6.4-7.6,3.9-.2,12.9-13.4,15.4-12.9,31.6,29.1,66,55.1,103,77.1.9.5,1.7.9,1.6,2.2s-11.1,15.7-12.2,15.6c-18.2-11.8-36.6-23.2-54-36.1s-33.2-25.2-47.3-38.2Z"/>
  <path class="st1" d="M652,128l1.9,17.4-2.4,1.6c-46.1,3-91.7,9.8-137,18.1-1.2,0-2.2,0-3-1.1-1.7-2.3-2.2-13.1-4.5-16.5,47.7-10,96.3-16.1,145-19.5Z"/>
  <path class="st1" d="M1030,148.1l-4.5,18c-46.8-8-93.9-15.5-141.4-18.1-.6-.6.8-16.4,1.2-17.4s1.1-1.7,2.3-1.7c47.7,4.5,95.7,9,142.5,19.1Z"/>
  <path class="st1" d="M1122.3,1162.3c.7-.6,1.5-1,2.4-1.1,1.1,0,13.1,11.4,13.9,12.8s.5,1.7-.5,2.5c-32.7,29.7-68.7,55.7-106.7,78.4l-1.4-.3c-1.1-3.1-11.2-13.9-9.5-16.6s23.9-14.8,27.7-17.4c26.6-17.8,50.2-37.6,74.2-58.3Z"/>
  <path class="st1" d="M98.9,463.1c-8.5,38.9-18,77.9-19.9,117.9l-23-1c2-9.2,2-18.9,3.1-28.3,4-32,11.3-63.4,18.9-94.6l20.9,6.1Z"/>
  <path class="st1" d="M833.9,1201.1l5.1,18.9c-46.3,11.6-93.8,11.9-140,0l5.6-19.1c43,10.7,86.2,10,129.3.1Z"/>
  <path class="st1" d="M1317,1136c-5.7,9.9-12.7,19.6-19.6,28.9-19.9,26.8-42.2,51.8-65.4,75.6l-.5.4-14-13v-2c30-30,57-63,81-98.1,4.3-3.3,13.6,8.1,18.6,8.1Z"/>
  <path class="st1" d="M319.4,1225.6c.6.8,2.9.3,1.1,3.4-3.9,1-12.2,13.7-15.4,11.8s-.8-2.1-1.6-2.9c-25.7-26.7-57.3-61.3-77.2-92.4s-5.3-8.2-4.3-9.5c4.6-.5,11.6-7.8,14.9-8.7s1.7-.4,2.6.5c19.1,28.1,40,55,62.9,80.1,5.5,6,11.9,11.1,17,17.6Z"/>
  <path class="st1" d="M1460,457c9.9,37.5,17,75.6,20.1,114.4.2,2.1,2.6,6.8.7,8.4s-17.6.4-21.8,1.2c-.1-1.5.7-2.9.6-4.3-1-16-4.2-35.1-6.8-51-3.1-18.5-11.2-42.2-12.7-59.3-.1-1.3-.8-3.5.5-4.5s18.6-5.6,19.4-4.9Z"/>
  <path class="st1" d="M1263,1084c-.8.6-17.1-9.1-17.6-10-1.1-2.2,10.7-19.7,12.7-23.3,16-29,30.8-58.8,42.8-89.7,4.1,2.3,14.9,4,18,6.5s1,2.8.6,4.5c-2.7,9.4-11.2,25.7-15.7,35.3-12.3,26.3-26.6,51.4-40.9,76.6Z"/>
  <path class="st1" d="M237,963c15.5,38.1,34.9,74.4,55.9,109.7.2,1.8-14,10.9-15.6,11.2s-6.5-8.1-7.7-10c-20-31.6-36.1-66.6-51.4-100.7-.3-1.5-.5-2.7.8-3.8,2.6-2.1,14.3-4.3,18-6.5Z"/>
  <path class="st1" d="M881.1,181.9l.9-17.9c46.5,2.6,93.1,8.7,138.6,17.9,1.4,1.9-1.6,14-2.8,16.4s-.8,1.8-2.2,1.7c-44.4-8.6-89.4-13.7-134.5-18.1Z"/>
  <path class="st1" d="M539.9,1208.1c.7,1-.5,3.2-1.1,4.3-1.1,2.1-9.6,13.6-10.9,13.3-29.2-18.5-58.1-37.9-84.2-60.7-5.6-4.9-12.1-10.6-16.7-16.3.2-.9,11-11.8,12.4-12.7s1.5-1.2,2.8-.8,16.3,15.4,19.2,17.9c21.8,18.4,45.6,34.9,69.6,50.4s8.6,4.3,8.8,4.7Z"/>
  <path class="st1" d="M654.9,163.1l2.1,17.9c-46,3.1-91.6,10.9-137,18,0-5.3-3.4-11.6-4-16.5s.2-1.1,1.4-1.5c2.1-.8,5.1-1.1,7.4-1.6,23.2-4.5,47.3-8.2,70.8-11.2,19.6-2.5,39.5-4.4,59.2-5Z"/>
  <path class="st1" d="M998,1208c35.8-19.8,68.4-45.4,99-72.6,1.2-.6,1.7,0,2.5.5s12.3,11.8,12.4,12.7c.2,1.4-10.9,11.1-12.9,12.9-27,23.9-58,44.5-88.7,63.4-1.8.3-13.1-16-12.3-16.9Z"/>
  <path class="st1" d="M668.9,1267.1l-3.9,19.9c-42.4-10.6-81.8-30.3-119.9-51.1-1.6-2.2,8.9-15.7,11.4-17.7,35,21.2,72.9,38.1,112.4,48.9Z"/>
  <path class="st1" d="M992.4,1231.6c.4.5,2.2,0,1.6,1.8-37.6,22.9-78.6,41-121,53.5l-3.9-19.9c39.6-11.3,76.6-29.4,112.6-48.9,2.5-.2,8.9,10.9,10.7,13.5Z"/>
  <path class="st1" d="M1482,730c-1.9,39.5-4.6,79-11.1,117.9l-21.9-1.9c5.4-38.5,10.1-77,11-116h22Z"/>
  <path class="st1" d="M1191.1,1199.1c.1-.2,2.4-1,3.4-2.1,26.1-28.2,51-57.7,72.4-89.6,2.1-1.3,14.9,7.8,17.6,9.5-21.2,36-50.4,66.9-78.6,97.6-1.2.9-1.6.1-2.5-.5-1.3-.9-10.7-10.2-11.5-11.5s-1.5-2.2-.8-3.4Z"/>
  <path class="st1" d="M78,731c.8,38.3,3.8,76.7,10.1,114.4-.2,1.7-19,3.1-22,3.6-5.7-39.1-9.6-78.4-10-118h22Z"/>
  <path class="st1" d="M269.7,1107.1c1.2-.2,1.7.6,2.3,1.4,18.7,27.5,39.2,53.8,61.5,78.5s12.1,10.9,13,13,.6,1.6,0,3c-1.4,3.1-10.7,9.4-13,13-29.4-29.2-55.8-61.7-78.7-96.3-.6-.9-1-1.6-.3-2.7s14.4-9.7,15.3-9.9Z"/>
  <path class="st1" d="M128,857c6.4,39.8,17.7,78.5,31,116.4l-19.4,6.6c-7.3-18.1-13.3-37-18.3-55.9s-12.2-43.6-13.3-59.8-.6-3.7.6-4.6c2.3-1.6,15.5-.9,19.4-2.9Z"/>
  <path class="st1" d="M1173.8,179.8c-1.1.6-2.7.1-3.9-.3-7-2.4-17.8-9.4-25.3-12.7-29.6-13-61-23.8-92.7-30.8,2-3.5,2.8-14.7,4.5-17s2.5-1,3.9-.9c4.9.4,15.5,3.8,20.8,5.2,34.9,9.5,70,24.4,101.7,41.3-1,2-8.3,14.8-9.1,15.2Z"/>
  <path class="st1" d="M481,117c-.2,4.8,4.1,12.5,4,16.6s-.5,1.8-1.6,2.2c-40.2,10.1-79.5,24.5-116.1,44-3,.7-11.9-13-12.2-14.5s.6-1.6,1.5-2.2c4-2.9,13.1-6.6,18-9,33.8-16.3,69.7-28.7,106.4-37.1Z"/>
  <path class="st1" d="M56,715v-119c7.4-.7,14.6,1.3,22,1l-1,118h-21Z"/>
  <path class="st1" d="M1430,859c-7.2,40.5-17.6,80.2-31,119l-20-6c12.2-38,24.5-76.3,30-116l21,3Z"/>
  <path class="st1" d="M659,197l1,19c-43.8,2.8-87.3,9.1-130.4,16.9-1.2-.3-5.5-16.2-4.5-17.8,44.1-8.8,88.9-14.9,133.9-18.1Z"/>
  <path class="st1" d="M1013,215l-4.6,19c-43.4-8-87.3-14.5-131.4-17,.3-2.6,1-18.9,2.6-19.1l133.4,17.1Z"/>
  <path class="st1" d="M1212,1055c20-34,39.1-68.9,53.1-106,.8-.6,18,5.6,19,6.5s1.2,1.4.6,2.5c-16,36.8-33.2,73.4-55.1,107-5.5-3.7-11.2-7.9-17.5-10Z"/>
  <path class="st1" d="M467.7,1109.1c.8-.2,1.6-.2,2.3.4,28.1,25.8,58.6,49,91.6,68.5,1.2,1.2,0,1.7-.5,2.5-1.1,1.8-9.3,13.6-10,14-1.3.8-1.8.4-3,0-2.6-1-9.9-6.2-13-8.1-28.7-17.8-54.7-39.8-80.2-61.9-4.1-2.5,11.7-15.2,12.8-15.5Z"/>
  <path class="st1" d="M349.9,190.9c-.7,1.2-20.4,13.2-23.8,15.7-24.9,18.5-47.5,39.8-69.1,61.9-1.1.8-1.9.5-3,0-3.1-1.4-9.1-9.3-13-11.1,8.9-10.1,18.6-20.3,28.5-29.5,14-13,31.1-27.2,46.6-38.4s21.3-14.9,23.2-14.5,9.5,11.5,10.2,12.9.9,1.9.4,2.9Z"/>
  <path class="st1" d="M326,1055c-.9,1.2-13,6.6-15.3,8s-.4,3.4-2.7,1.5c-5.8-9.6-11.6-19.1-17.1-28.9-11.7-20.6-22.4-42.3-32-64-1.1-2.5-6-12.9-4.7-14.6s15.4-5.8,16.7-5.9,2-.4,2.7.8c14.2,35.9,33.3,69.6,52.5,103Z"/>
  <path class="st1" d="M1270.6,228.4c9.4,8.7,18.2,18.1,27.4,27.1l-14.7,12.4c-12.9-10.9-24.4-24.1-37.3-35.4-17.8-15.5-37.4-29.1-56.9-42.1-.5-1.6,7.3-13.3,8.9-14.9s.8-1.4,2-1.1c3.7,1,18.1,11.8,22.3,14.8,16.6,11.7,33.3,25.5,48.3,39.2Z"/>
  <path class="st1" d="M987.1,1194.9c-.7-.4-8.9-13.2-9.4-14.1s-1.1-2.3-.7-3.7c26.7-14.5,52.7-33,75.9-52.6s15.6-15.1,16.7-15.4,1.8.2,2.8.8,11.6,11.3,12,12.1c1,2-3,5.1-4.5,6.5-13.5,12.7-31.9,27-47.1,37.9-9.9,7.1-32.8,23.7-43,28s-1.9.9-2.8.4Z"/>
  <path class="st1" d="M1482,596v118h-21l-.9-115.4c.4-1.3,1.3-1.4,2.4-1.6,5.2-1,13.7.2,19.5-1Z"/>
  <path class="st1" d="M662.9,249.9c-21.5,3.2-43.6,4.4-65.2,7.3s-40.1,6.6-60.1,9.9l-4.5-18.5,127.4-17.4c1.2.4,1.4,1.3,1.6,2.4.4,2.4,1.6,15.2.9,16.3Z"/>
  <path class="st1" d="M1005,249c-.7,2.8-4.2,18.5-5.5,18.8-41.5-8-83.5-13-125.5-16.8l1-18c43.7,1.4,86.9,9.6,130,16Z"/>
  <path class="st1" d="M94,715v-108.5s1-8.5,1-8.5c6.6.9,13.3,1.3,20,1l-1,116h-20Z"/>
  <path class="st1" d="M164.9,853.1c7.9,36.1,16.8,72,30,106.6.3,1.3-.6,1.6-1.5,2.1-4.5,2.5-12.9,3.4-17.7,6.2-10.4-26.6-18.9-55-25.1-83s-5-20.5-5.5-28.5.1-1.2,1.5-1.5c2.5-.5,17.2-2.6,18.4-1.9Z"/>
  <path class="st1" d="M363.6,1163.4c3.8,4.1,7.2,8.5,11.4,12.1-2,1.8-13.4,13.2-14.6,13.4s-4.5-2.5-5.4-3.4c-15-14.4-30.6-34-43.4-50.6-6.9-9.1-20.5-25.4-25.1-34.9s-.9-1.9-.4-2.9,15.9-9.2,16.9-8.7c15.8,21.1,31,42.8,48.5,62.6s8.2,8.2,12.1,12.4Z"/>
  <path class="st1" d="M1246.6,1093.4c1.6,1,3.4,3.6,6.4,4.1-18.8,28.7-40.1,56.3-64,81-3.3,3.4-7.8,6.8-10,10.5h-1.5c-1.8-4.3-11.5-9.9-13.1-13s-.7-1.2,0-2c25.8-27.1,50.7-55.3,70.6-87,.5-.4,10.3,5.5,11.6,6.4Z"/>
  <path class="st1" d="M1392,854c-1.7,15.9-5.4,31.7-9.3,47.2s-12.6,43.6-20.2,64.8c-4-3.2-18.6-3.7-18.6-9.4,11.8-34,21.7-68.9,27.1-104.5l21,2Z"/>
  <path class="st1" d="M665,266c-.3,6.4,2.2,12.7.6,19.1-1,1.4-25.9,2.5-30.1,2.9-29.8,3.2-59.4,8.3-88.9,13.1l-4.6-19.1c40.8-6.7,81.8-12.4,123-16Z"/>
  <path class="st1" d="M996,283l-4.5,19c-39.8-7.9-80.1-12.4-120.5-16,.2-2.9.6-17.7,1.9-18.6,41.1,2.3,82.3,8.8,123,15.6Z"/>
  <path class="st1" d="M495.6,1082.1c19.1,16.3,37.9,32.9,58.5,47.3,4,2.8,27.5,16.7,28.5,18.6s0,1.6-.5,2.6-9.3,13.5-10.1,14-.7.8-1.4.4c-31.4-20.1-61.4-42-89.1-67-2.3-3.7,12.2-12.9,14.2-15.9Z"/>
  <path class="st1" d="M1425.5,583c-.4,0-1.4,1.4-2.5,1-3.5-37-9.4-73.8-19.9-109.4.4-1.7,16.3-6.1,19.3-6.7,5.7,17.8,10.1,36.4,13.3,54.9,2.9,16.6,6.7,39.2,7.3,55.8,0,1.3-.2,4.4-1.5,4.4-5,0-11.3-.5-16,0Z"/>
  <path class="st1" d="M308.9,938.1c13.1,33.8,31.1,65.2,48.9,96.6.6,1.6-.4,1.1-1.1,1.6-2.1,1.4-15,9-16.1,8.6-8.8-13.5-17.2-27.9-24.8-42.3-6.7-12.7-23.5-43.2-26.4-55.6s-.6-2-.4-3.1c3.7,1,18-7.6,20-6Z"/>
  <path class="st1" d="M677.9,1232.1l-3.9,18.9c-37.3-9.2-74.4-26.4-107.7-45.7-.6-.4-2,0-1.3-1.7s7.8-10.5,9-12,2.9-3.5,4.3-3.4c31.5,18.2,64.6,33.6,99.6,44Z"/>
  <path class="st1" d="M1248.9,943.1c2.3,3.2-28.5,63.8-32.7,71.6s-13.5,25.5-17.2,28.8-1.5,1.8-3.3,1.3c-3.8-1-11-8-15.7-8.9,18.7-31.5,35.8-64,49.5-98,.7-1.2,1.6-1,2.7-.8s16.2,5.2,16.7,5.9Z"/>
  <path class="st1" d="M1045.3,1085.6c4.2,3.6,8.1,8,12.6,10.4.9,1.3-3.4,5-4.5,6-6.2,6-14.8,12.9-21.6,18.4-20.6,16.5-43.1,31.8-65.9,44.6,0-4.6-12.1-14-9.6-18,30.6-18.6,60.2-39.3,86.1-64h.9c.7.2,1.2,2,1.9,2.6Z"/>
  <path class="st1" d="M826,1166c-.3,3.6,5.4,16.7,3.9,18.9-40.3,9.9-81.8,10.4-122-.5l4.1-18.4c37.8,9.4,76.2,9,114,0Z"/>
  <path class="st1" d="M972,1205c-34.5,18.4-69.8,36.3-108,46.1l-3.9-18.9c24.1-7.7,47.6-17.1,70.3-28.2,10.3-5.1,20.2-12.1,31-15.8,1.7,2.4,12,14.9,10.6,16.9Z"/>
  <path class="st1" d="M490,151l4,19c-29.6,6.1-58.2,16.5-85.7,28.8-4.1,1.8-19.5,10.8-22,11s-1.6-.5-2.3-1.3-8.6-13.3-8.9-14.2c-.5-1.9.3-1.1,1.2-1.6,6.6-3.8,15.9-7.7,23-11,29.1-13.2,59.4-24,90.7-30.8Z"/>
  <path class="st1" d="M135,474c-8.6,35.8-16.8,72.1-19,109l-21-1c3.8-38.2,10.8-75.8,20-113l19.9,5Z"/>
  <path class="st1" d="M1444,598v116h-20v-115h16.5c.5,0,2.1-1.6,3.5-1Z"/>
  <path class="st1" d="M1163,193c1.2,1.8-8.7,13.8-9.5,17-35.3-17.5-72.1-31.2-110.5-40.5l5.1-17.4c40.1,7.3,78,24,114.9,41Z"/>
  <path class="st1" d="M115,731c.2,37.2,5.3,74.2,10,111l-19.9,1.9c-6.5-37.2-9.7-75-10.1-112.9h20Z"/>
  <path class="st1" d="M131,602.5c0-.4,1.1-2.5,1.7-2.6l19.3,2.1v113s-21,0-21,0v-112.5Z"/>
  <path class="st1" d="M1443,730c-.3,37.9-5.5,75.5-10,113l-21-2c5.5-36.7,10.4-73.8,11-111h20Z"/>
  <path class="st1" d="M369.9,220.9c-.7,1.2-19.8,12.7-23.2,15.3-20.8,15.4-41.3,34.2-59.2,52.8s-.8,4.2-4.4,2.5-12.2-9.8-12.6-10.5c-.7-1.5,4.6-7.5,6-9.1,7.3-8.3,19.1-19,27.5-26.5,17.2-15.3,36.1-29.2,55.4-41.5,1.8,2.5,11.8,14.6,10.5,16.9Z"/>
  <path class="st1" d="M1229.4,266.6c-12.3-11.3-24.9-22.1-38.5-32s-20.5-12.8-21.5-14.6c-1.4-2.6,8-12.7,9.5-15.6,34,18.8,64.3,45.5,90.1,74.1,0,1.5-13.5,12.6-14.4,12.4-8.3-8.2-16.6-16.4-25.3-24.3Z"/>
  <path class="st1" d="M668,301l2.1,20c-38.1,1.9-76,7.5-113.5,14.1-1.5-.2-1.7-.5-2.3-1.8s-3.9-16.6-3.2-17.3l116.9-15Z"/>
  <polygon class="st1" points="988 317 983 336 867 320.5 869 302 988 317"/>
  <path class="st1" d="M1407,600v114h-20v-111.5c0-.1,1.4-1.5,1.5-1.5h15c.5,0,2.1-1.6,3.5-1Z"/>
  <path class="st1" d="M203,848c6.2,34,16.5,67,27.9,99.5-.1,1.1-19,8.1-19.8,7.4-9-25.3-17.3-50.9-23.4-77.2-1.9-8.2-4.7-18.2-5.6-26.4s0-1.2,1.4-1.4c6.4-1,13-1.4,19.5-2Z"/>
  <path class="st1" d="M336,1068c.7,3.4,3.2,6.5,5.2,9.3,16.4,23.1,35,45,54.3,65.7,1.8,1.9,3.8,4.5,6.5,5,.4,1.5-.4,1.7-1,2.5-1.1,1.6-13.6,12.5-14.5,12.5s-1.5-.4-2-1c-24-25.7-46.4-52.8-66.3-81.8-.6-1.4,0-1.9.9-2.8s16.2-10.1,17-9.5Z"/>
  <path class="st1" d="M189,604l-1,111c-6.1.8-13.7-.6-20,0v-112l21,1Z"/>
  <path class="st1" d="M1137.1,1150.9c-.7-1.2.1-2.4.8-3.4,4.3-6.4,15-15.2,20.6-21.4,16-18.2,30.8-37.5,44.5-57.6l1.4-.3,16.2,9.9c2.2,3.8-47.9,63.5-54,70-2.4,2.5-12.7,13.6-14.5,14.5s-1,.5-2,0c-1.8-.9-7.8-8-10-10.1s-2.8-1.4-2.9-1.6Z"/>
  <path class="st1" d="M1407,729l-11,109c-5.8-.5-13.9,0-19.5-1s-1.2-2.9-.7-5.8c5.3-33.9,9.2-67.9,11.2-102.3h20Z"/>
  <path class="st1" d="M1355,849c-4.5,28.4-11.8,56.5-20.7,83.8-1.3,3.9-4.9,16.9-6.8,19.2s-1.4,1.1-2.8.9-15.4-5.2-16.1-5.7c-1.3-.9-.6-3.1-.4-4.4,3.6-15.4,11.6-33,15.9-49.1,4.1-15.3,7.5-31,9.9-46.6l21,2Z"/>
  <path class="st1" d="M1371,603v110h-20l-.9-107.4c.6-1.7,8.1-2.5,10.4-2.6,3.5-.2,7,.1,10.5,0Z"/>
  <path class="st1" d="M152,731c.3,35.3,5.7,70.4,10.1,105.4-.3,1.2-18.6,3.3-20.1,2.2-5.4-35.3-9.7-71.6-9.9-107.6h20Z"/>
  <path class="st1" d="M344,925c7,17,14.9,33.8,23.5,50,7.5,14.1,16.3,27.9,23.5,42-6.6,2.6-12.5,6.1-17.5,11-17.3-31.2-36.7-62.2-48.4-95.9l18.9-7.1Z"/>
  <path class="st1" d="M1166.8,1025.8c-2.3,1.3-14.7-6.9-17.5-8.6s-1.9.2-1.2-1.6,4.6-6.4,6.1-8.9c15.6-26.5,28.9-54.4,40.8-82.7,4.1,2.3,14.8,4.1,18,6.5s1.2.9.9,1.8c-10.5,24.6-21.6,49-34.7,72.4s-11.3,20.5-12.3,21.2Z"/>
  <path class="st1" d="M300,713c-2.7,2.4-16.7.3-21,1v-104l21,1c0,1.7,0,3.3,0,5,1.5,31.9-1.1,65,0,97Z"/>
  <rect class="st1" x="205" y="606" width="20" height="108"/>
  <polygon class="st1" points="1334 605 1334 713 1314 713 1314 606 1334 605"/>
  <path class="st1" d="M1370,729c-1.6,35-5.1,70.3-11.9,104.6-2.2,1.6-16.5-1.5-20.1-2.1,2.4-17.4,6-34.5,8-52,2-16.7,3-33.7,4-50.5h20Z"/>
  <rect class="st1" x="242" y="608" width="20" height="106"/>
  <path class="st1" d="M1406,585l-20,1c-2.3-34-9.2-67.6-18-100.5l18.6-6.4c1.7.2,8.1,28.9,9,32.8,5.1,23.8,9,48.7,10.5,73Z"/>
  <path class="st1" d="M171,486.1c-8.7,32.8-16.2,66-19,99.9l-20-1c3-35.5,10.4-70.5,19-105l20,6.1Z"/>
  <path class="st1" d="M672,336l1.9,18.4c-.6,2.7-11.4,1.4-14.4,1.6-32.2,2.4-64.3,7.3-95.9,13-.9,0-4.5-15.7-4.5-16.6s.4-1.9,1.6-2.2c36.9-6.3,74-10.7,111.3-14.2Z"/>
  <path class="st1" d="M200,832l-21,3c-5.5-34.5-8.8-69.1-11-104,4.8-.1,9.7.1,14.5,0s4.2-1.1,4.9-.9c2.7.6,1.4,11.4,1.6,14.4,1.9,29.3,5.6,58.7,11,87.5Z"/>
  <path class="st1" d="M337,713c-7,.3-14.2-.9-21,1,.4-34-1-68.1,1-102l20,1c0,2.3,0,4.7,0,7,.9,30.9-.7,62.1,0,93Z"/>
  <path class="st1" d="M1297,607v105c-5.1,2.1-13.8-1.2-20,0v-102.5c0-.6,1.7-1.5,2.5-1.5,5.8.9,12.1-1,17.5-1Z"/>
  <path class="st1" d="M239.9,843.1l26.1,90.5c.2,1.2,0,2.1-1,2.9s-16.5,5.7-17.4,5.4c-1.8-.6-11.5-30.7-12.9-35.2-6.2-20.2-11.6-41-14.7-61.8l19.9-1.9Z"/>
  <path class="st1" d="M412.1,1136.9c-.2,0-.8-2.1-1.6-2.9-21.5-22.2-43.5-47.7-60.6-73.5s-1.6-.7,0-2,15.7-9.3,16.6-9.4,1-.2,1.4.3c14.2,20.5,29.7,40.2,46.5,58.6s12.8,11.4,14.1,14-3,5.1-4.5,6.5-10.1,9.4-11.9,8.3Z"/>
  <path class="st1" d="M1203,616c.2-.9-.7-2.7.6-3,2.6-.7,16.6-1.6,18.8-1,1.5,2,1.5,5.1,1.7,7.5,1.3,25,1.6,60.2,0,85.1s-1,4.9-1.1,7.4c-3.7-.4-18.3-.3-19.9-1.9v-94Z"/>
  <path class="st1" d="M855,1216l-4-20c25.5-7.1,49.6-18.4,73-30.5,2.5-1.3,13.3-8.2,14.7-8.4s11.9,13.8,12.2,15.5-7.3,5.4-9.2,6.5c-27.2,15.6-56.6,28-86.7,36.8Z"/>
  <path class="st1" d="M1177.9,918.1c1.1,1.8-2.5,9.5-3.4,11.8-10.8,26.6-25.7,51.8-39.6,76.9-1.9,1.3-11.5-4.9-14.2-6.1s-6.3.3-5-4.5c16.8-26.8,31.9-54.7,43.3-84.2.8-.6,18.3,5.2,18.8,6.1Z"/>
  <path class="st1" d="M380,912c11,29.4,26.7,56.9,42.9,83.7.4,1.3,0,1.9-.8,2.8s-13.9,8.2-14.7,8.4-2,.2-2.8-.9c-16.8-27.2-31.5-55.5-44.4-84.7-.4-1.2-.2-2,.8-2.8,2.8-2.2,15-4.3,19-6.5Z"/>
  <path class="st1" d="M979,351l-4,18c-36.7-5.9-73.7-11.6-111-13,.9-2.7,1-18.8,2.6-19.1l112.4,14.1Z"/>
  <path class="st1" d="M498,185l5,17.9c-33.4,8.9-66.7,19.5-96.6,36.9h-1.3c-1.9-5-8.1-10.7-9.9-15.5s.5-1.2,1.2-1.6c30.6-17.5,67.5-29.2,101.7-37.8Z"/>
  <path class="st1" d="M1110.1,1124.9c-.6-1,0-2.6.8-3.4,22-22.3,42.2-46.3,60-72l1.4-.3c2.6,2.6,15.7,8.2,15.7,11.4s-19.6,27.7-22.6,31.4c-12.2,15.4-25.9,29.5-38.9,44.1-3.9,2.6-10.3-6.5-13.5-9.6s-2.8-1.4-2.9-1.6Z"/>
  <path class="st1" d="M1318,844c-5.1,32.9-15.7,64.5-26,96-1.1,1-18.1-4.5-19.9-6.6-.7-2.1,4.9-14.5,5.9-17.8,7.7-24.1,14.6-48.6,19-73.5l21,2Z"/>
  <path class="st1" d="M1209.7,270.3l32.3,31.2c-4.1,5.4-10.6,8.1-14.5,13.5-23.2-24-48.2-46.7-77-63.9-1.2-.9-1.7-1.8-1.3-3.3s8.3-13.2,9-13.6,2,0,2.9.3c4.3,1.5,18.3,11.8,22.9,15.1,8.8,6.5,16.9,14.3,25.7,20.8Z"/>
  <path class="st1" d="M687,1196l-4,20c-33.8-9.1-66-24.4-95.9-42.5l11-16.4h1.2c27.5,16.3,56.5,30.8,87.7,38.9Z"/>
  <path class="st1" d="M1133.9,238.9c-32-14.2-64.6-27.4-98.9-35l4-18c36.1,7.4,71.8,20,103.9,37.6l-9,15.3Z"/>
  <path class="st1" d="M315.4,284.4c19-18.8,40.6-34.9,62.6-50,1.2-.6,1.7-.2,2.6.5s8.9,12.3,9.1,13.1c.3,1.2.6,1.7-.6,2.5-27.6,18.4-53.4,39.8-75.6,64.5l-2.4-.4-13-12c6.3-5.5,11.4-12.4,17.3-18.2Z"/>
  <path class="st1" d="M1332.9,729.1c-.3,33.6-6.3,66.7-10.9,99.9l-21-2c5.7-32.2,10.8-64.5,12.1-97.3l.8-1.2c1.5-1,17.9-.6,19,.7Z"/>
  <path class="st1" d="M1260,610v102h-20v-101c6.6-1.2,13.3-1.1,20-1Z"/>
  <path class="st1" d="M225,730c2,32.9,6.5,65.5,12,98-6.4-1-13.3,2-19.5,2s-1.2,0-1.5-1.5c-5.6-32.6-9-65.5-11-98.5h20Z"/>
  <path class="st1" d="M1297,728c-2.2,26.1-4.6,52.4-9.3,78.2-.5,2.5-2.6,16.2-3.1,16.9-1.6,2.4-20.5-.6-20.6-1.6,5.4-30.9,11-62,12.1-93.4h21Z"/>
  <path class="st1" d="M263,730c.8,31.2,6.1,62.2,11,93l-21,2c-4.5-31.6-9.5-63.1-11-95h21Z"/>
  <path class="st1" d="M458,980c-4.1-.7-16.4,10.2-19,8.6s-9.5-14.1-10.8-16.3c-3.3-5.3-6.7-11.7-9.7-17.3s-24-46.8-22.4-49c4.3-.2,16.5-7.9,19.5-5.1,12.5,27.2,26.1,53.9,42.5,79Z"/>
  <path class="st1" d="M205.9,497.1c-3.1,18.7-9.3,36.9-12.6,55.7s-3.5,24.1-4.3,36.2l-19.9-2.1c2.1-32.2,9.1-64,17.9-94.9l18.9,5Z"/>
  <path class="st1" d="M1143,905c.3,1.4,0,2.7-.4,4-2.6,8.8-11,24.8-15.4,33.7-8,16.1-17.8,31.4-26.2,47.3l-17.9-9.1,40.9-81.9,18.9,6Z"/>
  <path class="st1" d="M1352,491c8.8,31.4,15.1,63.5,18,96l-20,1c-2.5-30.9-10-61-16.9-90.9l18.9-6.1Z"/>
  <path class="st1" d="M278,838.1c5.3,28.9,14.8,56.7,24.1,84.5.3,2-.4,1.2-1.4,1.6-5.4,2-11.8,3-17.1,5.9-2.2.3-1.1-.3-1.6-1.4-4.1-10.3-8.1-23.8-11.4-34.6-5.4-17.6-9.8-35.5-13.5-53.5,7.1-.3,13.9-3.1,21-2.5Z"/>
  <path class="st1" d="M400.9,1030.1c.3.2.5,2.4,1.2,3.3,10.9,14,21.6,28.4,33.4,41.7,3,3.4,20,19.3,20.4,21.6s-12.8,11.5-14.4,14.3c-15.8-16.1-32.5-32.8-45.9-51.1-2.1-2.9-13.7-18.6-12.5-20.8s16.4-10.1,17.8-9.1Z"/>
  <path class="st1" d="M1281,840c-5.6,30-14.9,59.2-25.1,87.9-1.8,1.2-16.6-5.6-19.9-5.9,9.7-27.8,18.3-56,24.1-84.9l20.9,2.9Z"/>
  <path class="st1" d="M104.9,446.9c-1.3,1.1-16.9-3.8-19.5-4.8s-1.6.7-1.4-1.5c3.8-12.2,8-24.2,13.1-35.9s11-24.2,16.7-34.3,4.4-9.6,7.4-9.2,15,7.7,15.7,8.4,1.3.8.9,1.8c-12.8,24.3-24.7,49.3-32.9,75.6Z"/>
  <path class="st1" d="M353,615.5c.8-2.6,5.3-.5,7.5-.5,4.2.1,8.4-.2,12.5,0v98h-20v-97.5Z"/>
  <path class="st1" d="M1155.9,1039.1c1.3,1.8-3.9,8.4-5.1,10.2-10.2,15.2-25.7,33.4-38.3,46.7-2.4,2.5-12.7,13.6-14.5,14.5s-1,.5-2,0c-3.8-1.9-9.1-11-14-13.1l28.5-30.5,28.5-36.6c2.2-1.2,13.2,8.3,16.9,8.7Z"/>
  <path class="st1" d="M1260,728l-12,91-21-2c2.5-16.9,6.6-33.7,8.9-50.6,1.7-12.9,1.9-26.4,4.1-38.9,6.7-1.6,13.3,1.5,20.1.6Z"/>
  <path class="st1" d="M1455,441c-5.6.7-13.6,5.3-18.8,5.9s-2,.4-2.7-.8c-8.6-26.8-21.3-51.8-33.5-77,5.8-.7,12-7.4,17-8.6s1.7-.7,2.5.6c13.4,26,26.1,52.3,35.5,80Z"/>
  <path class="st1" d="M300,729c2,29.9,5.2,59.8,12,89l-20.9,1.9c-5.8-29.2-9.6-58.9-11.9-88.7-.4-.8,1-2.3,1.3-2.3h19.5Z"/>
  <path class="st1" d="M1193.6,304.4c7,6.4,13.6,13.3,20.4,20.1l-15.3,12.4c-14.4-14.4-29.1-28.5-45.3-40.7-6.3-4.7-18.9-11.6-23.7-16.3s-1.8-.6-1.6-2.2,10.2-14.7,11.2-14.6c19.3,12.1,37.5,25.9,54.2,41.3Z"/>
  <path class="st1" d="M355.6,323.6c-1.1,1-2.5,1.7-3.7,2.8-2.7,2.6-8.4,11.1-11.5,11.6s-11.7-10.6-14.3-11.2v-2.7c19.8-18.7,39.2-38.3,62.1-53.4,2.3-1.5,9.7-7.3,11.7-6.3s9.1,11.5,9.5,12.6.9,1.9,0,3c-19.7,12.3-37.1,27.6-53.9,43.6Z"/>
  <path class="st1" d="M1187,614v97l-20-1c2.3-31.6.4-63.4,0-95l20-1Z"/>
  <path class="st1" d="M1114,269c-1,.9-17.5-7.9-20.3-9.2-21.7-9.5-44.5-17.3-67.7-21.8l4-18c22.1,3.8,44.3,10.9,64.9,19.5,6.9,2.9,16.3,6.7,22.7,10.3s5.5,2.8,5.2,4.5c-.4,2.9-9.3,10.5-8.9,14.7Z"/>
  <path class="st1" d="M506.9,219c.6,2.9,5.8,16.5,3.5,18.1-22.7,5.6-44.8,13.1-66.1,22.7-3.4,1.5-16,8.9-18,9.1s-8.1-12.7-11.3-14.4c-.6-1.5,3.1-2.9,4.3-3.6,3.4-2,7.7-3.9,11.3-5.7,24.1-11.8,49.9-20.7,76.3-26.1Z"/>
  <path class="st1" d="M1223,727c-2.1,28.7-7,57-12.2,85.3-.3,1.3-1.1,1.6-2.3,1.8-2,.2-14.2-1.5-16.9-2.1s-2.2-.4-2.4-1.5,4.9-21.4,5.6-25.2c3.5-19.2,6.8-38.6,7.3-58.2h21Z"/>
  <path class="st1" d="M337,729l12.1,82.4c-.4,1.9-18,3.2-21.1,3.6-4.5-28.5-10.5-57-11-86h20Z"/>
  <path class="st1" d="M930,1144c-27.5,13-53.9,29.7-84,36l-4-19c20.5-5.7,40-15,58.9-24.6s14-8.8,15.9-9.2,1.7,0,2.7.9,11.1,15.2,10.5,16Z"/>
  <path class="st1" d="M316,833c4.5,26.6,14.1,51.8,22.1,77.4l-19.4,6.6c-9.9-26.2-18-53.1-23.6-80.6-.2-2.1.2-1.3,1.5-1.5,6.4-.9,13.1-1.3,19.5-2Z"/>
  <path class="st1" d="M242,509c-7.2,26.9-14,54.1-16,82-6.6-1.2-13.3-1.1-20-1,1.2-29.6,9.3-58.3,16-87l20,6Z"/>
  <path class="st1" d="M1244,835c-7,27.2-13.5,54.9-24.2,80.9l-19.8-5.9c9.2-25.5,17.3-51.4,23.1-77.9l20.9,2.9Z"/>
  <path class="st1" d="M696,1161l-5.1,18.9c-25-5.5-47.9-18.1-70.6-29.7l-12.3-7.7,11.6-15.6c24.4,13.5,49.1,27.3,76.4,34.1Z"/>
  <path class="st1" d="M1123.9,1020.1c.5,1.6-.4,2.9-1.1,4.3-5.3,10.3-25.7,33.4-34.3,42.7s-16,16.8-17.5,17.5-1.6.6-3,0c-3.1-1.4-8.3-9.9-12.6-11.5l50.6-61.6c3.2-1.7,13.7,8.1,17.9,8.6Z"/>
  <path class="st1" d="M1317,503c7.3,28,14,56.4,16.1,85.4-.7,2.4-17,1.4-20.1,1.6-1.8-27.8-8.8-55-15-82l19-5Z"/>
  <path class="st1" d="M433,1010c13.6,21.1,30.8,39.5,47.5,58s2.2.8,2.4,1.1c2,3.3-12.7,12.5-14.4,15.9-11.7-11.9-23.4-24-34-37s-18.3-22.6-19.3-25.7-.5-1.8-.2-2.2c.4-.6,11.2-5.9,13.3-7.2s2.6-3.1,4.7-2.8Z"/>
  <polygon class="st1" points="1186 726 1173 809 1153 806 1166.1 725.1 1186 726"/>
  <path class="st1" d="M430,310c-.1.2-2.3.3-3.3,1-8.9,6.7-18.6,13.7-27.2,21-10.6,9-20.5,19.1-30.1,29-2.6,0-12.4-9.7-15.4-11.7,18.4-21.9,41.1-39.9,64.6-56.3,2-.3,12.5,15.3,11.3,16.9Z"/>
  <path class="st1" d="M1153,394c4-.2,14.2-12.2,17-10.6,10.7,13.4,21.6,26.7,30.8,41.3,3.7,5.9,10.7,16.7,13.2,22.8s1.6,1.4.5,2.6l-17.6,9.6c-8.2-13.4-15.7-27.4-24.8-40.3-5.5-7.9-13-15.2-18.2-22.8s-1.4-1-1-2.5Z"/>
  <path class="st1" d="M139.9,458.9c-.9.6-18.3-5.1-18.8-6.6v-1.8c9-24.8,19-49.4,31.5-72.6,3,1.7,17.6,7,17.3,10.3l-29.9,70.6Z"/>
  <path class="st1" d="M1153.6,317.4c4.6,3.8,30.3,25.7,31.3,29.3s0,1.8-.9,2.8c-1.5,1.7-12.6,9.9-14.3,9.4s-13.1-13.1-15.7-15.4c-14.4-13.1-30.2-24.3-45.8-36,2.7-5.6,8-9.4,9.8-15.5h1.4c11.5,8.4,23.1,16.4,34.1,25.4Z"/>
  <path class="st1" d="M371.9,384.1c0,0,0,1.3.8,1.9,1.8,1.4,13.2,9.4,13.2,10.5-16.1,20.1-32,41.1-43,64.5-2.1-1.5-17.3-8.3-17.9-9.1s0-2.8.3-3.9c2.9-8.5,20-32.6,26.1-40.9s17.6-22.5,19-23.1c.5,0,1-.2,1.4,0Z"/>
  <path class="st1" d="M374,728c2,26.5,6.2,53.3,13,79l-21,3c-5.6-27-10.1-54.4-12-82h20Z"/>
  <path class="st1" d="M1398.1,457.9c-5.2-16-11.2-32-18.2-47.3s-11.7-20.9-11.9-23.2,0-.8.2-1.3c.5-.8,15.6-8.9,16.5-9,1.4-.2,1.6.6,2.2,1.5,11.6,23.7,22.3,47.9,31,72.9-.1,1.3-18.6,7.4-19.8,6.4Z"/>
  <path class="st1" d="M1103,282c1.3,1.9-8.8,13.6-9.9,16.5-.4.5-.8.4-1.4.3-1.1-.2-12.3-6.9-15-8.1-18.6-8.1-38.2-13.8-57.7-19.3-3.1-2.2,3.5-14.8,3-18.5,28.2,6,55.2,16.3,81,29Z"/>
  <path class="st1" d="M515.9,253.1l4,17.9c-21.1,4.9-41.7,12.2-61.3,21.2-2.2,1-11.6,6.7-12.3,6.8-2.4.2-8.2-12.7-11.3-14.5-.4-1.6,3.5-3.5,4.7-4.2,4.1-2.5,9.5-5,13.9-7.1,19.4-9.1,41.2-16.5,62.3-20.1Z"/>
  <path class="st1" d="M353,827l21,70.5-19.4,6.6c-10-23.7-16.2-48.7-22.6-73.6l21-3.5Z"/>
  <path class="st1" d="M1206,829c.9.9-4.7,22-5.5,25-1.5,5.7-13.5,47.5-15.6,48.9s-15-5.3-18.9-5.4l20.1-70.4,19.9,1.9Z"/>
  <path class="st1" d="M1281.9,515.1c6.9,25.1,13.2,50.9,14.1,76.9l-20,1c-1.7-22-6.2-43.7-11.5-65s-3.5-5.7-1.6-7.5,18.2-6.2,19-5.4Z"/>
  <path class="st1" d="M276.9,521.1l-14,71.8-20-.9c1.6-26.2,7.7-51.9,15-77l18.9,6.1Z"/>
  <path class="st1" d="M1353.9,395.1c5.9,13.7,13,27,18.6,40.9s9.6,23.9,9.5,26.6-.6,1.6-1.7,2.3c-3.8,2.2-11.6,3-15.9,5.2l-29.4-66.5c3.4-1.3,16.2-10.1,18.9-8.4Z"/>
  <path class="st1" d="M1141,405c7,11,15.9,20.6,23,31.5,6.4,9.7,11.6,20.4,17.9,30.2.4,1.3-.7,1.6-1.5,2.2-1.2.9-13.3,7.8-14.1,8-1.2.3-2,.3-2.8-.8-10.7-20.6-24.2-39.4-38.4-57.7-.4-.9-.2-1.5.3-2.3,1.7-2.7,11.9-7.2,14.1-11h1.5Z"/>
  <path class="st1" d="M176,471c-3.5-1.7-15.8-3.9-18-5.5s-1.2-1.7-1-2.9c4.6-14,9.8-27.8,15.8-41.3s7.9-18,12-25.1-.2-1.9,1.6-1.2,15,7.8,15.6,8.4,1.1.9.9,1.8c-10.2,21.3-20.1,43-26.9,65.7Z"/>
  <path class="st1" d="M415,418l-28,39.5c-3.4,6.8-9.3,13.1-11,20.5-2,1.8-15.5-7.9-18.5-8.9,10.7-22.3,25.8-42.2,40.7-61.9,2.7-1.6,13.3,10.4,16.9,10.9Z"/>
  <path class="st1" d="M398,385h-1.5c-1.1-4.6-13.1-10.1-14.3-12.2s1.7-2.9,2.9-4.3c8-8.8,17.3-17.9,26.5-25.5s25.3-19.6,27.2-19.9,1.4-.1,2.3.3c1.4.7,10.4,14.2,9.6,15.6-18.5,12.5-35.7,26.9-51.1,43s-1.4,1.8-1.5,3Z"/>
  <path class="st1" d="M1139.6,352.4c2.3,2.1,17.1,16,17.3,17.2s-13.1,11.3-15.3,13.3c-14.3-15.3-29.7-28.2-46.7-40.3s-6.6-3.4-6.8-3.7c-1.1-1.8,9.5-16.9,11.2-16.8s20.6,14.2,23.6,16.5c5.7,4.4,11.4,9,16.7,13.8Z"/>
  <path class="st1" d="M391,822.1l19,62.9c-4.9.5-14.1,6.4-18.5,6.1s-1.6-.6-2.3-1.7c-2.1-3.4-5.4-14.6-6.9-19.1-4.8-14.6-8.5-29.8-12.3-44.7-.1-2.1,0-1.3,1.5-1.5,2.5-.4,18.8-2.6,19.5-2Z"/>
  <path class="st1" d="M1169,824c-4.6,22.9-11.8,45.2-20,67l-18.9-6,18.5-63c2.2-2.9,16.7,2,20.5,2Z"/>
  <path class="st1" d="M192,477l25.1-63.9c1.6-1,16.5,5.9,17.9,7.4s1.4,1.4.8,2.7l-24.3,57.8c-3,3.2-15.1-4.4-19.5-4Z"/>
  <path class="st1" d="M1321,411l26,63.6c.3,1.9-.3,1.2-1.3,1.7-1.5.8-15.4,5.8-16.3,5.8-1.5,0-1.6-.6-2.3-1.7-2.2-3.7-4.5-13.7-6.4-18.6-4.5-11.3-10.7-29.1-16.8-39s-3.9-.8-1.4-2.8l18.4-8.9Z"/>
  <path class="st1" d="M455,312c21.7-10.8,44.1-19.9,67.7-25.9,1.3-.3,1.6.6,2.1,1.6.7,1.6,4,13.5,4,15s-.4,1.7-1.5,2.1c-21,5.7-41.3,13.8-60.9,23.2-2.3,0-3.2-3.8-4.9-5.1l-6.6-10.9Z"/>
  <path class="st1" d="M1339.8,245.2l39.1,51.3c-2.8,2-16.3,11.8-18.8,10.3l-37.8-48.8c-.5-1.1.5-1.4,1.1-2,1-1,11.8-10.1,12.5-10.5,1.1-.6,2.6-1,3.8-.3Z"/>
  <path class="st1" d="M1009.1,304.9c-.5-.7,3.1-14.5,3.8-16.5s-.6-1.6,1.5-1.4c8.6.9,26.1,7.1,34.8,10.2s33.3,13.4,33.7,15.3c-1.5,2.7-9.4,15.4-11.4,15.4-20-9.9-41-17.3-62.5-23.1Z"/>
  <path class="st1" d="M1246,526c6.9,22.1,11,45,14,68l-21,1c-2.1-21.1-6.3-42-12.1-62.4l19.1-6.6Z"/>
  <path class="st1" d="M200.5,246c3,4,12,8.1,14.6,11.4s1.1,1.4.5,2.6l-37.3,47.9c-.9.3-1.7.1-2.6,0-1.7-.4-15.9-9.7-15.7-11.2l40.4-50.6Z"/>
  <path class="st1" d="M313,533c-5.3,17.5-8.9,35.5-11.9,53.6s2.3,8.5-5.6,8.5-10.2-2-15.5-1.1c1.8-22.8,7.3-45,13-67l20,6Z"/>
  <path class="st1" d="M1312,488l-20,6-21.9-56.9c4.5-.5,13.2-7.6,16.6-8s1.3,0,1.8.9l23.5,58Z"/>
  <path class="st1" d="M1149,486c-3.8.3-14.2,9.6-17,7.6s-2.9-6.6-3.8-8.2c-8.7-15.5-18.8-31.1-30.7-44.3-.5-.8-.9-1.9-.4-2.9s12-7.6,13.4-10.1l1.4.4c8.6,10.9,17.1,21.9,24.4,33.6s13.5,22.5,12.5,23.9Z"/>
  <path class="st1" d="M246.9,493.9c-1.4,1-19.7-5.4-19.9-6.4l24.5-58.5,16.5,8.5,1,1.9-22.1,54.5Z"/>
  <path class="st1" d="M441.9,439.1c1.2,2-6.5,9.6-8.2,12-10.2,13.8-19.1,28.5-26.6,43.9-1.7,1.2-13.9-8.3-17-8-.3-1.4.2-2.5.8-3.7,4.3-10.2,18.3-30.3,25.4-39.6,2.1-2.7,9.9-14.4,13.1-13.6s12.2,8.3,12.6,9Z"/>
  <path class="st1" d="M470.9,368.9c-16.4,10.5-31.8,23.2-44.4,38.1l-15.4-12.5c14-16.4,31-30,48.6-42.4,1.4-.4,1.6.9,2.2,1.5,1.6,1.8,10,13.6,9,15.2Z"/>
  <path class="st1" d="M1119.7,383.3c1.2,1.2,8.5,9.5,8.4,10.1l-15.4,11.4c-13.3-13.6-27.8-25.8-43.7-36.3-3.1-4,7.9-11.6,8.1-16.5,1.8-1.3,19,11.4,21.9,13.6,6.5,5,15.1,12,20.7,17.8Z"/>
  <path class="st1" d="M210,328c-1,.7-5.4-3.4-7.1-4.4-3.2-1.9-6.6-3.2-9.7-5.3s-1.7.2-1.1-1.6l36-46.5c.7-.4,1.5-.2,2.2,0s12.8,10.1,13.2,10.8.7,1.4.3,2.3l-33.9,44.7Z"/>
  <path class="st1" d="M1310.9,269.1l36,46.5-5.2,5c-3.1.2-10.1,6.7-12.5,5.2-9.1-16.1-22.3-29.4-34-43.6-.4-1.2,0-1.9.8-2.9s11.4-9.6,12.1-9.9,2-.9,2.9-.4Z"/>
  <path class="st1" d="M349,545l-11,53-20-1c-2.4-2.4,7.9-50.4,10.5-57,.7-1.2,1.6-1,2.7-.8,5,.6,12.3,5.2,17.8,5.9Z"/>
  <path class="st1" d="M1211,538l12,58c-6.7,1.3-13.5,1-20.4,1.1l-11.6-53,20-6Z"/>
  <path class="st1" d="M1063,341c.7.8-8.6,16.9-11.5,17s-14.1-6.5-17.3-7.7c-10.6-4.1-21.6-7.4-32.6-10.4-1.2-.4-1.6-1-1.6-2.2-.1-4.4,4.4-11.6,4-16.6,20.7,2.9,39.5,12.9,59,20Z"/>
  <path class="st1" d="M303,456c-5.6,5.3-18.7,48-21,49.5s-15.4-4.9-19-5.7l19.9-52.9c1.5-1.3,16.9,8.2,20,9Z"/>
  <path class="st1" d="M1256,446l20.1,52.5c.2,1.5-.4,1.3-1.3,1.8-4.3,2-11.6,2.9-16.3,4.8l-21.4-49.4c.4-2.1,17.9-10.6,18.9-9.6Z"/>
  <path class="st1" d="M532.9,320l5.1,18.9c-8.4,1.9-16.9,4.5-25,7.5s-25,11.5-26.6,11.5-10-12.4-10.3-13.7-.3-1.1,0-1.7c1.3-4.3,49.3-21.8,56.9-22.6Z"/>
  <path class="st1" d="M1315.9,335.9c-3.2.6-16.1,10.3-17.9,9.1-.2-1.4-.7-2.8-1.6-3.9-9-11.6-18-23.2-27.9-34.1-.8-1.2-1.9-2.3-1.1-3.9s12.6-11.5,14.5-10.6,14.4,15.9,17,19.1,17.9,23,17,24.4Z"/>
  <polygon class="st1" points="241 347 223.1 335.5 257 293.5 259.3 293.1 273 305.4 241 347"/>
  <path class="st1" d="M1109,893c-11.3,26.7-25.2,52.4-40.5,77-.8,1.2-1.3,1-2.5.6s-11.8-6.5-12-7.2l48.9-70c1.8-2.4,3.7-.9,6-.4Z"/>
  <path class="st1" d="M1223,464l18.1,46.3c-.2.9-16.7,6.6-17.6,6.6s-1.9-.5-2.3-1.7l-16.2-40.9c-.1-.9.4-1.4,1-2,1.2-1.3,16.1-9.1,17-8.5Z"/>
  <path class="st1" d="M335,474l-17.1,43.9c-1.8,1.3-16.4-5.8-19.9-5.9l18-47c1.6-1.4,15.5,8.9,19,9Z"/>
  <path class="st1" d="M300.9,326.1c.5.9.1,2-.4,2.8l-28.5,35.6c-1.1.8-1.8.4-2.9,0-4.2-1.6-10.4-8-15-10l32.5-39.5c1.4,3.5,13.5,9.7,14.4,11.1Z"/>
  <path class="st1" d="M1285,355c-4.1.3-14.4,10.9-18,8.6l-29-37.1c3.1-1.5,13.4-12.4,16-11.1s5.3,5.3,6.5,6.6c2.8,3,25.7,31.4,24.5,33Z"/>
  <path class="st1" d="M435.9,892.1c6.3,10.3,13.2,20.4,20.3,30.2s30.3,39.6,28.8,41.7l-14,7c0-1.3-.3-2.4-1-3.5-12.6-21.6-26.3-42.7-36.2-65.8s-5.8-10,2-9.6Z"/>
  <path class="st1" d="M1185,599l-20,1-7.9-44.9c4.8-.4,11.3-4.5,15.6-4.9s2-.4,2.8.8l9.5,48Z"/>
  <path class="st1" d="M1057.1,381.1c2.5-1.7,39.6,28.7,42,34.5,0,2-11.4,9.1-13.6,11.3-11.4-11.3-22.9-22.9-37.1-30.8l8.6-15Z"/>
  <path class="st1" d="M384,556l-10.1,43.8-18.9-.9,9-48c7-.6,13.3,3.6,20,5Z"/>
  <path class="st1" d="M490,397c-14,6.8-25.2,19.4-36.6,29.9-2.4.5-11.8-8.6-14.3-10.3,7-7,13.9-14.2,21.5-20.5s16.5-13.2,19.2-13.9,1.8-.1,2.8.8,8,13.3,7.5,14Z"/>
  <path class="st1" d="M874,58c.6.6-.7,15.6-1,17.5s-.4,2-1.6,2.4l-44.4-1.9,1-20,46,2Z"/>
  <path class="st1" d="M1226.9,338.1l26,33.6c.2.7.4,1.4,0,2.1s-13.8,8.8-14.6,9c-1.2.3-2,.2-2.8-.9l-24.4-31.7c-.6-1.4,0-1.9.9-2.8,1.6-1.8,13.1-10.4,14.8-9.4Z"/>
  <path class="st1" d="M353.9,529.9c-1.2,1-17.4-5.4-20-6.5l16.6-40.4c2.9,2.1,17.5,7.7,17.5,10.4l-14.1,36.5Z"/>
  <polygon class="st1" points="709 56 710 75 665 77 663 58 709 56"/>
  <path class="st1" d="M1206,523l-19.9,6c-.1-5.4-15-35.8-13.6-38s16.4-9.4,17.6-8.6l16,40.6Z"/>
  <path class="st1" d="M328.9,349.1c.5.9.1,2-.4,2.9l-26.1,32-16.4-10.5,27.6-34.4c1.1-.3,14.8,9.3,15.2,10.1Z"/>
  <path class="st1" d="M1044,372l-9.6,15.1-43.4-15.7,4.6-16.5c16.9,3.3,32.7,10.4,48.4,17.1Z"/>
  <path class="st1" d="M547,372l-42.4,14.9-9.6-14.3c.3-1.6,18.8-9.2,21.7-10.3s20.5-7.5,23.8-7.3,5.1,13.8,6.5,17Z"/>
  <polygon class="st1" points="871 93 870 112 825 110 826 91 871 93"/>
  <path class="st1" d="M712,91c-1.3,3.7,2.6,16.7,0,18.6s-38.3.5-44.1,1.4l-1-18,45-2Z"/>
  <polygon class="st1" points="868 128 867 146 822 144 823 126 868 128"/>
  <polygon class="st1" points="714 125 715 144 671 146 670 127 714 125"/>
  <path class="st1" d="M863,181l-43-2.4c-2.5-1.7,2.5-15,1-18.6l43.1,2.5c1.9,1.3-1,15.3-1.1,18.5Z"/>
  <path class="st1" d="M718,178l-44,2c1.5-4.7-1.9-13.7-1-17.3s3.4-1.6,4.5-1.7c10.6-.9,21.4-.7,32.1-1,3.1,0,6.7-2.8,7.5,1.5s-.9,11.3,1,16.5Z"/>
  <path class="st1" d="M860.9,197.1l-.9,17.9-43-2c1.4-3.6-.2-17.9,2.6-18.9l41.2,3Z"/>
  <path class="st1" d="M1223,393c-3.4-.3-16.5,11-18,10l-23-32c4.6-.9,9.7-8,13-9.6s1.6-.6,3,0c2.3,1.1,12.7,14.1,15,17.1l10,14.4Z"/>
  <path class="st1" d="M356.9,372.1c.5.9.1,2-.4,2.9-4.5,4.8-8.8,9.9-12.9,15.1s-8.1,12.4-8.7,12.8c-2.1,1.2-10.9-5.6-13.2-7.1s-6.2-1.1-4.2-4.8l25-30,14.4,11.1Z"/>
  <path class="st1" d="M719,194c-.5,5.3.3,10.5.8,15.8s.5,2-.7,2.7c-3.3,2.1-34.7-.4-41,2.5l-2-19,43-2Z"/>
  <path class="st1" d="M1170,534.9l-18,6.1-13-33c5.2-1.9,10.5-5.9,15.4-8.1s1.5-1.7,2.6-.5c1.7,4.5,14.5,33.3,12.9,35.5Z"/>
  <path class="st1" d="M400,508l-12.1,32.9c-2.4,1.7-15.2-5.6-18.9-4.9l14-36c.8-.6,13.9,8.9,17,8Z"/>
  <path class="st2" d="M808.7,827.3l55.9,55.7c.7,1,.6,1.9,0,3-.8,1.5-12.5,9.8-12.5,11.5,1.8,2.1,11.5,10.7,11,12.9l-71.1,67.1c-2.1.7-7.6-3.5-10.5-4.5-7.3-2.5-13-2.6-20.5-.6s-9.7,5-12.2,4.4l-71.3-66.8c-1.7-3.3,10.6-10.2,10.6-12.5-1.1-4.2-12.9-11.2-12-14.8,13.3-13.8,27.4-26.6,40.9-40.2s17.8-19.9,20-21c8.5-4.2,34.7-5.3,44.4-4.5,9.8.8,20.3,2.9,27.2,10.3ZM782.7,914.7c16.6-16.6-9.6-42.1-25.3-24.3-15.4,17.4,10.5,39.1,25.3,24.3Z"/>
  <path class="st1" d="M782.7,914.7c-14.8,14.8-40.7-6.9-25.3-24.3,15.7-17.8,41.9,7.8,25.3,24.3Z"/>
</svg>